<?xml version="1.0" encoding="utf-8"?>
<!-- Generator: Adobe Illustrator 16.0.3, SVG Export Plug-In . SVG Version: 6.00 Build 0)  -->
<!DOCTYPE svg PUBLIC "-//W3C//DTD SVG 1.1//EN" "http://www.w3.org/Graphics/SVG/1.1/DTD/svg11.dtd">
<svg version="1.1" id="圖層_1" xmlns="http://www.w3.org/2000/svg" xmlns:xlink="http://www.w3.org/1999/xlink" x="0px" y="0px"
	 width="24px" height="10px" viewBox="0 0 24 10" enable-background="new 0 0 24 10" xml:space="preserve">
<path fill="#FFFFFF" d="M22.003,4.752l-0.465-1.047l-0.432,1.059L22.003,4.752z M20.509,6.318H20.15l1.194-2.938h0.407L23,6.318
	h-0.371l-0.554-1.327l-1.051-0.012L20.509,6.318z M18.551,3.632v2.687h-0.333V3.383h0.924c0.202,0,0.366,0.016,0.49,0.046
	c0.122,0.031,0.258,0.112,0.342,0.195c0.085,0.083,0.214,0.415,0.203,0.559c-0.061,0.809-0.693,0.752-0.923,0.795l0.862,1.34h-0.401
	l-1.009-1.591h0.324c0.219,0,0.486-0.004,0.574-0.065c0.303-0.207,0.337-0.767-0.064-0.982c-0.086-0.046-0.247-0.048-0.492-0.048
	H18.551z M16.928,6.298h-0.336V3.617h-0.937V3.375h2.239v0.241h-0.967V6.298z M15.354,6.324h-0.335V3.354h0.335V6.324z
	 M13.793,4.807l-0.447-1.084l-0.481,1.073L13.793,4.807z M12.26,6.359h-0.357l1.25-2.959h0.405l1.214,2.959h-0.362l-0.551-1.307
	h-1.07L12.26,6.359z M11.479,6.359h-0.338V3.674h-0.897V3.417h2.181v0.258h-0.945V6.359z"/>
<path fill-rule="evenodd" clip-rule="evenodd" fill="#FFFFFF" d="M3.861,5.545c-0.832-0.831-2.19-0.831-3.022,0L0.732,5.66
	l1.187,1.188c0.078-0.16,0.242-0.272,0.432-0.272c0.265,0,0.48,0.217,0.48,0.482c0,0.188-0.112,0.351-0.271,0.429l1.186,1.186
	l0.116-0.106C4.691,7.734,4.691,6.38,3.861,5.545 M5.253,4.129c-0.832-0.833-0.832-2.189,0-3.023L5.367,1l1.188,1.187
	C6.394,2.263,6.283,2.427,6.283,2.62c0,0.262,0.215,0.479,0.481,0.479c0.188,0.001,0.354-0.112,0.431-0.271l1.187,1.186L8.275,4.129
	C7.443,4.962,6.084,4.962,5.253,4.129 M3.849,4.151c0.833-0.831,0.833-2.188,0-3.02L3.733,1.026L2.548,2.211
	c0.159,0.078,0.271,0.24,0.271,0.433c0,0.262-0.216,0.478-0.479,0.478c-0.19,0-0.354-0.11-0.433-0.271L0.719,4.038l0.107,0.114
	C1.659,4.983,3.016,4.983,3.849,4.151 M5.229,5.582c0.832-0.833,2.188-0.833,3.02,0l0.109,0.115L7.171,6.882
	c-0.078-0.16-0.243-0.27-0.432-0.27c-0.265,0-0.481,0.215-0.481,0.479c0,0.189,0.112,0.356,0.271,0.435L5.343,8.709L5.229,8.603
	C4.397,7.769,4.397,6.412,5.229,5.582"/>
</svg>
