<?xml version="1.0" encoding="utf-8"?>
<!-- Generator: Adobe Illustrator 16.0.3, SVG Export Plug-In . SVG Version: 6.00 Build 0)  -->
<!DOCTYPE svg PUBLIC "-//W3C//DTD SVG 1.1//EN" "http://www.w3.org/Graphics/SVG/1.1/DTD/svg11.dtd">
<svg version="1.1" id="圖層_1" xmlns="http://www.w3.org/2000/svg" xmlns:xlink="http://www.w3.org/1999/xlink" x="0px" y="0px"
	 width="24px" height="10px" viewBox="0 0 24 10" enable-background="new 0 0 24 10" xml:space="preserve">
<path fill="#FFFFFF" d="M6.915,4.687c-0.26-0.052-0.574-0.065-0.917-0.049c-1.053,1.264-2.735,2.37-3.867,2.517
	c-0.27,0.035-0.483,0.01-0.642-0.062C1.603,7.19,1.777,7.27,2.023,7.32c1.08,0.21,3.05-0.204,4.401-0.931
	C7.775,5.662,7.995,4.9,6.915,4.687"/>
<path fill="#FFFFFF" d="M2.756,5.093c1.123-0.681,2.59-1.168,3.831-1.325C7.118,2.78,6.865,2.138,5.88,2.267
	c-1.19,0.154-2.995,1.37-4.029,2.716C1.097,5.961,0.962,6.734,1.4,7.027C1.087,6.56,1.564,5.817,2.756,5.093"/>
<path fill="#FFFFFF" d="M10.425,4.989L9.81,4.823C9.646,4.78,9.553,4.703,9.553,4.614c0-0.165,0.29-0.255,0.562-0.255
	c0.246,0,0.416,0.079,0.552,0.144c0.087,0.041,0.157,0.073,0.222,0.073c0.187,0,0.228-0.087,0.229-0.161
	c0-0.001-0.026-0.079-0.026-0.079c-0.111-0.149-0.576-0.265-1.06-0.265c-0.477,0-0.969,0.21-0.969,0.561
	c0,0.299,0.291,0.417,0.545,0.485l0.7,0.193c0.202,0.056,0.397,0.124,0.397,0.282c0,0.152-0.219,0.314-0.624,0.314
	c-0.325,0-0.521-0.113-0.665-0.194C9.322,5.66,9.25,5.618,9.172,5.618c-0.107,0-0.217,0.097-0.217,0.163
	c0,0.167,0.466,0.414,1.108,0.414c0.678,0,1.132-0.247,1.132-0.615C11.195,5.227,10.815,5.096,10.425,4.989"/>
<path fill="#FFFFFF" d="M13.422,4.071c-0.865,0-1.317,0.534-1.317,1.063c0,0.488,0.363,1.062,1.387,1.062
	c0.7,0,1.192-0.284,1.192-0.437c0-0.163-0.156-0.163-0.218-0.163c-0.072,0-0.142,0.041-0.227,0.092
	c-0.155,0.092-0.367,0.22-0.777,0.22c-0.505,0-0.826-0.312-0.861-0.622h1.827c0.203,0,0.302-0.064,0.302-0.197
	C14.729,4.599,14.32,4.071,13.422,4.071 M14.233,4.996h-1.633c0.033-0.32,0.315-0.637,0.816-0.637
	C13.916,4.359,14.2,4.676,14.233,4.996"/>
<path fill="#FFFFFF" d="M21.24,4.071c-0.145,0-0.228,0.077-0.228,0.205V5.99c0,0.131,0.083,0.205,0.228,0.205
	c0.146,0,0.229-0.074,0.229-0.205V4.275C21.469,4.147,21.387,4.071,21.24,4.071"/>
<path fill="#FFFFFF" d="M17.771,4.415c0.195-0.208,0.535-0.343,0.878-0.343c0.532,0,1.104,0.235,1.104,0.75V5.99
	c0,0.131-0.084,0.205-0.229,0.205c-0.146,0-0.229-0.074-0.229-0.205V4.878c0-0.333-0.213-0.496-0.652-0.496
	c-0.321,0-0.663,0.175-0.663,0.496V5.99c0,0.131-0.084,0.205-0.229,0.205s-0.228-0.074-0.228-0.205V4.878V4.88
	c0-0.322-0.342-0.497-0.663-0.497c-0.439,0-0.651,0.163-0.651,0.497v1.111c0,0.131-0.084,0.205-0.23,0.205
	c-0.145,0-0.229-0.074-0.229-0.205V4.822c0-0.515,0.572-0.75,1.104-0.75c0.345,0,0.684,0.136,0.879,0.344l0.021,0.016L17.771,4.415z
	"/>
<path fill="#FFFFFF" d="M22.109,4.166h-0.063c-0.012,0-0.02-0.008-0.02-0.023c0-0.016,0.008-0.022,0.02-0.022h0.181
	c0.013,0,0.021,0.006,0.021,0.022c0,0.015-0.009,0.023-0.021,0.023h-0.063v0.212c0,0.018-0.009,0.03-0.027,0.03
	s-0.027-0.013-0.027-0.03V4.166z M22.3,4.162c0-0.032,0.016-0.046,0.042-0.046c0.018,0,0.036,0.005,0.044,0.027l0.066,0.182
	l0.064-0.182c0.009-0.021,0.027-0.027,0.045-0.027c0.027,0,0.042,0.014,0.042,0.046v0.219c0,0.015-0.012,0.027-0.026,0.027
	c-0.014,0-0.024-0.013-0.024-0.027V4.182h-0.002l-0.07,0.2c-0.007,0.02-0.015,0.026-0.028,0.026c-0.015,0-0.022-0.007-0.028-0.026
	l-0.071-0.2h-0.002v0.199c0,0.015-0.012,0.027-0.024,0.027c-0.015,0-0.026-0.013-0.026-0.027V4.162z"/>
</svg>
