<?xml version="1.0" encoding="utf-8"?>
<!-- Generator: Adobe Illustrator 16.0.3, SVG Export Plug-In . SVG Version: 6.00 Build 0)  -->
<!DOCTYPE svg PUBLIC "-//W3C//DTD SVG 1.1//EN" "http://www.w3.org/Graphics/SVG/1.1/DTD/svg11.dtd">
<svg version="1.1" id="圖層_1" xmlns="http://www.w3.org/2000/svg" xmlns:xlink="http://www.w3.org/1999/xlink" x="0px" y="0px"
	 width="24px" height="24px" viewBox="0 0 24 24" enable-background="new 0 0 24 24" xml:space="preserve">
<path fill="#7C7C7C" d="M12.006,6.969c2.782,0,5.038,2.255,5.038,5.038c0,1.248-0.457,2.395-1.21,3.279l0.21,0.209h0.612
	l3.875,3.875l-1.162,1.162l-3.875-3.875v-0.612l-0.209-0.21c-0.884,0.753-2.031,1.21-3.279,1.21c-2.782,0-5.038-2.256-5.038-5.038
	C6.969,9.224,9.224,6.969,12.006,6.969 M12.006,8.519c-1.938,0-3.488,1.55-3.488,3.488c0,1.938,1.55,3.488,3.488,3.488
	c1.938,0,3.488-1.55,3.488-3.488C15.494,10.069,13.944,8.519,12.006,8.519z"/>
</svg>
