<?xml version="1.0" encoding="utf-8"?>
<!-- Generator: Adobe Illustrator 16.0.3, SVG Export Plug-In . SVG Version: 6.00 Build 0)  -->
<!DOCTYPE svg PUBLIC "-//W3C//DTD SVG 1.1//EN" "http://www.w3.org/Graphics/SVG/1.1/DTD/svg11.dtd">
<svg version="1.1" id="圖層_1" xmlns="http://www.w3.org/2000/svg" xmlns:xlink="http://www.w3.org/1999/xlink" x="0px" y="0px"
	 width="24px" height="13.667px" viewBox="0 0 24 13.667" enable-background="new 0 0 24 13.667" xml:space="preserve">
<polygon fill="#1D3945" points="24,9.457 0,13.228 0,0 24,0 "/>
<g enable-background="new    ">
	<path fill="#FFFFFF" d="M8.348,3.775h0.215c0.127,0,0.21,0.005,0.249,0.015C8.85,3.801,8.886,3.818,8.918,3.843
		c0.033,0.025,0.058,0.057,0.076,0.094c0.018,0.038,0.027,0.079,0.027,0.125c0,0.074-0.02,0.135-0.06,0.182s-0.09,0.077-0.151,0.09
		C8.75,4.345,8.657,4.352,8.532,4.352H8.456v0.501H8.348V3.775z M8.456,3.881v0.367h0.182C8.746,4.25,8.819,4.232,8.855,4.194
		c0.036-0.037,0.054-0.081,0.054-0.133c0-0.121-0.087-0.181-0.262-0.181H8.456z"/>
	<path fill="#FFFFFF" d="M9.155,3.775h0.117l0.357,0.859l0.363-0.859h0.117L9.64,4.879H9.617L9.155,3.775z"/>
	<path fill="#FFFFFF" d="M10.557,3.881V3.775h0.591v0.105h-0.24v0.972h-0.109V3.881H10.557z"/>
	<path fill="#FFFFFF" d="M12.08,4.056v0.797h-0.101V4.716c-0.091,0.109-0.195,0.163-0.312,0.163c-0.117,0-0.216-0.041-0.296-0.125
		c-0.081-0.083-0.121-0.183-0.121-0.298c0-0.116,0.041-0.215,0.122-0.298c0.081-0.082,0.178-0.123,0.291-0.123
		c0.13,0,0.235,0.056,0.316,0.166V4.056H12.08z M11.985,4.458c0-0.091-0.03-0.168-0.091-0.23s-0.136-0.094-0.225-0.094
		c-0.088,0-0.163,0.032-0.224,0.097s-0.091,0.141-0.091,0.229c0,0.089,0.031,0.165,0.093,0.229s0.136,0.097,0.223,0.097
		s0.161-0.031,0.223-0.094C11.955,4.63,11.985,4.552,11.985,4.458z"/>
	<path fill="#FFFFFF" d="M12.263,3.834c0-0.023,0.008-0.043,0.025-0.061c0.017-0.017,0.037-0.025,0.06-0.025s0.043,0.009,0.06,0.025
		c0.016,0.017,0.024,0.036,0.024,0.06s-0.008,0.044-0.024,0.061c-0.017,0.016-0.037,0.024-0.06,0.024s-0.043-0.009-0.06-0.025
		C12.271,3.875,12.263,3.855,12.263,3.834z M12.296,4.056h0.104v0.797h-0.104V4.056z"/>
	<path fill="#FFFFFF" d="M12.502,4.056h0.106l0.243,0.604l0.256-0.604h0.019l0.255,0.604l0.248-0.604h0.107l-0.346,0.823h-0.02
		l-0.254-0.597l-0.255,0.597h-0.02L12.502,4.056z"/>
	<path fill="#FFFFFF" d="M14.65,4.056v0.797H14.55V4.716c-0.091,0.109-0.195,0.163-0.312,0.163c-0.117,0-0.217-0.041-0.297-0.125
		c-0.08-0.083-0.121-0.183-0.121-0.298c0-0.116,0.041-0.215,0.122-0.298c0.081-0.082,0.178-0.123,0.291-0.123
		c0.13,0,0.235,0.056,0.316,0.166V4.056H14.65z M14.556,4.458c0-0.091-0.03-0.168-0.091-0.23c-0.062-0.063-0.137-0.094-0.225-0.094
		c-0.089,0-0.164,0.032-0.225,0.097s-0.092,0.141-0.092,0.229c0,0.089,0.031,0.165,0.094,0.229c0.062,0.064,0.136,0.097,0.223,0.097
		c0.086,0,0.16-0.031,0.223-0.094C14.525,4.63,14.556,4.552,14.556,4.458z"/>
	<path fill="#FFFFFF" d="M14.881,4.056h0.104v0.143c0.082-0.108,0.182-0.163,0.299-0.163c0.061,0,0.113,0.016,0.162,0.049
		c0.048,0.032,0.082,0.074,0.102,0.127s0.03,0.13,0.03,0.232v0.409h-0.103v-0.38c0-0.093-0.004-0.156-0.012-0.188
		c-0.01-0.033-0.021-0.062-0.039-0.084c-0.018-0.023-0.04-0.041-0.067-0.053c-0.026-0.012-0.06-0.019-0.099-0.019
		c-0.038,0-0.076,0.01-0.113,0.029c-0.037,0.019-0.068,0.045-0.094,0.079c-0.026,0.034-0.043,0.069-0.053,0.105
		c-0.009,0.035-0.014,0.108-0.014,0.217v0.293h-0.104V4.056z"/>
</g>
<g enable-background="new    ">
	<path fill="#FFFFFF" d="M6.336,6.198C6.294,6.151,6.252,6.109,6.211,6.073S6.124,5.998,6.07,5.959l0.071-0.062
		C6.216,5.96,6.288,6.024,6.357,6.089c0.07,0.065,0.141,0.138,0.212,0.218L6.481,6.372C6.463,6.35,6.448,6.33,6.437,6.315
		C6.424,6.301,6.412,6.286,6.399,6.272C6.267,6.277,6.153,6.281,6.056,6.285s-0.18,0.008-0.25,0.011S5.676,6.302,5.628,6.305
		c-0.047,0.003-0.087,0.006-0.12,0.01c-0.033,0.003-0.06,0.006-0.083,0.01C5.404,6.327,5.382,6.331,5.362,6.337
		c-0.005-0.023-0.011-0.043-0.017-0.06c-0.007-0.017-0.017-0.036-0.029-0.06c0.03,0.003,0.069,0.005,0.117,0.005
		c0.048-0.048,0.095-0.098,0.142-0.147c0.046-0.051,0.089-0.1,0.129-0.146s0.074-0.091,0.104-0.13S5.858,5.727,5.873,5.7
		c0.022,0.016,0.041,0.026,0.056,0.035c0.016,0.008,0.034,0.016,0.055,0.023c0.02,0.007,0.03,0.015,0.029,0.023
		S6.001,5.796,5.979,5.798c-0.008,0.001-0.02,0.007-0.034,0.018c-0.015,0.011-0.036,0.03-0.064,0.06
		c-0.059,0.06-0.115,0.117-0.169,0.173C5.659,6.104,5.604,6.161,5.547,6.221L6.336,6.198z M5.563,7.087H5.461
		c0.002-0.028,0.004-0.056,0.005-0.081c0.001-0.026,0.002-0.054,0.002-0.083V6.576c0-0.009,0-0.02,0-0.031S5.467,6.521,5.467,6.509
		c0-0.012-0.001-0.022-0.002-0.033c-0.001-0.01-0.002-0.018-0.003-0.023C5.476,6.453,5.498,6.454,5.53,6.456
		C5.561,6.457,5.598,6.459,5.641,6.46s0.088,0.001,0.138,0.002c0.049,0,0.099,0.001,0.147,0.001c0.137,0,0.245-0.001,0.323-0.003
		s0.134-0.005,0.166-0.008C6.414,6.464,6.412,6.482,6.41,6.508C6.409,6.532,6.408,6.56,6.408,6.589v0.337c0,0.028,0,0.054,0,0.077
		c0,0.022,0,0.047,0.001,0.071H6.307V6.971H5.563V7.087z M6.307,6.542H5.563v0.351h0.744V6.542z"/>
	<path fill="#FFFFFF" d="M6.987,6.332C6.972,6.314,6.956,6.296,6.938,6.277S6.9,6.241,6.881,6.224
		c-0.02-0.017-0.039-0.032-0.057-0.046C6.807,6.163,6.791,6.152,6.775,6.143l0.051-0.06c0.018,0.012,0.037,0.025,0.057,0.041
		s0.04,0.032,0.059,0.049c0.02,0.018,0.039,0.034,0.057,0.051s0.034,0.032,0.048,0.047L6.987,6.332z M7.062,6.46
		C7.053,6.488,7.042,6.525,7.03,6.571C7.019,6.617,7.005,6.667,6.991,6.721C6.978,6.774,6.963,6.83,6.949,6.887
		C6.936,6.944,6.922,6.998,6.91,7.049C6.889,7.038,6.872,7.03,6.856,7.026S6.823,7.019,6.802,7.015
		c0.012-0.023,0.026-0.056,0.043-0.099c0.017-0.042,0.033-0.09,0.049-0.144S6.927,6.661,6.943,6.6s0.029-0.122,0.041-0.182
		C6.997,6.432,7.009,6.441,7.02,6.446C7.031,6.451,7.045,6.455,7.062,6.46z M7.011,6.001C6.957,5.938,6.893,5.883,6.819,5.834
		L6.87,5.77c0.033,0.026,0.068,0.055,0.105,0.087c0.037,0.032,0.07,0.063,0.099,0.09L7.011,6.001z M7.108,5.974
		c0.018-0.027,0.037-0.059,0.057-0.096c0.02-0.036,0.042-0.081,0.066-0.136c0.021,0.02,0.04,0.03,0.056,0.033
		C7.3,5.778,7.306,5.783,7.306,5.789S7.301,5.8,7.29,5.803c-0.007,0.002-0.014,0.005-0.02,0.011
		c-0.006,0.005-0.011,0.01-0.015,0.016c-0.02,0.033-0.036,0.06-0.049,0.079C7.194,5.928,7.18,5.949,7.166,5.974L7.26,5.972
		c0.014-0.022,0.024-0.041,0.032-0.055C7.298,5.902,7.304,5.887,7.31,5.87c0.011,0.01,0.021,0.018,0.03,0.023
		c0.009,0.005,0.018,0.011,0.027,0.016V5.851c0.015,0.002,0.029,0.004,0.042,0.005C7.42,5.857,7.434,5.858,7.448,5.859
		C7.462,5.86,7.479,5.861,7.498,5.861s0.042,0,0.068,0c0.028,0,0.052,0,0.072,0S7.676,5.86,7.691,5.859
		c0.016-0.001,0.03-0.002,0.042-0.004c0.013-0.001,0.026-0.003,0.04-0.005v0.076C7.759,5.925,7.745,5.923,7.732,5.922
		C7.719,5.92,7.705,5.919,7.689,5.918C7.674,5.917,7.656,5.916,7.636,5.916c-0.02-0.001-0.044-0.001-0.072-0.001
		c-0.023,0-0.043,0-0.06,0.001c-0.017,0-0.032,0.001-0.046,0.001C7.445,5.918,7.433,5.919,7.422,5.92
		C7.411,5.922,7.399,5.923,7.387,5.924c0.002,0.005-0.004,0.01-0.02,0.014C7.361,5.939,7.354,5.944,7.346,5.952
		C7.338,5.961,7.328,5.973,7.315,5.99C7.289,6.027,7.263,6.062,7.238,6.092c-0.025,0.031-0.046,0.058-0.064,0.08
		C7.201,6.17,7.228,6.168,7.252,6.167s0.045-0.002,0.06-0.003C7.307,6.153,7.302,6.142,7.295,6.131
		C7.289,6.12,7.281,6.107,7.273,6.094l0.052-0.028C7.341,6.09,7.355,6.116,7.369,6.143s0.026,0.055,0.038,0.084L7.344,6.25
		c-0.003-0.014-0.006-0.025-0.01-0.036L7.197,6.23c-0.029,0.004-0.052,0.007-0.07,0.01S7.094,6.247,7.082,6.253
		C7.081,6.237,7.077,6.224,7.072,6.21S7.061,6.186,7.051,6.178c0.007,0,0.016,0,0.025-0.001c0.01,0,0.021-0.001,0.032-0.002
		c0.015-0.018,0.032-0.038,0.05-0.062C7.177,6.089,7.2,6.058,7.227,6.021L7.192,6.021C7.173,6.022,7.155,6.024,7.137,6.027
		S7.104,6.034,7.093,6.038c-0.002-0.012-0.005-0.022-0.01-0.031c-0.004-0.01-0.011-0.021-0.02-0.033H7.108z M7.17,6.301
		C7.169,6.347,7.165,6.39,7.159,6.431c-0.006,0.04-0.015,0.074-0.026,0.101L7.063,6.515C7.079,6.491,7.09,6.461,7.099,6.424
		C7.107,6.388,7.111,6.343,7.111,6.29L7.17,6.301z M7.92,6.734C7.908,6.732,7.893,6.73,7.875,6.729
		C7.857,6.728,7.827,6.726,7.786,6.725s-0.1-0.001-0.175-0.002c-0.075,0-0.175-0.001-0.301-0.001L7.299,6.803
		c0.102,0,0.19,0,0.263,0c0.074,0,0.136,0,0.188,0c0.052-0.001,0.095-0.001,0.128-0.002C7.912,6.8,7.939,6.8,7.96,6.799
		s0.038-0.002,0.05-0.003c0.012-0.001,0.024-0.003,0.035-0.005c-0.011,0.021-0.02,0.04-0.025,0.057
		c-0.005,0.018-0.012,0.04-0.019,0.067C7.994,6.95,7.985,6.979,7.974,7.002C7.963,7.024,7.945,7.042,7.92,7.055
		C7.895,7.066,7.86,7.075,7.816,7.08C7.772,7.086,7.713,7.088,7.639,7.088c0.002-0.02,0-0.036-0.004-0.049s-0.017-0.03-0.034-0.053
		c0.059,0.011,0.107,0.018,0.146,0.02c0.038,0.002,0.068,0,0.092-0.006c0.024-0.005,0.041-0.015,0.053-0.027s0.02-0.029,0.026-0.05
		l0.017-0.06c-0.106,0-0.196,0-0.271,0s-0.137,0-0.188,0.001c-0.05,0-0.091,0.001-0.122,0.001C7.322,6.866,7.297,6.866,7.279,6.867
		c-0.018,0-0.031,0.001-0.041,0.003C7.23,6.871,7.221,6.872,7.213,6.873C7.219,6.84,7.224,6.805,7.228,6.769s0.004-0.076,0.002-0.12
		C7.238,6.65,7.254,6.652,7.279,6.653C7.304,6.655,7.334,6.657,7.37,6.658C7.406,6.66,7.445,6.661,7.487,6.661
		C7.53,6.662,7.572,6.662,7.615,6.662s0.083,0,0.122-0.001c0.039,0,0.073-0.001,0.102-0.002l0.007-0.076c-0.086,0-0.161,0-0.224,0
		s-0.118,0-0.164,0C7.413,6.584,7.375,6.584,7.346,6.584c-0.03,0-0.054,0-0.074,0.001c-0.02,0-0.035,0.001-0.046,0.002
		C7.215,6.588,7.205,6.589,7.195,6.59V6.512C7.21,6.514,7.227,6.516,7.244,6.518c0.018,0.001,0.04,0.002,0.067,0.003
		c0.028,0,0.062,0.001,0.102,0.001c0.041,0.001,0.091,0.001,0.152,0.001c0.068,0,0.123,0,0.165,0s0.076,0,0.102-0.001
		c0.026-0.001,0.046-0.003,0.062-0.004c0.015-0.002,0.029-0.004,0.043-0.006C7.93,6.545,7.924,6.581,7.921,6.62
		S7.918,6.697,7.92,6.734z M7.226,6.491c0-0.013-0.001-0.028-0.002-0.046S7.22,6.41,7.218,6.393S7.213,6.358,7.209,6.342
		S7.202,6.311,7.198,6.299l0.056-0.014c0.004,0.013,0.008,0.027,0.012,0.044C7.27,6.346,7.273,6.363,7.277,6.381
		c0.003,0.018,0.006,0.035,0.01,0.052C7.29,6.449,7.292,6.465,7.293,6.478L7.226,6.491z M7.353,6.47
		C7.347,6.433,7.339,6.398,7.331,6.366C7.321,6.335,7.31,6.305,7.294,6.276L7.345,6.26C7.357,6.282,7.37,6.311,7.384,6.346
		s0.025,0.068,0.033,0.101L7.353,6.47z M7.723,6.047C7.707,6.045,7.688,6.043,7.669,6.042C7.65,6.04,7.624,6.039,7.588,6.039
		c-0.041,0-0.075,0.001-0.101,0.003C7.462,6.043,7.44,6.045,7.423,6.047V5.979C7.432,5.98,7.441,5.981,7.451,5.982
		C7.46,5.983,7.472,5.984,7.484,5.984c0.013,0.001,0.027,0.001,0.044,0.002c0.016,0,0.037,0.001,0.061,0.001
		c0.037,0,0.064-0.001,0.083-0.002s0.036-0.003,0.052-0.006V6.047z M7.723,6.178C7.707,6.176,7.687,6.174,7.665,6.172
		C7.643,6.171,7.614,6.17,7.578,6.17c-0.037,0-0.066,0.001-0.087,0.002s-0.042,0.003-0.06,0.006V6.105
		C7.45,6.107,7.47,6.109,7.492,6.11c0.021,0.002,0.05,0.003,0.086,0.003c0.036,0,0.065-0.001,0.087-0.002s0.042-0.003,0.058-0.006
		V6.178z M7.719,6.479C7.704,6.477,7.687,6.476,7.667,6.476c-0.02-0.001-0.051-0.001-0.092-0.001c-0.018,0-0.033,0-0.045,0
		c-0.013,0-0.024,0-0.035,0.001c-0.011,0-0.021,0.001-0.03,0.002c-0.01,0.001-0.02,0.002-0.031,0.003
		c0.002-0.01,0.004-0.025,0.006-0.045s0.003-0.041,0.003-0.063c0-0.041-0.003-0.085-0.009-0.133
		c0.022,0.003,0.042,0.005,0.062,0.006c0.019,0.001,0.046,0.001,0.081,0.001c0.016,0,0.03,0,0.043,0s0.024,0,0.035-0.001
		c0.01-0.001,0.021-0.002,0.031-0.002c0.01-0.001,0.021-0.002,0.034-0.004C7.716,6.284,7.714,6.328,7.714,6.372
		c0,0.023,0,0.043,0.001,0.059C7.716,6.447,7.717,6.463,7.719,6.479z M7.601,5.848C7.585,5.83,7.568,5.815,7.548,5.801
		c-0.02-0.014-0.043-0.027-0.069-0.042l0.036-0.053c0.023,0.015,0.046,0.029,0.069,0.045s0.043,0.03,0.06,0.046L7.601,5.848z
		 M7.654,6.307H7.503v0.117h0.151V6.307z M7.774,5.968c0.01-0.016,0.02-0.03,0.029-0.046C7.813,5.906,7.823,5.89,7.832,5.871
		c0.01-0.018,0.02-0.037,0.03-0.06c0.01-0.022,0.022-0.048,0.035-0.076c0.02,0.016,0.037,0.025,0.051,0.029
		c0.011,0.004,0.017,0.009,0.018,0.015S7.962,5.79,7.951,5.795C7.94,5.799,7.928,5.813,7.914,5.837
		C7.889,5.881,7.861,5.925,7.83,5.968l0.105-0.002c0.02-0.026,0.035-0.049,0.044-0.067c0.01-0.018,0.018-0.035,0.025-0.053
		c0.028,0.021,0.05,0.032,0.067,0.036c0.009,0.002,0.014,0.007,0.014,0.013c0,0.007-0.005,0.012-0.017,0.015
		C8.063,5.911,8.057,5.915,8.05,5.921C8.042,5.927,8.032,5.938,8.019,5.954C7.985,5.997,7.953,6.037,7.924,6.073
		c-0.03,0.036-0.057,0.067-0.081,0.094l0.159-0.005c-0.006-0.014-0.013-0.027-0.02-0.04S7.969,6.097,7.962,6.086l0.049-0.025
		c0.017,0.026,0.034,0.056,0.05,0.088s0.03,0.063,0.042,0.091l-0.06,0.023C8.041,6.255,8.039,6.247,8.035,6.239
		C8.032,6.231,8.029,6.223,8.026,6.215L7.858,6.229C7.842,6.23,7.826,6.233,7.808,6.236S7.775,6.243,7.761,6.248
		C7.757,6.223,7.748,6.197,7.734,6.17l0.038-0.001C7.78,6.159,7.789,6.15,7.796,6.142c0.008-0.009,0.016-0.02,0.026-0.031
		C7.831,6.1,7.842,6.086,7.853,6.071c0.012-0.014,0.025-0.032,0.042-0.053C7.861,6.021,7.836,6.022,7.82,6.025
		C7.804,6.027,7.785,6.031,7.764,6.036c-0.002-0.011-0.005-0.022-0.01-0.034S7.743,5.979,7.737,5.968H7.774z M7.854,6.302
		c-0.005,0.04-0.013,0.076-0.023,0.109c-0.01,0.032-0.021,0.06-0.034,0.081L7.734,6.475c0.017-0.021,0.03-0.045,0.039-0.073
		C7.782,6.372,7.79,6.334,7.795,6.285L7.854,6.302z M7.909,6.473c0.002-0.026,0.001-0.056-0.001-0.088S7.899,6.324,7.892,6.301
		l0.051-0.013C7.95,6.314,7.957,6.344,7.961,6.376c0.005,0.033,0.007,0.063,0.008,0.088L7.909,6.473z M8.044,6.463
		C8.04,6.434,8.032,6.405,8.022,6.378C8.012,6.351,8,6.322,7.986,6.295l0.053-0.024c0.014,0.025,0.027,0.054,0.04,0.085
		s0.023,0.063,0.031,0.094L8.044,6.463z"/>
	<path fill="#FFFFFF" d="M8.481,7.08H8.386C8.39,7.038,8.393,6.997,8.394,6.958c0.001-0.04,0.001-0.083,0.001-0.128V5.993
		c0-0.03,0-0.06-0.001-0.087C8.393,5.878,8.39,5.847,8.386,5.812c0.013,0.002,0.031,0.003,0.053,0.004
		c0.022,0,0.053,0.001,0.094,0.002s0.094,0.002,0.16,0.002c0.065,0,0.148,0,0.248,0c0.101,0,0.184,0,0.25,0
		c0.066,0,0.119-0.001,0.16-0.002s0.072-0.002,0.094-0.002c0.021-0.001,0.039-0.002,0.052-0.004
		C9.496,5.847,9.495,5.878,9.495,5.907c0,0.028,0,0.057,0,0.086v0.809c0,0.045,0,0.087,0.001,0.127S9.498,7.01,9.5,7.052H9.408
		V6.967H8.481V7.08z M9.408,5.896H8.481v0.996h0.927V5.896z M8.949,6.609C8.947,6.626,8.946,6.64,8.947,6.652S8.95,6.678,8.952,6.69
		C8.924,6.692,8.893,6.695,8.859,6.698S8.79,6.704,8.754,6.709c-0.035,0.004-0.07,0.008-0.105,0.013
		c-0.035,0.004-0.067,0.01-0.098,0.016C8.549,6.727,8.548,6.719,8.547,6.713S8.544,6.701,8.542,6.695
		C8.541,6.69,8.538,6.685,8.535,6.678C8.532,6.671,8.528,6.662,8.524,6.65c0.04,0,0.08-0.001,0.12-0.003s0.078-0.006,0.115-0.01
		S8.832,6.63,8.863,6.625C8.896,6.619,8.924,6.614,8.949,6.609z M8.772,6.152c-0.038,0-0.079,0-0.123,0.002
		C8.606,6.156,8.567,6.158,8.532,6.162V6.074c0.035,0.004,0.074,0.007,0.118,0.008c0.044,0.002,0.084,0.003,0.123,0.003h0.199
		C8.968,6.05,8.966,6.02,8.963,5.995C8.96,5.971,8.958,5.945,8.957,5.92c0.017,0.005,0.032,0.009,0.046,0.012
		s0.029,0.004,0.045,0.003c0.012-0.001,0.019,0,0.022,0.004c0.002,0.003-0.002,0.01-0.013,0.021C9.053,5.963,9.05,5.969,9.049,5.978
		C9.047,5.985,9.046,6,9.046,6.021c0,0.01,0,0.02,0,0.03s0,0.021,0.001,0.034h0.08c0.039,0,0.082-0.001,0.127-0.003
		C9.301,6.081,9.34,6.078,9.374,6.074v0.088C9.34,6.158,9.301,6.156,9.255,6.154S9.167,6.152,9.127,6.152H9.052
		c0.006,0.053,0.018,0.116,0.036,0.19c0.006,0.021,0.013,0.043,0.02,0.064C9.115,6.428,9.123,6.448,9.13,6.469
		C9.152,6.428,9.17,6.388,9.184,6.35c0.014-0.037,0.025-0.081,0.035-0.13c0.026,0.019,0.055,0.032,0.085,0.04
		c0.013,0.004,0.02,0.009,0.019,0.015c0,0.005-0.006,0.011-0.018,0.016c-0.004,0.002-0.01,0.009-0.02,0.021
		c-0.009,0.012-0.019,0.03-0.03,0.058C9.242,6.403,9.228,6.436,9.213,6.465c-0.014,0.029-0.03,0.059-0.047,0.088
		c0.021,0.041,0.039,0.072,0.052,0.094c0.014,0.021,0.03,0.041,0.046,0.059C9.274,6.716,9.283,6.723,9.29,6.727
		C9.298,6.73,9.304,6.729,9.31,6.724s0.01-0.018,0.012-0.034c0.002-0.018,0.003-0.042,0.003-0.074
		c0.016,0.019,0.029,0.03,0.039,0.037C9.373,6.659,9.385,6.664,9.399,6.67C9.39,6.714,9.379,6.747,9.368,6.771
		c-0.012,0.024-0.024,0.041-0.037,0.05C9.318,6.83,9.306,6.833,9.293,6.83C9.281,6.827,9.269,6.821,9.258,6.813
		C9.231,6.789,9.206,6.764,9.183,6.736C9.16,6.709,9.138,6.675,9.118,6.635C9.104,6.66,9.09,6.682,9.078,6.699
		C9.066,6.718,9.054,6.733,9.042,6.748C9.03,6.763,9.018,6.776,9.004,6.79S8.976,6.818,8.958,6.835
		C8.941,6.82,8.927,6.811,8.917,6.806C8.907,6.8,8.894,6.795,8.877,6.789C8.918,6.76,8.954,6.727,8.985,6.692
		c0.031-0.035,0.063-0.08,0.095-0.134C9.054,6.502,9.033,6.439,9.017,6.372C9,6.306,8.987,6.232,8.979,6.152H8.772z M8.925,6.545
		C8.914,6.544,8.903,6.543,8.894,6.543C8.883,6.542,8.872,6.542,8.86,6.541c-0.013,0-0.027-0.001-0.042-0.001
		c-0.015,0-0.034,0-0.055,0c-0.042,0-0.076,0.001-0.102,0.001C8.635,6.542,8.611,6.543,8.59,6.545
		c0.002-0.017,0.003-0.042,0.004-0.074s0.001-0.062,0.001-0.088c0-0.025,0-0.054-0.001-0.085C8.594,6.268,8.592,6.244,8.59,6.227
		C8.611,6.229,8.635,6.23,8.661,6.23c0.026,0.001,0.06,0.001,0.102,0.001c0.021,0,0.04,0,0.055,0c0.016,0,0.03,0,0.042-0.001
		c0.012,0,0.023-0.001,0.034-0.001c0.01-0.001,0.021-0.001,0.031-0.003C8.923,6.248,8.921,6.271,8.92,6.298
		C8.919,6.323,8.919,6.352,8.919,6.383c0,0.03,0,0.061,0.001,0.09C8.921,6.503,8.923,6.527,8.925,6.545z M8.847,6.293h-0.18v0.183
		h0.18V6.293z M9.25,6.072C9.238,6.059,9.228,6.046,9.22,6.036C9.211,6.025,9.202,6.016,9.193,6.007
		c-0.009-0.01-0.019-0.019-0.028-0.027c-0.01-0.009-0.022-0.02-0.036-0.031L9.18,5.903c0.016,0.014,0.03,0.025,0.041,0.036
		c0.011,0.01,0.021,0.02,0.03,0.028c0.009,0.009,0.017,0.018,0.024,0.026c0.008,0.01,0.016,0.02,0.025,0.03L9.25,6.072z"/>
	<path fill="#FFFFFF" d="M10.353,5.932c-0.013,0.022-0.025,0.043-0.037,0.061c-0.011,0.018-0.023,0.033-0.034,0.048
		c-0.012,0.015-0.023,0.028-0.036,0.041c-0.013,0.014-0.026,0.027-0.04,0.041c-0.011-0.009-0.021-0.017-0.03-0.021
		c-0.009-0.006-0.024-0.012-0.046-0.02c0.032-0.022,0.059-0.047,0.081-0.071c0.022-0.025,0.044-0.054,0.066-0.084
		c0.02-0.029,0.036-0.06,0.049-0.09c0.012-0.031,0.023-0.068,0.034-0.111c0.018,0.009,0.034,0.016,0.046,0.021
		c0.013,0.004,0.026,0.008,0.039,0.01c0.014,0.002,0.021,0.007,0.022,0.015s-0.004,0.014-0.015,0.018
		c-0.006,0.002-0.013,0.008-0.021,0.017c-0.008,0.008-0.021,0.029-0.041,0.062h0.129c0.018,0,0.036-0.001,0.055-0.003
		s0.036-0.004,0.051-0.006c-0.028,0.094-0.06,0.177-0.096,0.247s-0.082,0.135-0.136,0.194c0.014,0.002,0.027,0.003,0.041,0.004
		c0.014,0,0.029,0.001,0.046,0.002s0.038,0.001,0.062,0.001s0.052,0,0.085,0c0.055,0,0.099,0,0.13-0.001
		c0.032-0.001,0.062-0.003,0.09-0.005c-0.018-0.02-0.033-0.038-0.045-0.055c-0.012-0.017-0.023-0.033-0.034-0.052
		c-0.014-0.021-0.026-0.044-0.037-0.067c-0.01-0.023-0.02-0.048-0.029-0.076c-0.009-0.027-0.017-0.058-0.025-0.092
		c-0.008-0.034-0.017-0.074-0.025-0.12h0.25c0.017,0,0.037-0.001,0.06-0.003s0.042-0.004,0.059-0.006
		c-0.015,0.039-0.03,0.074-0.045,0.105c-0.015,0.031-0.03,0.061-0.045,0.087c-0.015,0.025-0.03,0.05-0.046,0.073
		c-0.016,0.022-0.033,0.046-0.052,0.068c0.019,0.026,0.037,0.049,0.055,0.068c0.018,0.019,0.036,0.036,0.055,0.052
		c0.02,0.015,0.042,0.03,0.067,0.045c0.025,0.014,0.055,0.029,0.09,0.045c-0.013,0.011-0.025,0.021-0.036,0.034
		c-0.011,0.013-0.022,0.028-0.035,0.049c-0.034-0.026-0.063-0.05-0.088-0.07c-0.025-0.021-0.046-0.041-0.064-0.059v0.056
		c-0.013-0.001-0.027-0.002-0.041-0.003c-0.014-0.001-0.03-0.002-0.049-0.003c-0.019,0-0.041,0-0.066,0s-0.056,0-0.092,0
		c-0.043,0-0.078,0-0.104,0s-0.047,0-0.064,0c-0.017,0.001-0.031,0.002-0.042,0.003c-0.011,0.001-0.023,0.002-0.036,0.003V6.311
		c-0.046,0.049-0.101,0.096-0.164,0.142c-0.011-0.012-0.022-0.021-0.033-0.029c-0.011-0.008-0.027-0.017-0.047-0.026
		c0.029,0.058,0.043,0.117,0.043,0.177c0,0.036-0.003,0.066-0.009,0.092c-0.007,0.025-0.018,0.047-0.035,0.064
		s-0.039,0.032-0.067,0.044c-0.028,0.011-0.063,0.02-0.106,0.026C9.959,6.759,9.944,6.722,9.918,6.688
		c0.071,0.006,0.119,0,0.145-0.019s0.039-0.053,0.039-0.103c0-0.024-0.003-0.05-0.01-0.077c-0.007-0.028-0.017-0.056-0.031-0.085
		c-0.014-0.028-0.032-0.056-0.053-0.083C9.987,6.295,9.961,6.27,9.931,6.246c0.016-0.033,0.03-0.063,0.042-0.09
		c0.011-0.027,0.022-0.054,0.033-0.08c0.01-0.026,0.021-0.055,0.03-0.086c0.01-0.031,0.022-0.067,0.036-0.109H9.889v0.882
		c0,0.04,0,0.074,0,0.104c0,0.029,0,0.056,0.002,0.08c0.001,0.023,0.002,0.047,0.003,0.068S9.898,7.06,9.9,7.085H9.788
		c0.003-0.027,0.005-0.053,0.007-0.076C9.797,6.984,9.798,6.96,9.799,6.935s0.002-0.053,0.002-0.08s0-0.058,0-0.092V5.997
		c0-0.015,0-0.031,0-0.048c0-0.018-0.001-0.035-0.002-0.053S9.797,5.861,9.795,5.846C9.794,5.829,9.793,5.814,9.792,5.801
		c0.035,0.002,0.07,0.004,0.105,0.005c0.036,0.001,0.071,0.001,0.106,0.001c0.04,0,0.073,0,0.098-0.001s0.053-0.003,0.083-0.006
		c-0.012,0.039-0.024,0.076-0.036,0.11c-0.011,0.035-0.023,0.07-0.037,0.104c-0.013,0.034-0.027,0.069-0.041,0.104
		c-0.015,0.035-0.031,0.072-0.049,0.111c0.028,0.032,0.051,0.061,0.068,0.087c0.017,0.026,0.033,0.052,0.045,0.078
		c0.028-0.015,0.06-0.035,0.094-0.06c0.035-0.025,0.066-0.051,0.094-0.077c-0.02-0.02-0.04-0.036-0.058-0.05
		c-0.019-0.014-0.039-0.026-0.06-0.038l0.049-0.049c0.023,0.017,0.044,0.031,0.063,0.044s0.037,0.026,0.054,0.04
		c0.012-0.014,0.023-0.027,0.033-0.041c0.01-0.014,0.019-0.026,0.027-0.04c-0.016-0.014-0.033-0.025-0.052-0.036
		s-0.04-0.021-0.063-0.031l0.036-0.052c0.019,0.011,0.038,0.021,0.057,0.032c0.019,0.01,0.037,0.021,0.054,0.032
		c0.011-0.021,0.021-0.043,0.03-0.064c0.009-0.022,0.018-0.046,0.027-0.072H10.353z M10.432,6.744
		c-0.011,0.002-0.021,0.008-0.029,0.017c-0.009,0.008-0.022,0.023-0.04,0.047c-0.01,0.012-0.02,0.023-0.029,0.036
		C10.325,6.855,10.313,6.868,10.3,6.88c-0.013,0.013-0.028,0.026-0.046,0.042c-0.018,0.015-0.04,0.031-0.066,0.049
		c-0.013-0.013-0.024-0.022-0.033-0.028c-0.009-0.006-0.024-0.014-0.046-0.022c0.064-0.039,0.115-0.078,0.154-0.117
		s0.075-0.083,0.106-0.133c0.012,0.011,0.024,0.019,0.035,0.024c0.011,0.006,0.02,0.009,0.027,0.011
		c0.011,0.004,0.017,0.01,0.018,0.021S10.443,6.742,10.432,6.744z M10.51,6.598c-0.051,0-0.099,0.001-0.143,0.003
		s-0.08,0.005-0.107,0.008V6.517c0.014,0.002,0.031,0.004,0.05,0.005c0.019,0.002,0.043,0.003,0.072,0.004s0.064,0.002,0.106,0.002
		c0.042,0.001,0.092,0.001,0.152,0.001c0.109,0,0.193-0.001,0.251-0.004c0.059-0.002,0.101-0.005,0.127-0.008v0.092
		c-0.026-0.003-0.062-0.006-0.107-0.008c-0.045-0.002-0.092-0.003-0.142-0.003h-0.101v0.347c0,0.023-0.003,0.043-0.008,0.059
		s-0.017,0.028-0.033,0.037c-0.016,0.009-0.04,0.016-0.069,0.019c-0.029,0.004-0.069,0.006-0.118,0.006
		c-0.001-0.011-0.002-0.02-0.003-0.026c-0.001-0.008-0.003-0.015-0.006-0.021c-0.003-0.006-0.006-0.014-0.011-0.021
		c-0.004-0.008-0.01-0.019-0.017-0.03c0.039,0.006,0.07,0.01,0.093,0.012c0.023,0.001,0.041,0,0.053-0.004
		c0.012-0.004,0.021-0.011,0.024-0.02s0.005-0.021,0.005-0.036V6.598H10.51z M10.8,6.091c0.013-0.017,0.024-0.031,0.034-0.046
		c0.01-0.015,0.019-0.029,0.027-0.044c0.008-0.015,0.016-0.029,0.022-0.045c0.006-0.016,0.013-0.033,0.02-0.053h-0.165
		c0.008,0.04,0.016,0.073,0.025,0.101C10.771,6.032,10.784,6.061,10.8,6.091z M10.966,6.958c-0.015-0.024-0.029-0.046-0.043-0.065
		s-0.029-0.038-0.044-0.057c-0.015-0.018-0.033-0.037-0.052-0.057c-0.019-0.019-0.042-0.041-0.067-0.064l0.059-0.048
		c0.027,0.024,0.05,0.046,0.07,0.064c0.02,0.018,0.037,0.035,0.053,0.052c0.016,0.018,0.031,0.034,0.046,0.052
		s0.032,0.038,0.05,0.063L10.966,6.958z"/>
	<path fill="#FFFFFF" d="M11.967,6.092c0.08,0,0.152,0,0.215,0s0.12,0,0.169-0.001c0.05-0.001,0.094-0.002,0.129-0.003
		c0.038,0,0.069-0.001,0.096-0.003v0.093c-0.025-0.002-0.057-0.004-0.093-0.005c-0.036-0.001-0.077-0.002-0.126-0.003
		c-0.047-0.001-0.102-0.001-0.162-0.001c-0.061,0-0.129,0-0.206,0c0.024,0.072,0.056,0.146,0.095,0.218s0.085,0.143,0.138,0.209
		c0.053,0.067,0.113,0.131,0.18,0.19c0.066,0.061,0.141,0.114,0.219,0.162c-0.014,0.008-0.027,0.02-0.043,0.034
		c-0.014,0.015-0.028,0.031-0.043,0.052c-0.16-0.123-0.288-0.25-0.381-0.381c-0.095-0.13-0.163-0.26-0.204-0.388
		c-0.014,0.07-0.039,0.142-0.073,0.214c-0.035,0.071-0.079,0.142-0.13,0.21c-0.052,0.068-0.112,0.135-0.179,0.197
		s-0.139,0.118-0.216,0.167c-0.011-0.018-0.023-0.031-0.036-0.044c-0.012-0.012-0.03-0.023-0.053-0.034
		c0.082-0.039,0.16-0.09,0.233-0.152c0.073-0.063,0.137-0.131,0.193-0.204s0.101-0.149,0.134-0.228
		c0.033-0.077,0.052-0.152,0.055-0.223c-0.134,0-0.25,0-0.347,0.001c-0.097,0.001-0.172,0.004-0.225,0.008V6.085
		c0.053,0.003,0.129,0.005,0.228,0.006s0.215,0.001,0.35,0.001c0.001-0.033,0.002-0.068,0.003-0.106s0.001-0.074,0.001-0.109
		s-0.001-0.066-0.002-0.095c-0.001-0.029-0.002-0.051-0.004-0.065c0.021,0.004,0.041,0.007,0.059,0.008
		c0.018,0.002,0.038,0,0.059-0.005c0.012-0.003,0.019,0,0.02,0.01c0.001,0.009-0.003,0.017-0.014,0.023
		c-0.009,0.005-0.016,0.037-0.022,0.097C11.977,5.908,11.972,5.989,11.967,6.092z M12.055,6.926
		c-0.027-0.038-0.06-0.079-0.099-0.123c-0.039-0.045-0.078-0.084-0.116-0.118l0.054-0.059c0.019,0.017,0.039,0.035,0.06,0.056
		c0.021,0.02,0.042,0.041,0.063,0.063s0.041,0.043,0.061,0.064s0.037,0.041,0.053,0.059L12.055,6.926z"/>
	<path fill="#FFFFFF" d="M13.215,6.564c0,0.069-0.018,0.122-0.053,0.158c-0.035,0.037-0.096,0.062-0.182,0.074
		c-0.002-0.018-0.008-0.037-0.017-0.058S12.945,6.7,12.936,6.685c0.071,0.003,0.122-0.006,0.151-0.025
		c0.03-0.021,0.044-0.054,0.044-0.103c0-0.047-0.014-0.097-0.043-0.15s-0.069-0.103-0.121-0.146c0.019-0.043,0.035-0.082,0.05-0.117
		c0.015-0.034,0.026-0.067,0.038-0.098c0.01-0.03,0.02-0.061,0.027-0.089s0.016-0.057,0.022-0.086h-0.202v0.898
		c0,0.039,0,0.073,0,0.102c0,0.029,0,0.057,0.001,0.081s0.003,0.047,0.004,0.069s0.003,0.046,0.005,0.07H12.8
		c0.003-0.026,0.005-0.052,0.007-0.075c0.003-0.022,0.004-0.046,0.006-0.07c0-0.023,0.001-0.05,0.002-0.078c0-0.029,0-0.062,0-0.099
		V5.987c0-0.016,0-0.031,0-0.049c-0.001-0.018-0.002-0.035-0.002-0.053c-0.002-0.018-0.003-0.034-0.004-0.051
		c-0.002-0.017-0.004-0.031-0.004-0.045c0.035,0.003,0.07,0.004,0.107,0.005s0.073,0.002,0.108,0.002
		c0.04,0,0.075-0.001,0.106-0.003c0.031-0.001,0.062-0.003,0.092-0.005c-0.023,0.081-0.049,0.161-0.075,0.24
		c-0.027,0.08-0.055,0.153-0.083,0.221c0.022,0.017,0.043,0.037,0.063,0.063c0.018,0.025,0.035,0.052,0.049,0.079
		c0.014,0.028,0.025,0.058,0.032,0.088C13.211,6.509,13.215,6.537,13.215,6.564z M13.451,6.377c-0.049,0.001-0.09,0.002-0.127,0.003
		s-0.072,0.003-0.107,0.005v-0.08c0.027,0.002,0.055,0.004,0.085,0.004c0.029,0.001,0.062,0.001,0.095,0.002
		c0.034,0.002,0.072,0.002,0.112,0.002s0.085,0,0.136,0c0.101,0,0.186,0,0.255-0.002c0.069-0.001,0.131-0.003,0.187-0.006v0.08
		c-0.033-0.002-0.065-0.004-0.097-0.005c-0.03-0.001-0.066-0.002-0.106-0.002c-0.041-0.001-0.089-0.001-0.143-0.001
		c-0.055,0-0.123,0-0.202,0c-0.029,0.054-0.056,0.099-0.081,0.134h0.369c0.012,0,0.026,0,0.044-0.001
		c0.018,0,0.036-0.002,0.056-0.003c0.02-0.002,0.039-0.003,0.058-0.005c0.019-0.001,0.036-0.003,0.051-0.005
		c-0.002,0.011-0.004,0.027-0.007,0.048c-0.002,0.021-0.004,0.045-0.006,0.073c-0.002,0.027-0.005,0.056-0.008,0.087
		c-0.002,0.03-0.004,0.06-0.005,0.088c-0.003,0.055-0.008,0.099-0.015,0.133c-0.008,0.034-0.02,0.061-0.037,0.08
		c-0.019,0.02-0.043,0.034-0.074,0.043s-0.072,0.016-0.123,0.02c0-0.013,0-0.023,0-0.033c-0.001-0.009-0.002-0.018-0.006-0.025
		c-0.002-0.008-0.006-0.016-0.012-0.024s-0.014-0.019-0.024-0.031c0.037,0.009,0.067,0.013,0.092,0.013
		c0.024,0.001,0.043-0.003,0.058-0.012s0.025-0.022,0.033-0.041s0.014-0.045,0.019-0.076c0.003-0.022,0.006-0.045,0.009-0.068
		s0.006-0.047,0.008-0.07c0.002-0.022,0.004-0.045,0.005-0.066s0.003-0.041,0.003-0.06h-0.103c-0.028,0.063-0.058,0.118-0.09,0.169
		s-0.065,0.097-0.103,0.138c-0.035,0.041-0.074,0.077-0.115,0.11c-0.041,0.032-0.084,0.062-0.129,0.089
		c-0.011-0.019-0.021-0.032-0.032-0.041c-0.011-0.01-0.025-0.019-0.044-0.026c0.097-0.047,0.182-0.105,0.254-0.177
		c0.071-0.07,0.13-0.157,0.175-0.262H13.64c-0.048,0.085-0.104,0.158-0.169,0.22c-0.064,0.061-0.141,0.114-0.229,0.161
		c-0.008-0.021-0.017-0.035-0.025-0.045c-0.01-0.009-0.024-0.019-0.043-0.028c0.084-0.027,0.16-0.068,0.229-0.123
		c0.067-0.054,0.119-0.115,0.153-0.185h-0.147c-0.016,0.02-0.032,0.037-0.05,0.054c-0.017,0.017-0.036,0.034-0.058,0.055
		c-0.013-0.018-0.025-0.03-0.035-0.038c-0.011-0.009-0.025-0.016-0.046-0.021c0.027-0.016,0.052-0.032,0.073-0.049
		s0.041-0.034,0.059-0.053c0.018-0.02,0.035-0.041,0.051-0.064C13.419,6.434,13.436,6.407,13.451,6.377z M13.941,6.236
		c-0.016-0.001-0.031-0.002-0.045-0.003s-0.031-0.002-0.053-0.003c-0.021,0-0.049,0-0.082,0s-0.076,0-0.131,0
		c-0.046,0-0.085,0-0.117,0c-0.031,0-0.059,0-0.082,0c-0.023,0.001-0.043,0.002-0.061,0.003s-0.035,0.002-0.051,0.003
		c0.002-0.01,0.004-0.023,0.006-0.042c0.001-0.02,0.002-0.038,0.002-0.058V5.909c0-0.02-0.001-0.039-0.002-0.059
		c-0.002-0.021-0.004-0.034-0.006-0.044c0.016,0.001,0.031,0.002,0.047,0.003s0.035,0.002,0.057,0.003
		c0.021,0,0.049,0.001,0.082,0.001c0.032,0,0.074,0,0.125,0c0.046,0,0.086,0,0.117,0c0.033,0,0.061-0.001,0.084-0.001
		c0.023-0.001,0.043-0.002,0.061-0.003c0.016-0.001,0.033-0.002,0.049-0.003c-0.003,0.01-0.005,0.021-0.006,0.035
		c-0.001,0.015-0.002,0.037-0.002,0.067v0.228c0,0.02,0.001,0.038,0.002,0.058C13.938,6.213,13.939,6.227,13.941,6.236z
		 M13.848,5.885h-0.434v0.106h0.434V5.885z M13.848,6.061h-0.434v0.102h0.434V6.061z"/>
	<path fill="#FFFFFF" d="M14.895,5.855c0-0.018-0.001-0.032-0.002-0.044c0-0.012-0.001-0.022-0.002-0.032s-0.002-0.019-0.004-0.026
		c-0.001-0.008-0.003-0.017-0.005-0.025c0.022,0.002,0.044,0.004,0.061,0.005c0.018,0.001,0.036,0.001,0.056,0
		c0.012-0.001,0.018,0,0.02,0.005s-0.004,0.011-0.014,0.019c-0.013,0.009-0.019,0.034-0.019,0.077v0.482
		c0.063,0,0.123,0,0.178-0.001c0.055,0,0.104-0.001,0.151-0.003c0.047-0.001,0.09-0.003,0.131-0.004
		c0.041-0.002,0.079-0.004,0.116-0.007v0.106c-0.062-0.004-0.13-0.008-0.201-0.011s-0.157-0.005-0.253-0.005v0.472
		c0,0.014,0.002,0.025,0.006,0.033c0.004,0.009,0.012,0.016,0.023,0.021c0.011,0.005,0.027,0.009,0.049,0.011
		c0.021,0.002,0.049,0.002,0.084,0.001c0.043-0.001,0.076-0.003,0.104-0.007c0.025-0.003,0.046-0.011,0.062-0.023
		s0.027-0.031,0.035-0.056c0.009-0.024,0.017-0.058,0.024-0.1c0.023,0.035,0.055,0.057,0.092,0.065
		c-0.016,0.047-0.029,0.083-0.042,0.109s-0.028,0.046-0.05,0.06C15.475,6.991,15.447,7,15.416,7.005
		c-0.032,0.004-0.075,0.008-0.129,0.01c-0.063,0.002-0.111,0.001-0.146-0.002c-0.035-0.004-0.063-0.011-0.081-0.022
		c-0.019-0.011-0.03-0.026-0.035-0.046S15.018,6.9,15.018,6.869V6.392h-0.186c0.004,0.051,0.001,0.099-0.008,0.145
		c-0.008,0.062-0.021,0.117-0.041,0.166c-0.018,0.05-0.044,0.095-0.078,0.136c-0.033,0.042-0.076,0.081-0.129,0.117
		c-0.053,0.037-0.117,0.074-0.193,0.112c-0.01-0.021-0.02-0.038-0.029-0.049c-0.01-0.012-0.026-0.023-0.049-0.035
		c0.07-0.025,0.131-0.053,0.182-0.081c0.051-0.029,0.094-0.062,0.128-0.098s0.062-0.077,0.08-0.122s0.032-0.096,0.038-0.154
		c0.002-0.027,0.004-0.052,0.006-0.07c0-0.019,0.001-0.04,0.001-0.064c-0.093,0.001-0.175,0.003-0.243,0.005
		c-0.07,0.002-0.135,0.005-0.195,0.009V6.301c0.037,0.003,0.076,0.005,0.118,0.007c0.042,0.001,0.086,0.003,0.134,0.004
		c0.047,0.002,0.1,0.003,0.155,0.003c0.056,0.001,0.118,0.001,0.187,0.001V5.855z M14.68,6.243
		c-0.035-0.057-0.072-0.112-0.111-0.167s-0.083-0.109-0.132-0.166l0.075-0.055c0.057,0.067,0.107,0.132,0.153,0.191
		c0.046,0.061,0.079,0.109,0.103,0.147L14.68,6.243z M15.439,5.893c0.018,0.007,0.025,0.015,0.025,0.023
		c0,0.008-0.007,0.014-0.021,0.016c-0.008,0.001-0.021,0.01-0.037,0.027c-0.016,0.017-0.039,0.047-0.068,0.09
		c-0.014,0.02-0.027,0.038-0.039,0.056c-0.012,0.017-0.023,0.033-0.036,0.048c-0.012,0.016-0.024,0.031-0.036,0.048
		c-0.012,0.016-0.025,0.033-0.039,0.051c-0.012-0.01-0.022-0.018-0.033-0.024c-0.01-0.006-0.025-0.013-0.046-0.022
		c0.026-0.027,0.052-0.056,0.075-0.084c0.023-0.029,0.048-0.064,0.074-0.107c0.017-0.025,0.03-0.047,0.041-0.064
		c0.012-0.019,0.02-0.034,0.027-0.048c0.007-0.013,0.012-0.024,0.016-0.035c0.004-0.01,0.008-0.02,0.01-0.028
		c0.017,0.014,0.032,0.025,0.045,0.034C15.41,5.879,15.425,5.887,15.439,5.893z"/>
	<path fill="#FFFFFF" d="M16.356,5.862c-0.052,0-0.103,0-0.152,0.001s-0.099,0.001-0.144,0.002c-0.045,0-0.086,0.001-0.124,0.003
		c-0.038,0.001-0.071,0.002-0.099,0.003V5.789c0.029,0.002,0.061,0.004,0.095,0.005s0.071,0.001,0.116,0.002
		c0.043,0,0.094,0.001,0.151,0.001c0.058,0.001,0.126,0.001,0.204,0.001c0.122,0,0.232-0.001,0.33-0.002
		c0.098-0.002,0.177-0.004,0.236-0.007v0.082c-0.057-0.003-0.127-0.005-0.211-0.006c-0.084-0.002-0.189-0.003-0.314-0.003v0.089
		c0.08,0,0.15,0,0.211-0.001c0.061,0,0.113-0.001,0.158-0.001c0.045-0.001,0.083-0.002,0.115-0.003
		c0.033-0.001,0.063-0.002,0.088-0.003v0.279h-0.087V6.014h-0.485v0.162c0,0.032,0,0.06,0,0.082
		c0.001,0.022,0.002,0.048,0.004,0.076h-0.099c0.002-0.029,0.003-0.056,0.005-0.078c0-0.022,0.001-0.048,0.001-0.078V6.014h-0.501
		v0.218H15.77V5.943c0.026,0.001,0.056,0.002,0.089,0.003s0.072,0.002,0.118,0.003c0.047,0,0.1,0.001,0.162,0.001
		c0.063,0.001,0.135,0.001,0.218,0.001V5.862z M16.438,6.803c0,0.033,0.002,0.06,0.005,0.08c0.004,0.02,0.013,0.035,0.027,0.046
		c0.015,0.012,0.036,0.019,0.064,0.022s0.068,0.007,0.119,0.008c0.036,0.001,0.069,0.001,0.101-0.001
		c0.032-0.001,0.061-0.004,0.086-0.007c0.029-0.004,0.054-0.008,0.071-0.013c0.019-0.004,0.033-0.013,0.046-0.026
		c0.012-0.013,0.021-0.031,0.03-0.055s0.019-0.056,0.029-0.098c0.008,0.023,0.019,0.04,0.032,0.049
		c0.015,0.01,0.037,0.015,0.066,0.017c-0.018,0.04-0.034,0.073-0.052,0.1c-0.018,0.025-0.036,0.047-0.058,0.063
		c-0.021,0.017-0.045,0.028-0.07,0.035c-0.025,0.008-0.055,0.013-0.089,0.015c-0.021,0.002-0.048,0.003-0.085,0.002
		c-0.036,0-0.078-0.001-0.125-0.001c-0.063,0-0.113-0.002-0.151-0.007s-0.067-0.016-0.087-0.032s-0.033-0.04-0.039-0.071
		s-0.009-0.072-0.009-0.125c-0.071,0-0.13,0-0.177,0s-0.086,0.001-0.119,0.002s-0.062,0.002-0.086,0.003S15.92,6.81,15.895,6.811
		c0.003-0.009,0.005-0.021,0.006-0.034c0.002-0.015,0.003-0.033,0.003-0.058V6.463c0-0.018-0.001-0.034-0.003-0.052
		c-0.001-0.017-0.003-0.029-0.006-0.037c0.029,0.002,0.055,0.004,0.076,0.005s0.05,0.001,0.082,0.002
		c0.033,0,0.076,0.001,0.129,0.001c0.054,0,0.125,0,0.215,0c0.082,0,0.148,0,0.201,0c0.051,0,0.094-0.001,0.129-0.001
		c0.035-0.001,0.065-0.001,0.09-0.002c0.025-0.001,0.053-0.003,0.082-0.005c-0.002,0.01-0.004,0.023-0.006,0.039
		c-0.003,0.016-0.004,0.032-0.004,0.05v0.253c0,0.018,0.001,0.035,0.002,0.054c0.002,0.019,0.004,0.032,0.008,0.041
		c-0.026-0.001-0.052-0.002-0.076-0.003c-0.023-0.001-0.052-0.002-0.085-0.003c-0.032-0.001-0.073-0.002-0.12-0.002
		C16.569,6.803,16.51,6.803,16.438,6.803z M15.943,6.14V6.089c0.016,0.001,0.038,0.002,0.068,0.002
		c0.029,0.001,0.06,0.001,0.09,0.001c0.029,0,0.062,0,0.094-0.001c0.033,0,0.058-0.001,0.072-0.002V6.14
		c-0.015-0.001-0.039-0.001-0.072-0.002c-0.032,0-0.064-0.001-0.094-0.001c-0.03,0-0.061,0.001-0.09,0.001
		C15.981,6.139,15.959,6.139,15.943,6.14z M15.945,6.268V6.217c0.016,0.001,0.037,0.002,0.068,0.002
		c0.03,0.001,0.061,0.001,0.091,0.001s0.062,0,0.095-0.001c0.033,0,0.059-0.001,0.073-0.002v0.051
		c-0.015-0.001-0.04-0.002-0.073-0.002c-0.033-0.001-0.064-0.001-0.095-0.001s-0.061,0-0.091,0.001
		C15.982,6.266,15.961,6.267,15.945,6.268z M16.351,6.443h-0.362v0.115h0.362V6.443z M16.351,6.617h-0.362v0.121h0.362V6.617z
		 M16.438,6.559h0.367V6.443h-0.367V6.559z M16.438,6.738h0.367V6.617h-0.367V6.738z M16.531,6.139V6.086
		c0.016,0.001,0.039,0.002,0.068,0.002c0.031,0.001,0.061,0.001,0.092,0.001c0.029,0,0.061,0,0.094-0.001
		c0.031,0,0.056-0.001,0.07-0.002v0.053c-0.015-0.001-0.039-0.002-0.07-0.002c-0.033-0.001-0.064-0.001-0.094-0.001
		c-0.031,0-0.061,0-0.092,0.001C16.57,6.137,16.547,6.138,16.531,6.139z M16.531,6.271V6.218C16.547,6.219,16.57,6.22,16.6,6.221
		c0.031,0,0.061,0,0.092,0c0.029,0,0.061,0,0.094,0c0.031-0.001,0.056-0.002,0.07-0.003v0.053c-0.015-0.001-0.039-0.002-0.07-0.002
		c-0.033-0.001-0.064-0.001-0.094-0.001c-0.031,0-0.061,0-0.092,0.001C16.57,6.269,16.547,6.27,16.531,6.271z"/>
	<path fill="#FFFFFF" d="M17.988,6.813c0.002,0.016,0.006,0.028,0.011,0.038c0.005,0.009,0.013,0.021,0.024,0.035l-0.246,0.132
		c-0.014,0.007-0.03,0.018-0.051,0.031c-0.021,0.015-0.041,0.026-0.058,0.038c-0.007-0.017-0.015-0.031-0.024-0.046
		s-0.021-0.029-0.037-0.043c0.031-0.008,0.061-0.019,0.088-0.031V6.57H17.5c-0.008,0.097-0.021,0.184-0.041,0.261
		c-0.02,0.078-0.048,0.154-0.086,0.229c-0.015-0.01-0.029-0.018-0.045-0.024c-0.015-0.006-0.032-0.011-0.053-0.017
		c0.022-0.029,0.042-0.062,0.059-0.095c0.018-0.033,0.031-0.074,0.044-0.121c0.012-0.048,0.021-0.105,0.029-0.172
		c0.007-0.067,0.013-0.149,0.017-0.246c0.004-0.066,0.004-0.149,0.002-0.249c-0.004-0.101-0.008-0.215-0.017-0.344
		c0.013,0.002,0.029,0.004,0.049,0.005c0.02,0.002,0.049,0.003,0.087,0.004c0.039,0.001,0.09,0.002,0.152,0.003
		c0.063,0,0.146,0,0.248,0c0.095,0,0.174,0,0.236,0c0.063-0.001,0.113-0.002,0.153-0.003s0.071-0.002,0.093-0.004
		c0.021-0.001,0.039-0.003,0.053-0.005c-0.003,0.023-0.006,0.048-0.007,0.075c-0.001,0.026-0.003,0.053-0.003,0.078
		c0,0.028,0.002,0.06,0.004,0.091c0.002,0.032,0.004,0.058,0.006,0.077c-0.02-0.002-0.053-0.004-0.097-0.006
		c-0.045-0.002-0.097-0.003-0.157-0.003V6.26c0.04,0,0.084-0.001,0.13-0.002c0.047-0.002,0.089-0.003,0.128-0.005V6.34
		c-0.02-0.001-0.041-0.002-0.063-0.003s-0.046-0.002-0.069-0.003s-0.045-0.002-0.066-0.003c-0.021,0-0.041-0.001-0.059-0.001v0.173
		c0.074,0,0.143-0.001,0.204-0.004c0.062-0.002,0.11-0.006,0.146-0.01v0.095c-0.011-0.002-0.025-0.004-0.045-0.005
		c-0.02-0.002-0.041-0.003-0.064-0.005c-0.023-0.001-0.049-0.002-0.076-0.003S18.338,6.57,18.313,6.57h-0.238
		c0.033,0.074,0.077,0.14,0.131,0.195c0.031-0.024,0.063-0.053,0.092-0.085c0.03-0.032,0.055-0.063,0.07-0.089
		c0.029,0.027,0.057,0.048,0.082,0.062c0.014,0.007,0.02,0.014,0.018,0.021c-0.004,0.008-0.012,0.011-0.025,0.011
		c-0.006,0-0.014,0.002-0.021,0.005c-0.009,0.003-0.02,0.009-0.034,0.019c-0.014,0.009-0.032,0.021-0.054,0.037
		s-0.049,0.037-0.081,0.063c0.093,0.078,0.212,0.132,0.358,0.161c-0.02,0.017-0.033,0.032-0.045,0.046
		c-0.01,0.015-0.02,0.031-0.027,0.052c-0.068-0.024-0.129-0.052-0.183-0.082S18.252,6.92,18.207,6.88
		c-0.043-0.039-0.084-0.084-0.119-0.135S18.02,6.637,17.99,6.57h-0.207v0.354L17.988,6.813z M17.789,6.33
		c-0.035,0-0.072,0.001-0.111,0.003c-0.039,0.001-0.076,0.004-0.111,0.007V6.253c0.035,0.002,0.072,0.003,0.112,0.005
		c0.04,0.001,0.076,0.002,0.11,0.002V6.104h-0.276c-0.001,0.078-0.002,0.151-0.003,0.218s-0.002,0.126-0.004,0.18h0.283V6.33z
		 M18.379,5.876h-0.866v0.156h0.866V5.876z M18.139,6.262V6.104h-0.262v0.157H18.139z M17.877,6.329v0.174h0.262V6.329H17.877z"/>
</g>
</svg>
