<?xml version="1.0" encoding="utf-8"?>
<!-- Generator: Adobe Illustrator 16.0.3, SVG Export Plug-In . SVG Version: 6.00 Build 0)  -->
<!DOCTYPE svg PUBLIC "-//W3C//DTD SVG 1.1//EN" "http://www.w3.org/Graphics/SVG/1.1/DTD/svg11.dtd">
<svg version="1.1" id="圖層_1" xmlns="http://www.w3.org/2000/svg" xmlns:xlink="http://www.w3.org/1999/xlink" x="0px" y="0px"
	 width="24px" height="13.667px" viewBox="0 0 24 13.667" enable-background="new 0 0 24 13.667" xml:space="preserve">
<polygon fill="#379386" points="24,9.457 0,13.228 0,0 24,0 "/>
<g enable-background="new    ">
	<path fill="#FFFFFF" d="M5.107,3.775h0.111l0.219,0.803l0.309-0.803h0.021l0.306,0.803l0.223-0.803h0.11L6.098,4.879H6.077
		L5.757,4.038L5.432,4.879h-0.02L5.107,3.775z"/>
	<path fill="#FFFFFF" d="M6.543,3.834c0-0.023,0.008-0.043,0.025-0.061c0.017-0.017,0.037-0.025,0.06-0.025s0.043,0.009,0.06,0.025
		C6.704,3.79,6.712,3.81,6.712,3.833S6.704,3.877,6.688,3.894c-0.017,0.016-0.037,0.024-0.06,0.024s-0.043-0.009-0.06-0.025
		C6.551,3.875,6.543,3.855,6.543,3.834z M6.576,4.056H6.68v0.797H6.576V4.056z"/>
	<path fill="#FFFFFF" d="M6.891,4.056h0.104v0.143C7.076,4.09,7.176,4.035,7.293,4.035c0.06,0,0.114,0.016,0.162,0.049
		c0.048,0.032,0.082,0.074,0.102,0.127s0.03,0.13,0.03,0.232v0.409H7.485v-0.38c0-0.093-0.004-0.156-0.013-0.188
		C7.463,4.251,7.451,4.223,7.433,4.2c-0.018-0.023-0.04-0.041-0.067-0.053c-0.027-0.012-0.06-0.019-0.098-0.019
		s-0.076,0.01-0.113,0.029C7.118,4.177,7.086,4.203,7.061,4.237C7.034,4.271,7.017,4.307,7.008,4.343
		C6.999,4.378,6.994,4.451,6.994,4.56v0.293H6.891V4.056z"/>
	<path fill="#FFFFFF" d="M8.601,3.748v1.104H8.5V4.716C8.409,4.825,8.305,4.879,8.188,4.879c-0.117,0-0.216-0.041-0.296-0.124
		c-0.08-0.083-0.12-0.183-0.12-0.299c0-0.115,0.041-0.215,0.122-0.298c0.081-0.082,0.178-0.123,0.291-0.123
		c0.13,0,0.235,0.056,0.316,0.166V3.748H8.601z M8.506,4.459c0-0.091-0.03-0.168-0.09-0.23c-0.06-0.063-0.135-0.095-0.225-0.095
		S8.026,4.166,7.966,4.23S7.875,4.371,7.875,4.459c0,0.087,0.031,0.163,0.093,0.229c0.062,0.064,0.135,0.098,0.22,0.098
		S8.346,4.754,8.41,4.692C8.475,4.631,8.506,4.554,8.506,4.459z"/>
	<path fill="#FFFFFF" d="M9.227,3.775h0.618v0.106h-0.51v0.336H9.84v0.105H9.335v0.423H9.84v0.106H9.227V3.775z"/>
	<path fill="#FFFFFF" d="M10.012,4.056h0.104v0.143c0.082-0.108,0.182-0.163,0.299-0.163c0.06,0,0.114,0.016,0.162,0.049
		c0.048,0.032,0.082,0.074,0.102,0.127s0.03,0.13,0.03,0.232v0.409h-0.102v-0.38c0-0.093-0.004-0.156-0.013-0.188
		c-0.009-0.033-0.021-0.062-0.039-0.084c-0.018-0.023-0.04-0.041-0.067-0.053c-0.027-0.012-0.06-0.019-0.098-0.019
		s-0.076,0.01-0.113,0.029c-0.037,0.019-0.068,0.045-0.094,0.079c-0.026,0.034-0.043,0.069-0.053,0.105
		c-0.009,0.035-0.014,0.108-0.014,0.217v0.293h-0.104V4.056z"/>
	<path fill="#FFFFFF" d="M11.598,4.595l0.087,0.045c-0.086,0.16-0.213,0.239-0.381,0.239c-0.12,0-0.219-0.041-0.297-0.123
		c-0.078-0.083-0.117-0.182-0.117-0.298s0.039-0.216,0.118-0.299s0.175-0.124,0.291-0.124c0.115,0,0.212,0.038,0.291,0.115
		s0.119,0.182,0.122,0.315h-0.717c0.003,0.096,0.033,0.173,0.091,0.231c0.057,0.059,0.127,0.088,0.209,0.088
		C11.43,4.785,11.531,4.722,11.598,4.595z M11.598,4.377c-0.014-0.076-0.049-0.136-0.105-0.179
		c-0.056-0.043-0.121-0.064-0.194-0.064c-0.15,0-0.248,0.081-0.294,0.243H11.598z"/>
	<path fill="#FFFFFF" d="M11.864,4.056h0.105v0.115c0.028-0.047,0.055-0.081,0.082-0.103c0.026-0.022,0.056-0.033,0.088-0.033
		c0.033,0,0.065,0.009,0.099,0.026l-0.054,0.087c-0.015-0.009-0.031-0.013-0.046-0.013c-0.031,0-0.061,0.016-0.088,0.048
		s-0.048,0.073-0.061,0.124c-0.013,0.05-0.02,0.142-0.02,0.274v0.271h-0.105V4.056z"/>
	<path fill="#FFFFFF" d="M13.052,4.056h0.104v0.615c0,0.109-0.01,0.189-0.028,0.24c-0.02,0.051-0.047,0.093-0.082,0.127
		c-0.037,0.034-0.08,0.061-0.131,0.078c-0.051,0.019-0.107,0.027-0.168,0.027c-0.209,0-0.345-0.083-0.411-0.249h0.111
		c0.058,0.104,0.156,0.156,0.295,0.156c0.067,0,0.126-0.014,0.175-0.039c0.049-0.026,0.084-0.06,0.105-0.1
		c0.02-0.041,0.03-0.104,0.03-0.19V4.688c-0.041,0.051-0.089,0.089-0.146,0.114c-0.057,0.024-0.115,0.037-0.178,0.037
		c-0.115,0-0.212-0.039-0.289-0.118c-0.077-0.079-0.116-0.172-0.116-0.279c0-0.111,0.041-0.206,0.123-0.286s0.182-0.12,0.298-0.12
		s0.219,0.053,0.307,0.159V4.056z M13.057,4.441c0-0.087-0.029-0.16-0.089-0.219c-0.06-0.06-0.132-0.089-0.22-0.089
		c-0.092,0-0.168,0.032-0.229,0.096c-0.062,0.063-0.092,0.136-0.092,0.218s0.029,0.152,0.088,0.209
		c0.06,0.058,0.135,0.087,0.227,0.087c0.093,0,0.168-0.028,0.227-0.084C13.027,4.603,13.057,4.53,13.057,4.441z"/>
	<path fill="#FFFFFF" d="M13.277,4.056h0.109l0.273,0.613l0.266-0.613h0.109l-0.475,1.088h-0.108l0.153-0.352L13.277,4.056z"/>
	<path fill="#FFFFFF" d="M14.453,3.881V3.775h0.591v0.105h-0.24v0.972h-0.109V3.881H14.453z"/>
	<path fill="#FFFFFF" d="M15.975,4.056v0.797h-0.1V4.716c-0.092,0.109-0.195,0.163-0.313,0.163s-0.216-0.041-0.297-0.125
		c-0.08-0.083-0.12-0.183-0.12-0.298c0-0.116,0.04-0.215,0.122-0.298c0.08-0.082,0.178-0.123,0.291-0.123
		c0.129,0,0.234,0.056,0.316,0.166V4.056H15.975z M15.881,4.458c0-0.091-0.031-0.168-0.092-0.23s-0.136-0.094-0.225-0.094
		c-0.088,0-0.163,0.032-0.225,0.097c-0.061,0.064-0.091,0.141-0.091,0.229c0,0.089,0.03,0.165,0.093,0.229s0.137,0.097,0.223,0.097
		s0.161-0.031,0.223-0.094C15.85,4.63,15.881,4.552,15.881,4.458z"/>
	<path fill="#FFFFFF" d="M16.158,3.834c0-0.023,0.008-0.043,0.024-0.061c0.017-0.017,0.036-0.025,0.06-0.025
		s0.044,0.009,0.061,0.025c0.016,0.017,0.024,0.036,0.024,0.06s-0.009,0.044-0.024,0.061c-0.017,0.016-0.037,0.024-0.061,0.024
		s-0.043-0.009-0.06-0.025C16.166,3.875,16.158,3.855,16.158,3.834z M16.191,4.056h0.104v0.797h-0.104V4.056z"/>
	<path fill="#FFFFFF" d="M16.398,4.056h0.105l0.244,0.604l0.256-0.604h0.018l0.256,0.604l0.247-0.604h0.108l-0.347,0.823h-0.02
		l-0.253-0.597l-0.256,0.597h-0.02L16.398,4.056z"/>
	<path fill="#FFFFFF" d="M18.547,4.056v0.797h-0.102V4.716c-0.091,0.109-0.195,0.163-0.312,0.163c-0.117,0-0.216-0.041-0.296-0.125
		c-0.081-0.083-0.121-0.183-0.121-0.298c0-0.116,0.041-0.215,0.121-0.298c0.081-0.082,0.178-0.123,0.291-0.123
		c0.131,0,0.236,0.056,0.316,0.166V4.056H18.547z M18.451,4.458c0-0.091-0.029-0.168-0.091-0.23s-0.136-0.094-0.225-0.094
		s-0.163,0.032-0.224,0.097c-0.062,0.064-0.092,0.141-0.092,0.229c0,0.089,0.031,0.165,0.093,0.229s0.136,0.097,0.223,0.097
		s0.161-0.031,0.224-0.094C18.421,4.63,18.451,4.552,18.451,4.458z"/>
	<path fill="#FFFFFF" d="M18.777,4.056h0.104v0.143c0.082-0.108,0.182-0.163,0.299-0.163c0.06,0,0.113,0.016,0.162,0.049
		c0.047,0.032,0.081,0.074,0.102,0.127c0.02,0.053,0.029,0.13,0.029,0.232v0.409h-0.102v-0.38c0-0.093-0.004-0.156-0.013-0.188
		C19.35,4.251,19.337,4.223,19.319,4.2c-0.018-0.023-0.04-0.041-0.067-0.053c-0.026-0.012-0.059-0.019-0.098-0.019
		s-0.076,0.01-0.113,0.029c-0.037,0.019-0.068,0.045-0.094,0.079c-0.027,0.034-0.044,0.069-0.053,0.105
		c-0.01,0.035-0.014,0.108-0.014,0.217v0.293h-0.104V4.056z"/>
</g>
<g enable-background="new    ">
	<path fill="#FFFFFF" d="M6.93,6.353C6.888,6.306,6.847,6.264,6.806,6.228S6.718,6.152,6.665,6.113l0.071-0.062
		C6.81,6.114,6.882,6.179,6.952,6.243c0.07,0.065,0.141,0.138,0.212,0.218L7.076,6.526C7.058,6.504,7.042,6.484,7.031,6.47
		C7.019,6.455,7.006,6.44,6.993,6.427C6.861,6.432,6.747,6.436,6.65,6.439S6.47,6.447,6.4,6.45S6.271,6.456,6.223,6.459
		c-0.047,0.003-0.087,0.006-0.12,0.01c-0.033,0.003-0.06,0.006-0.083,0.01C5.998,6.481,5.977,6.485,5.957,6.491
		c-0.005-0.023-0.011-0.043-0.017-0.06C5.933,6.415,5.923,6.396,5.91,6.372c0.03,0.003,0.069,0.005,0.117,0.005
		c0.048-0.048,0.095-0.098,0.142-0.147c0.046-0.051,0.089-0.1,0.129-0.146s0.074-0.091,0.104-0.13s0.051-0.072,0.065-0.099
		C6.489,5.87,6.507,5.881,6.523,5.89c0.016,0.008,0.034,0.016,0.055,0.023c0.02,0.007,0.03,0.015,0.029,0.023
		S6.595,5.95,6.573,5.952C6.565,5.953,6.554,5.959,6.54,5.97C6.525,5.98,6.503,6,6.476,6.029C6.417,6.089,6.36,6.146,6.307,6.202
		C6.253,6.258,6.198,6.315,6.141,6.375L6.93,6.353z M6.158,7.241H6.056C6.058,7.213,6.06,7.186,6.061,7.16
		c0.001-0.026,0.002-0.054,0.002-0.083V6.73c0-0.009,0-0.02,0-0.031S6.062,6.676,6.061,6.663c0-0.012-0.001-0.022-0.002-0.033
		C6.058,6.62,6.057,6.612,6.056,6.606C6.07,6.607,6.092,6.608,6.124,6.61c0.031,0.001,0.068,0.003,0.111,0.004
		s0.088,0.001,0.138,0.002c0.049,0,0.099,0.001,0.147,0.001c0.137,0,0.245-0.001,0.323-0.003S6.978,6.609,7.01,6.606
		c-0.002,0.012-0.004,0.03-0.005,0.056C7.003,6.687,7.002,6.714,7.002,6.743V7.08c0,0.028,0,0.054,0,0.077
		c0,0.022,0,0.047,0.001,0.071H6.901V7.125H6.158V7.241z M6.901,6.696H6.158v0.351h0.744V6.696z"/>
	<path fill="#FFFFFF" d="M7.581,6.486C7.566,6.469,7.55,6.45,7.532,6.432S7.495,6.396,7.476,6.378
		c-0.02-0.017-0.039-0.032-0.057-0.046C7.401,6.317,7.385,6.307,7.37,6.297l0.051-0.06c0.018,0.012,0.037,0.025,0.057,0.041
		s0.04,0.032,0.059,0.049c0.02,0.018,0.039,0.034,0.057,0.051S7.627,6.41,7.641,6.425L7.581,6.486z M7.656,6.614
		C7.647,6.643,7.637,6.68,7.625,6.726C7.613,6.771,7.6,6.821,7.585,6.875C7.572,6.929,7.558,6.984,7.543,7.041
		C7.53,7.099,7.517,7.152,7.504,7.203C7.483,7.192,7.466,7.185,7.451,7.181S7.417,7.173,7.396,7.169
		C7.409,7.146,7.423,7.113,7.439,7.07c0.017-0.042,0.033-0.09,0.049-0.144s0.033-0.111,0.049-0.173s0.029-0.122,0.041-0.182
		c0.013,0.014,0.025,0.023,0.036,0.028C7.625,6.605,7.639,6.609,7.656,6.614z M7.605,6.155C7.551,6.093,7.487,6.037,7.413,5.988
		l0.051-0.064C7.497,5.95,7.532,5.979,7.569,6.011c0.037,0.032,0.07,0.063,0.099,0.09L7.605,6.155z M7.703,6.128
		C7.721,6.101,7.74,6.069,7.76,6.032c0.02-0.036,0.042-0.081,0.066-0.136c0.021,0.02,0.04,0.03,0.056,0.033
		C7.894,5.933,7.9,5.938,7.9,5.943S7.895,5.954,7.884,5.957c-0.007,0.002-0.014,0.005-0.02,0.011
		C7.858,5.973,7.854,5.978,7.85,5.983c-0.02,0.033-0.036,0.06-0.049,0.079C7.789,6.082,7.774,6.104,7.76,6.128l0.094-0.002
		c0.014-0.022,0.024-0.041,0.032-0.055c0.007-0.015,0.013-0.03,0.018-0.047c0.011,0.01,0.021,0.018,0.03,0.023
		C7.942,6.053,7.952,6.059,7.96,6.063V6.005C7.976,6.007,7.989,6.009,8.002,6.01c0.012,0.002,0.026,0.003,0.041,0.004
		c0.014,0.001,0.031,0.002,0.049,0.002s0.042,0,0.068,0c0.028,0,0.052,0,0.072,0S8.27,6.015,8.285,6.014
		c0.016-0.001,0.03-0.002,0.042-0.004c0.013-0.001,0.026-0.003,0.04-0.005v0.076C8.353,6.079,8.339,6.077,8.327,6.076
		C8.313,6.074,8.299,6.073,8.284,6.072C8.269,6.071,8.25,6.07,8.23,6.07C8.21,6.069,8.187,6.069,8.159,6.069
		c-0.023,0-0.043,0-0.06,0.001c-0.017,0-0.032,0.001-0.046,0.001C8.04,6.072,8.027,6.073,8.016,6.074
		C8.005,6.076,7.994,6.077,7.981,6.078c0.002,0.005-0.004,0.01-0.02,0.014C7.955,6.094,7.948,6.099,7.94,6.106
		C7.933,6.115,7.922,6.127,7.91,6.145C7.883,6.182,7.857,6.216,7.833,6.246c-0.025,0.031-0.046,0.058-0.064,0.08
		c0.027-0.002,0.053-0.004,0.078-0.005s0.045-0.002,0.06-0.003C7.901,6.308,7.896,6.296,7.889,6.285
		C7.883,6.274,7.875,6.262,7.868,6.248L7.92,6.22c0.015,0.024,0.029,0.051,0.043,0.077s0.026,0.055,0.038,0.084L7.938,6.404
		c-0.003-0.014-0.006-0.025-0.01-0.036L7.791,6.385c-0.029,0.004-0.052,0.007-0.07,0.01S7.688,6.401,7.676,6.407
		C7.675,6.392,7.671,6.378,7.667,6.364S7.655,6.34,7.646,6.332c0.007,0,0.016,0,0.025-0.001c0.01,0,0.021-0.001,0.032-0.002
		c0.015-0.018,0.032-0.038,0.05-0.062c0.019-0.024,0.041-0.056,0.068-0.093L7.787,6.176C7.768,6.177,7.749,6.179,7.731,6.182
		S7.699,6.188,7.688,6.192C7.686,6.181,7.682,6.17,7.678,6.161c-0.004-0.01-0.011-0.021-0.02-0.033H7.703z M7.764,6.455
		c-0.001,0.046-0.005,0.089-0.011,0.13c-0.006,0.04-0.015,0.074-0.026,0.101L7.658,6.669c0.015-0.023,0.027-0.054,0.035-0.091
		c0.008-0.036,0.013-0.081,0.013-0.134L7.764,6.455z M8.514,6.889C8.502,6.887,8.487,6.885,8.469,6.883
		C8.451,6.882,8.421,6.88,8.38,6.879s-0.1-0.001-0.175-0.002c-0.075,0-0.175-0.001-0.301-0.001L7.893,6.957c0.102,0,0.19,0,0.263,0
		c0.074,0,0.136,0,0.188,0c0.052-0.001,0.095-0.001,0.128-0.002c0.034-0.001,0.061-0.001,0.082-0.002s0.038-0.002,0.05-0.003
		C8.617,6.949,8.629,6.947,8.64,6.945c-0.011,0.021-0.02,0.04-0.025,0.057C8.61,7.02,8.604,7.042,8.597,7.069
		C8.588,7.104,8.579,7.134,8.568,7.156c-0.011,0.022-0.029,0.04-0.054,0.053c-0.025,0.012-0.06,0.021-0.104,0.025
		C8.367,7.24,8.308,7.242,8.233,7.242c0.002-0.02,0-0.036-0.004-0.049s-0.017-0.03-0.034-0.053C8.253,7.151,8.302,7.158,8.34,7.16
		c0.038,0.002,0.068,0,0.092-0.006C8.456,7.149,8.473,7.14,8.485,7.127s0.02-0.029,0.026-0.05l0.017-0.06c-0.106,0-0.196,0-0.271,0
		s-0.137,0-0.188,0.001c-0.05,0-0.091,0.001-0.122,0.001C7.916,7.021,7.892,7.021,7.874,7.021c-0.018,0-0.031,0.001-0.041,0.003
		C7.824,7.025,7.815,7.026,7.808,7.027c0.006-0.033,0.011-0.068,0.014-0.104s0.004-0.076,0.002-0.12
		c0.008,0.002,0.024,0.004,0.049,0.005C7.898,6.81,7.929,6.812,7.964,6.813C8,6.814,8.039,6.815,8.082,6.815
		c0.042,0.001,0.085,0.001,0.127,0.001s0.083,0,0.122-0.001c0.039,0,0.073-0.001,0.102-0.002L8.44,6.737c-0.086,0-0.161,0-0.224,0
		s-0.118,0-0.164,0C8.007,6.738,7.97,6.738,7.94,6.738c-0.03,0-0.054,0-0.074,0.001c-0.02,0-0.035,0.001-0.046,0.002
		C7.809,6.742,7.799,6.743,7.79,6.744V6.666C7.805,6.668,7.821,6.67,7.838,6.672c0.018,0.001,0.04,0.002,0.067,0.003
		c0.028,0,0.062,0.001,0.102,0.001C8.048,6.677,8.099,6.677,8.16,6.677c0.068,0,0.123,0,0.165,0s0.076,0,0.102-0.001
		c0.026-0.001,0.046-0.003,0.062-0.004C8.503,6.67,8.518,6.668,8.532,6.666C8.524,6.699,8.519,6.735,8.516,6.774
		S8.512,6.852,8.514,6.889z M7.82,6.646c0-0.013-0.001-0.028-0.002-0.046S7.814,6.564,7.812,6.547S7.807,6.513,7.804,6.496
		S7.796,6.465,7.792,6.453l0.056-0.014C7.852,6.452,7.856,6.467,7.86,6.483C7.864,6.5,7.868,6.518,7.872,6.535
		c0.003,0.018,0.006,0.035,0.01,0.052c0.003,0.017,0.005,0.032,0.006,0.045L7.82,6.646z M7.947,6.624
		C7.941,6.587,7.934,6.553,7.925,6.521c-0.009-0.031-0.021-0.062-0.036-0.09l0.051-0.017C7.952,6.437,7.964,6.465,7.979,6.5
		s0.025,0.068,0.033,0.101L7.947,6.624z M8.317,6.201C8.301,6.199,8.283,6.197,8.264,6.196C8.245,6.194,8.218,6.193,8.183,6.193
		c-0.041,0-0.075,0.001-0.101,0.003C8.056,6.197,8.035,6.199,8.018,6.201V6.134c0.009,0.001,0.018,0.002,0.028,0.003
		c0.009,0.001,0.021,0.002,0.033,0.002C8.091,6.14,8.105,6.14,8.122,6.141c0.016,0,0.037,0.001,0.061,0.001
		c0.037,0,0.064-0.001,0.083-0.002s0.036-0.003,0.052-0.006V6.201z M8.317,6.332C8.301,6.33,8.281,6.328,8.259,6.326
		C8.237,6.325,8.208,6.324,8.172,6.324c-0.037,0-0.066,0.001-0.087,0.002s-0.042,0.003-0.06,0.006V6.26
		c0.019,0.002,0.04,0.004,0.061,0.005c0.021,0.002,0.05,0.003,0.086,0.003c0.036,0,0.065-0.001,0.087-0.002S8.301,6.263,8.317,6.26
		V6.332z M8.313,6.634C8.298,6.631,8.281,6.63,8.261,6.63C8.241,6.629,8.21,6.629,8.169,6.629c-0.018,0-0.033,0-0.045,0
		c-0.013,0-0.024,0-0.035,0.001c-0.011,0-0.021,0.001-0.03,0.002c-0.01,0.001-0.02,0.002-0.031,0.003
		C8.03,6.625,8.032,6.609,8.034,6.59s0.003-0.041,0.003-0.063c0-0.041-0.003-0.085-0.009-0.133C8.05,6.396,8.071,6.398,8.09,6.399
		C8.108,6.4,8.136,6.4,8.17,6.4c0.016,0,0.03,0,0.043,0s0.024,0,0.035-0.001c0.01-0.001,0.021-0.002,0.031-0.002
		C8.289,6.396,8.3,6.396,8.313,6.394C8.31,6.438,8.309,6.482,8.309,6.526c0,0.023,0,0.043,0.001,0.059
		C8.31,6.602,8.311,6.617,8.313,6.634z M8.195,6.002C8.18,5.984,8.162,5.97,8.142,5.955c-0.02-0.014-0.043-0.027-0.069-0.042
		L8.109,5.86C8.132,5.875,8.155,5.89,8.178,5.905s0.043,0.03,0.06,0.046L8.195,6.002z M8.249,6.461H8.097v0.117h0.151V6.461z
		 M8.369,6.122c0.01-0.016,0.02-0.03,0.029-0.046c0.009-0.016,0.019-0.032,0.028-0.051c0.01-0.018,0.02-0.037,0.03-0.06
		c0.01-0.022,0.022-0.048,0.035-0.076c0.02,0.016,0.037,0.025,0.051,0.029C8.554,5.923,8.56,5.928,8.561,5.934
		S8.557,5.944,8.545,5.949C8.535,5.953,8.522,5.968,8.508,5.991C8.483,6.035,8.455,6.079,8.424,6.122L8.529,6.12
		c0.02-0.026,0.035-0.049,0.044-0.067C8.583,6.035,8.591,6.018,8.598,6c0.028,0.021,0.05,0.032,0.067,0.036
		c0.009,0.002,0.014,0.007,0.014,0.013c0,0.007-0.005,0.012-0.017,0.015C8.658,6.065,8.651,6.069,8.644,6.075
		C8.636,6.081,8.626,6.093,8.613,6.108C8.579,6.151,8.547,6.191,8.518,6.228c-0.03,0.036-0.057,0.067-0.081,0.094l0.159-0.005
		c-0.006-0.014-0.013-0.027-0.02-0.04S8.563,6.251,8.556,6.24l0.049-0.025c0.017,0.026,0.034,0.056,0.05,0.088
		s0.03,0.063,0.042,0.091l-0.06,0.023C8.635,6.409,8.633,6.401,8.629,6.394C8.626,6.386,8.624,6.377,8.621,6.369L8.453,6.383
		C8.437,6.385,8.42,6.388,8.402,6.391S8.369,6.397,8.355,6.402C8.351,6.377,8.342,6.352,8.328,6.324l0.038-0.001
		c0.009-0.01,0.017-0.019,0.024-0.027c0.008-0.009,0.016-0.02,0.026-0.031c0.009-0.011,0.02-0.024,0.031-0.039
		c0.012-0.014,0.025-0.032,0.042-0.053C8.456,6.175,8.431,6.177,8.415,6.18C8.398,6.182,8.379,6.186,8.358,6.19
		C8.356,6.18,8.353,6.168,8.348,6.156S8.337,6.133,8.331,6.122H8.369z M8.448,6.456c-0.005,0.04-0.013,0.076-0.023,0.109
		c-0.01,0.032-0.021,0.06-0.034,0.081L8.328,6.629c0.017-0.021,0.03-0.045,0.039-0.073C8.376,6.526,8.384,6.488,8.39,6.439
		L8.448,6.456z M8.503,6.627c0.002-0.026,0.001-0.056-0.001-0.088S8.494,6.479,8.486,6.455l0.051-0.013
		C8.544,6.469,8.551,6.498,8.555,6.53C8.56,6.563,8.563,6.593,8.563,6.618L8.503,6.627z M8.639,6.617
		C8.634,6.588,8.626,6.56,8.616,6.532C8.606,6.505,8.594,6.477,8.58,6.449l0.053-0.024C8.646,6.45,8.66,6.479,8.672,6.51
		s0.023,0.063,0.031,0.094L8.639,6.617z"/>
	<path fill="#FFFFFF" d="M9.075,7.234H8.98c0.004-0.042,0.007-0.083,0.008-0.122C8.989,7.072,8.99,7.029,8.99,6.984V6.147
		c0-0.03,0-0.06-0.001-0.087C8.987,6.032,8.984,6.001,8.98,5.966C8.994,5.968,9.011,5.969,9.033,5.97
		c0.022,0,0.053,0.001,0.094,0.002s0.094,0.002,0.16,0.002c0.065,0,0.148,0,0.248,0c0.101,0,0.184,0,0.25,0
		c0.066,0,0.119-0.001,0.16-0.002s0.072-0.002,0.094-0.002c0.021-0.001,0.039-0.002,0.052-0.004
		c-0.001,0.035-0.002,0.066-0.002,0.096c0,0.028,0,0.057,0,0.086v0.809c0,0.045,0,0.087,0.001,0.127s0.002,0.081,0.004,0.123h-0.092
		V7.121H9.075V7.234z M10.002,6.05H9.075v0.996h0.927V6.05z M9.543,6.764C9.541,6.78,9.541,6.794,9.542,6.807
		s0.002,0.025,0.004,0.038C9.518,6.847,9.487,6.85,9.453,6.853S9.384,6.858,9.349,6.863c-0.035,0.004-0.07,0.008-0.105,0.013
		C9.208,6.88,9.176,6.886,9.146,6.892C9.144,6.881,9.142,6.873,9.141,6.867S9.139,6.855,9.137,6.85
		C9.135,6.845,9.132,6.839,9.129,6.832c-0.003-0.007-0.006-0.016-0.01-0.027c0.04,0,0.08-0.001,0.12-0.003s0.078-0.006,0.115-0.01
		s0.072-0.008,0.104-0.013C9.49,6.773,9.518,6.769,9.543,6.764z M9.366,6.307c-0.038,0-0.079,0-0.123,0.002
		C9.2,6.311,9.161,6.313,9.126,6.316V6.229C9.161,6.232,9.2,6.235,9.244,6.236c0.044,0.002,0.084,0.003,0.123,0.003h0.199
		C9.563,6.204,9.56,6.174,9.557,6.149C9.555,6.125,9.553,6.1,9.551,6.074c0.017,0.005,0.032,0.009,0.046,0.012
		S9.626,6.09,9.642,6.089c0.012-0.001,0.019,0,0.022,0.004c0.002,0.003-0.002,0.01-0.013,0.021c-0.004,0.004-0.006,0.01-0.008,0.019
		C9.642,6.14,9.641,6.154,9.641,6.175c0,0.01,0,0.02,0,0.03s0,0.021,0.001,0.034h0.08c0.039,0,0.082-0.001,0.127-0.003
		c0.046-0.001,0.085-0.004,0.119-0.008v0.088C9.935,6.313,9.895,6.311,9.849,6.309S9.761,6.307,9.722,6.307H9.646
		c0.006,0.053,0.018,0.116,0.036,0.19c0.006,0.021,0.013,0.043,0.02,0.064c0.007,0.021,0.015,0.041,0.022,0.062
		c0.022-0.041,0.04-0.081,0.053-0.119c0.014-0.037,0.025-0.081,0.035-0.13c0.026,0.019,0.055,0.032,0.085,0.04
		c0.013,0.004,0.02,0.009,0.019,0.015c0,0.005-0.006,0.011-0.018,0.016C9.896,6.446,9.89,6.453,9.88,6.465
		c-0.009,0.012-0.019,0.03-0.03,0.058C9.836,6.558,9.822,6.59,9.808,6.619c-0.014,0.029-0.03,0.059-0.047,0.088
		c0.021,0.041,0.039,0.072,0.052,0.094c0.014,0.021,0.03,0.041,0.046,0.059C9.869,6.87,9.877,6.877,9.884,6.881
		c0.008,0.004,0.014,0.003,0.02-0.003s0.01-0.018,0.012-0.034C9.918,6.826,9.919,6.802,9.919,6.77
		C9.936,6.788,9.948,6.8,9.958,6.807c0.009,0.007,0.021,0.012,0.035,0.018c-0.009,0.044-0.02,0.077-0.031,0.102
		C9.951,6.95,9.938,6.967,9.926,6.976C9.913,6.984,9.9,6.987,9.887,6.984C9.875,6.981,9.863,6.976,9.852,6.967
		C9.825,6.943,9.8,6.918,9.777,6.891C9.754,6.863,9.732,6.829,9.712,6.789C9.698,6.814,9.684,6.836,9.672,6.854
		C9.66,6.872,9.648,6.888,9.636,6.902C9.624,6.917,9.612,6.931,9.599,6.944S9.57,6.973,9.552,6.989
		C9.535,6.975,9.521,6.965,9.512,6.96c-0.01-0.006-0.023-0.011-0.041-0.017c0.041-0.029,0.077-0.063,0.108-0.097
		c0.031-0.035,0.063-0.08,0.095-0.134C9.648,6.656,9.627,6.594,9.611,6.526c-0.017-0.066-0.03-0.14-0.038-0.22H9.366z M9.519,6.699
		C9.508,6.698,9.498,6.697,9.488,6.697c-0.01-0.001-0.021-0.001-0.034-0.002c-0.013,0-0.027-0.001-0.042-0.001
		c-0.015,0-0.034,0-0.055,0c-0.042,0-0.076,0.001-0.102,0.001c-0.026,0.001-0.049,0.002-0.07,0.004
		c0.002-0.017,0.003-0.042,0.004-0.074S9.19,6.563,9.19,6.537c0-0.025,0-0.054-0.001-0.085c-0.001-0.03-0.002-0.054-0.004-0.071
		c0.021,0.003,0.044,0.004,0.07,0.004c0.026,0.001,0.06,0.001,0.102,0.001c0.021,0,0.04,0,0.055,0c0.016,0,0.03,0,0.042-0.001
		c0.012,0,0.023-0.001,0.034-0.001c0.01-0.001,0.021-0.001,0.031-0.003C9.517,6.402,9.516,6.426,9.515,6.452
		C9.514,6.478,9.513,6.506,9.513,6.537c0,0.03,0,0.061,0.001,0.09C9.516,6.657,9.517,6.682,9.519,6.699z M9.441,6.447h-0.18V6.63
		h0.18V6.447z M9.845,6.227C9.833,6.213,9.822,6.2,9.814,6.19C9.805,6.18,9.796,6.17,9.788,6.161
		c-0.009-0.01-0.019-0.019-0.028-0.027c-0.01-0.009-0.022-0.02-0.036-0.031l0.051-0.045c0.016,0.014,0.03,0.025,0.041,0.036
		c0.011,0.01,0.021,0.02,0.03,0.028C9.854,6.131,9.862,6.14,9.869,6.148c0.008,0.01,0.016,0.02,0.025,0.03L9.845,6.227z"/>
	<path fill="#FFFFFF" d="M10.947,6.086c-0.013,0.022-0.025,0.043-0.037,0.061c-0.011,0.018-0.023,0.033-0.034,0.048
		c-0.012,0.015-0.023,0.028-0.036,0.041c-0.013,0.014-0.026,0.027-0.04,0.041c-0.011-0.009-0.021-0.017-0.03-0.021
		c-0.009-0.006-0.024-0.012-0.046-0.02c0.032-0.022,0.059-0.047,0.081-0.071c0.022-0.025,0.044-0.054,0.066-0.084
		c0.02-0.029,0.036-0.06,0.049-0.09c0.012-0.031,0.023-0.068,0.034-0.111C10.971,5.888,10.987,5.895,11,5.899
		c0.013,0.004,0.026,0.008,0.039,0.01c0.014,0.002,0.021,0.007,0.022,0.015s-0.004,0.014-0.015,0.018
		c-0.006,0.002-0.013,0.008-0.021,0.017c-0.008,0.008-0.021,0.029-0.041,0.062h0.129c0.018,0,0.036-0.001,0.055-0.003
		s0.036-0.004,0.051-0.006c-0.028,0.094-0.06,0.177-0.096,0.247s-0.082,0.135-0.136,0.194c0.014,0.002,0.027,0.003,0.041,0.004
		c0.014,0,0.029,0.001,0.046,0.002s0.038,0.001,0.062,0.001s0.052,0,0.085,0c0.055,0,0.099,0,0.13-0.001
		c0.032-0.001,0.062-0.003,0.09-0.005c-0.018-0.02-0.033-0.038-0.045-0.055c-0.012-0.017-0.023-0.033-0.034-0.052
		c-0.014-0.021-0.026-0.044-0.037-0.067c-0.01-0.023-0.02-0.048-0.029-0.076c-0.009-0.027-0.017-0.058-0.025-0.092
		c-0.008-0.034-0.017-0.074-0.025-0.12h0.25c0.017,0,0.037-0.001,0.06-0.003s0.042-0.004,0.059-0.006
		c-0.015,0.039-0.03,0.074-0.045,0.105c-0.015,0.031-0.03,0.061-0.045,0.087c-0.015,0.025-0.03,0.05-0.046,0.073
		c-0.016,0.022-0.033,0.046-0.052,0.068c0.019,0.026,0.037,0.049,0.055,0.068c0.018,0.019,0.036,0.036,0.055,0.052
		c0.02,0.015,0.042,0.03,0.067,0.045c0.025,0.014,0.055,0.029,0.09,0.045c-0.013,0.011-0.025,0.021-0.036,0.034
		c-0.011,0.013-0.022,0.028-0.035,0.049c-0.034-0.026-0.063-0.05-0.088-0.07c-0.025-0.021-0.046-0.041-0.064-0.059v0.056
		c-0.013-0.001-0.027-0.002-0.041-0.003c-0.014-0.001-0.03-0.002-0.049-0.003c-0.019,0-0.041,0-0.066,0s-0.056,0-0.092,0
		c-0.043,0-0.078,0-0.104,0s-0.047,0-0.064,0c-0.017,0.001-0.031,0.002-0.042,0.003C11,6.534,10.989,6.535,10.976,6.536V6.465
		c-0.046,0.049-0.101,0.096-0.164,0.142c-0.011-0.012-0.022-0.021-0.033-0.029c-0.011-0.008-0.027-0.017-0.047-0.026
		c0.029,0.058,0.043,0.117,0.043,0.177c0,0.036-0.003,0.066-0.009,0.092c-0.007,0.025-0.018,0.047-0.035,0.064
		s-0.039,0.032-0.067,0.044c-0.028,0.011-0.063,0.02-0.106,0.026c-0.005-0.041-0.021-0.078-0.046-0.112
		c0.071,0.006,0.119,0,0.145-0.019s0.039-0.053,0.039-0.103c0-0.024-0.003-0.05-0.01-0.077c-0.007-0.028-0.017-0.056-0.031-0.085
		c-0.014-0.028-0.032-0.056-0.053-0.083c-0.021-0.026-0.046-0.052-0.077-0.075c0.016-0.033,0.03-0.063,0.042-0.09
		c0.011-0.027,0.022-0.054,0.033-0.08c0.01-0.026,0.021-0.055,0.03-0.086c0.01-0.031,0.022-0.067,0.036-0.109h-0.183v0.882
		c0,0.04,0,0.074,0,0.104c0,0.029,0,0.056,0.002,0.08c0.001,0.023,0.002,0.047,0.003,0.068s0.003,0.044,0.005,0.069h-0.112
		c0.003-0.027,0.005-0.053,0.007-0.076c0.002-0.024,0.003-0.049,0.004-0.074s0.002-0.053,0.002-0.08s0-0.058,0-0.092V6.151
		c0-0.015,0-0.031,0-0.048c0-0.018-0.001-0.035-0.002-0.053S10.392,6.016,10.39,6c-0.001-0.017-0.002-0.031-0.003-0.045
		c0.035,0.002,0.07,0.004,0.105,0.005c0.036,0.001,0.071,0.001,0.106,0.001c0.04,0,0.073,0,0.098-0.001s0.053-0.003,0.083-0.006
		c-0.012,0.039-0.024,0.076-0.036,0.11c-0.011,0.035-0.023,0.07-0.037,0.104c-0.013,0.034-0.027,0.069-0.041,0.104
		c-0.015,0.035-0.031,0.072-0.049,0.111c0.028,0.032,0.051,0.061,0.068,0.087c0.017,0.026,0.033,0.052,0.045,0.078
		c0.028-0.015,0.06-0.035,0.094-0.06c0.035-0.025,0.066-0.051,0.094-0.077c-0.02-0.02-0.04-0.036-0.058-0.05
		c-0.019-0.014-0.039-0.026-0.06-0.038l0.049-0.049c0.023,0.017,0.044,0.031,0.063,0.044s0.037,0.026,0.054,0.04
		C10.979,6.345,10.99,6.331,11,6.317c0.01-0.014,0.019-0.026,0.027-0.04c-0.016-0.014-0.033-0.025-0.052-0.036
		s-0.04-0.021-0.063-0.031l0.036-0.052c0.019,0.011,0.038,0.021,0.057,0.032c0.019,0.01,0.037,0.021,0.054,0.032
		c0.011-0.021,0.021-0.043,0.03-0.064c0.009-0.022,0.018-0.046,0.027-0.072H10.947z M11.026,6.898
		c-0.011,0.002-0.021,0.008-0.029,0.017c-0.009,0.008-0.022,0.023-0.04,0.047c-0.01,0.012-0.02,0.023-0.029,0.036
		c-0.009,0.012-0.021,0.024-0.034,0.036c-0.013,0.013-0.028,0.026-0.046,0.042c-0.018,0.015-0.04,0.031-0.066,0.049
		c-0.013-0.013-0.024-0.022-0.033-0.028c-0.009-0.006-0.024-0.014-0.046-0.022c0.064-0.039,0.115-0.078,0.154-0.117
		s0.075-0.083,0.106-0.133c0.012,0.011,0.024,0.019,0.035,0.024c0.011,0.006,0.02,0.009,0.027,0.011
		c0.011,0.004,0.017,0.01,0.018,0.021S11.038,6.896,11.026,6.898z M11.104,6.752c-0.051,0-0.099,0.001-0.143,0.003
		s-0.08,0.005-0.107,0.008V6.671c0.014,0.002,0.031,0.004,0.05,0.005c0.019,0.002,0.043,0.003,0.072,0.004s0.064,0.002,0.106,0.002
		c0.042,0.001,0.092,0.001,0.152,0.001c0.109,0,0.193-0.001,0.251-0.004c0.059-0.002,0.101-0.005,0.127-0.008v0.092
		c-0.026-0.003-0.062-0.006-0.107-0.008c-0.045-0.002-0.092-0.003-0.142-0.003h-0.101v0.347c0,0.023-0.003,0.043-0.008,0.059
		s-0.017,0.028-0.033,0.037c-0.016,0.009-0.04,0.016-0.069,0.019c-0.029,0.004-0.069,0.006-0.118,0.006
		c-0.001-0.011-0.002-0.02-0.003-0.026c-0.001-0.008-0.003-0.015-0.006-0.021c-0.003-0.006-0.006-0.014-0.011-0.021
		c-0.004-0.008-0.01-0.019-0.017-0.03c0.039,0.006,0.07,0.01,0.093,0.012c0.023,0.001,0.041,0,0.053-0.004
		c0.012-0.004,0.021-0.011,0.024-0.02s0.005-0.021,0.005-0.036V6.752H11.104z M11.394,6.245c0.013-0.017,0.024-0.031,0.034-0.046
		c0.01-0.015,0.019-0.029,0.027-0.044c0.008-0.015,0.016-0.029,0.022-0.045c0.006-0.016,0.013-0.033,0.02-0.053h-0.165
		c0.008,0.04,0.016,0.073,0.025,0.101C11.366,6.187,11.378,6.215,11.394,6.245z M11.561,7.112c-0.015-0.024-0.029-0.046-0.043-0.065
		s-0.029-0.038-0.044-0.057c-0.015-0.018-0.033-0.037-0.052-0.057c-0.019-0.019-0.042-0.041-0.067-0.064l0.059-0.048
		c0.027,0.024,0.05,0.046,0.07,0.064c0.02,0.018,0.037,0.035,0.053,0.052c0.016,0.018,0.031,0.034,0.046,0.052
		s0.032,0.038,0.05,0.063L11.561,7.112z"/>
	<path fill="#FFFFFF" d="M13.244,7.021c-0.013,0.041-0.023,0.073-0.033,0.097s-0.019,0.042-0.028,0.056
		c-0.009,0.014-0.019,0.023-0.028,0.028s-0.02,0.009-0.032,0.012c-0.015,0.003-0.028,0.001-0.044-0.005
		c-0.015-0.007-0.029-0.021-0.045-0.04c-0.016-0.021-0.031-0.048-0.045-0.082c-0.016-0.034-0.028-0.077-0.04-0.13
		c-0.007-0.023-0.011-0.056-0.017-0.096c-0.004-0.04-0.008-0.085-0.011-0.135s-0.005-0.104-0.007-0.162
		c-0.001-0.059-0.002-0.117-0.002-0.177c0-0.061,0.001-0.12,0.003-0.179c0.002-0.06,0.005-0.114,0.009-0.167h-0.835
		c0.003,0.058,0.005,0.115,0.005,0.174s0,0.115,0,0.17s-0.001,0.107-0.003,0.157c-0.002,0.049-0.005,0.093-0.008,0.131
		c-0.01,0.122-0.026,0.228-0.049,0.316s-0.058,0.169-0.105,0.238c-0.014-0.011-0.029-0.02-0.045-0.026
		c-0.016-0.006-0.034-0.011-0.054-0.014c0.027-0.034,0.05-0.069,0.069-0.104s0.035-0.074,0.047-0.116s0.022-0.088,0.03-0.139
		c0.007-0.051,0.013-0.107,0.017-0.172c0.008-0.128,0.012-0.248,0.012-0.36c0-0.113-0.007-0.227-0.021-0.342
		c0.034,0.003,0.092,0.006,0.173,0.008s0.194,0.003,0.34,0.003c0.048,0,0.1,0,0.154-0.001c0.053,0,0.105-0.001,0.154-0.002
		c0.05-0.001,0.096-0.002,0.137-0.003s0.074-0.003,0.098-0.005c-0.021,0.086-0.032,0.179-0.035,0.276C13,6.325,13,6.413,13,6.495
		c0.002,0.082,0.004,0.156,0.009,0.224s0.011,0.126,0.02,0.176s0.019,0.089,0.029,0.118c0.013,0.032,0.023,0.056,0.034,0.072
		c0.01,0.016,0.02,0.022,0.026,0.02c0.008-0.003,0.015-0.016,0.019-0.038c0.006-0.022,0.008-0.057,0.01-0.104
		c0.014,0.02,0.029,0.034,0.045,0.045C13.209,7.019,13.226,7.022,13.244,7.021z M12.553,6.397c0.066,0,0.12,0,0.16,0
		c0.041-0.001,0.072-0.002,0.094-0.004c-0.002,0.013-0.003,0.031-0.004,0.056c0,0.023,0,0.049,0,0.074v0.101
		c0,0.026,0,0.052,0,0.075c0.001,0.024,0.002,0.043,0.004,0.056c-0.021-0.002-0.053-0.003-0.094-0.004
		c-0.04,0-0.094-0.001-0.16-0.001v0.185c0.03-0.003,0.061-0.006,0.088-0.009s0.055-0.007,0.078-0.011
		c-0.012-0.019-0.024-0.037-0.037-0.055c-0.014-0.018-0.026-0.033-0.039-0.049l0.061-0.04c0.045,0.051,0.085,0.102,0.118,0.15
		c0.034,0.05,0.06,0.095,0.077,0.136l-0.086,0.05c-0.004-0.018-0.012-0.036-0.021-0.057c-0.009-0.021-0.021-0.043-0.032-0.066
		l-0.364,0.037c-0.063,0.008-0.12,0.015-0.169,0.022c-0.05,0.007-0.086,0.014-0.109,0.019c-0.003-0.02-0.007-0.038-0.012-0.056
		s-0.011-0.035-0.02-0.053c0.062,0.002,0.126,0.002,0.192-0.001c0.066-0.002,0.13-0.006,0.193-0.011V6.75
		c-0.065,0-0.118,0.001-0.16,0.001c-0.042,0.001-0.075,0.002-0.102,0.004c0.002-0.01,0.003-0.024,0.005-0.042
		c0.001-0.019,0.001-0.048,0.001-0.089V6.523c0-0.034,0-0.063-0.001-0.083c-0.001-0.021-0.003-0.036-0.005-0.047
		c0.026,0.002,0.06,0.003,0.102,0.004c0.042,0,0.095,0,0.16,0V6.255c-0.036,0-0.066,0.001-0.092,0.001
		c-0.025,0.001-0.046,0.001-0.065,0.002c-0.019,0-0.036,0.001-0.051,0.002c-0.015,0.001-0.031,0.002-0.047,0.003V6.175
		c0.019,0.002,0.037,0.003,0.053,0.005c0.016,0.001,0.035,0.003,0.056,0.004s0.046,0.001,0.075,0.001c0.029,0,0.065,0,0.108,0
		s0.08,0,0.111-0.001c0.032,0,0.06-0.001,0.082-0.002s0.042-0.002,0.058-0.003s0.029-0.002,0.041-0.004v0.088
		c-0.011-0.001-0.021-0.002-0.034-0.003s-0.026-0.002-0.045-0.002c-0.019-0.001-0.04-0.001-0.067-0.002
		c-0.027,0-0.061-0.001-0.102-0.001V6.397z M12.471,6.469h-0.172V6.68h0.172V6.469z M12.553,6.68h0.169V6.469h-0.169V6.68z"/>
	<path fill="#FFFFFF" d="M14.057,6.284c-0.003,0.081-0.009,0.153-0.018,0.217c-0.008,0.064-0.02,0.12-0.035,0.167
		c-0.033,0.105-0.088,0.207-0.161,0.302c-0.073,0.096-0.169,0.183-0.287,0.262c-0.007-0.01-0.014-0.019-0.021-0.025
		c-0.006-0.008-0.014-0.015-0.021-0.021c-0.007-0.006-0.016-0.012-0.025-0.016c-0.009-0.005-0.021-0.01-0.035-0.015
		c0.103-0.044,0.191-0.105,0.268-0.186s0.136-0.177,0.18-0.288c0.016-0.037,0.029-0.089,0.041-0.156s0.02-0.147,0.025-0.241
		c-0.102,0-0.188,0.001-0.263,0.003s-0.128,0.005-0.163,0.009V6.195C13.558,6.198,13.577,6.2,13.6,6.202
		c0.023,0.001,0.051,0.003,0.084,0.004s0.072,0.002,0.119,0.002c0.046,0.001,0.102,0.001,0.167,0.001
		c0.003-0.091,0.003-0.163,0.001-0.217c-0.003-0.054-0.008-0.095-0.015-0.124c0.021,0.004,0.04,0.007,0.059,0.009
		c0.019,0.001,0.043,0.002,0.071,0.003c0.015,0.001,0.022,0.006,0.023,0.013c0.002,0.007-0.004,0.015-0.017,0.022
		c-0.005,0.003-0.008,0.009-0.011,0.019s-0.006,0.025-0.008,0.047c-0.003,0.021-0.006,0.051-0.008,0.087
		c-0.002,0.037-0.005,0.084-0.007,0.142c0.083,0,0.155,0,0.217-0.001c0.062,0,0.114-0.001,0.159-0.002s0.083-0.003,0.112-0.004
		c0.029-0.002,0.054-0.004,0.071-0.007l-0.031,0.744c-0.002,0.047-0.007,0.085-0.015,0.115c-0.007,0.03-0.022,0.054-0.048,0.072
		c-0.023,0.018-0.059,0.031-0.104,0.04c-0.045,0.01-0.106,0.016-0.182,0.02c-0.002-0.02-0.009-0.04-0.019-0.062
		c-0.011-0.021-0.024-0.041-0.045-0.062c0.069,0.009,0.124,0.013,0.165,0.013c0.042,0.001,0.074-0.005,0.098-0.018
		c0.022-0.013,0.038-0.032,0.047-0.06c0.008-0.026,0.012-0.064,0.014-0.112l0.025-0.602L14.057,6.284z"/>
	<path fill="#FFFFFF" d="M15.455,6.308c-0.092,0.005-0.168,0.01-0.227,0.015c-0.06,0.004-0.109,0.009-0.148,0.013
		s-0.072,0.008-0.098,0.013c-0.026,0.005-0.051,0.01-0.075,0.016c0-0.018-0.003-0.036-0.008-0.056
		c-0.005-0.019-0.011-0.036-0.02-0.051c0.015,0.001,0.028,0.002,0.04,0.002c0.014,0.001,0.026,0.001,0.038,0.001
		c0.028-0.034,0.056-0.069,0.081-0.106s0.051-0.072,0.072-0.107c0.023-0.034,0.043-0.066,0.059-0.097
		c0.018-0.03,0.029-0.056,0.039-0.078c0.016,0.013,0.031,0.022,0.045,0.031c0.014,0.008,0.029,0.015,0.045,0.02
		c0.014,0.006,0.021,0.012,0.021,0.02c0,0.009-0.01,0.015-0.026,0.02c-0.013,0.006-0.024,0.013-0.034,0.022
		c-0.009,0.011-0.023,0.029-0.043,0.056c-0.018,0.023-0.041,0.055-0.071,0.094c-0.03,0.04-0.063,0.081-0.097,0.126l0.362-0.019
		c-0.019-0.026-0.036-0.051-0.056-0.075c-0.02-0.025-0.039-0.05-0.062-0.076l0.071-0.041c0.045,0.052,0.084,0.1,0.116,0.145
		c0.033,0.045,0.066,0.094,0.099,0.146l-0.084,0.042c-0.006-0.013-0.014-0.025-0.02-0.037C15.47,6.332,15.463,6.319,15.455,6.308z
		 M15.061,7.214h-0.1c0.006-0.054,0.009-0.102,0.012-0.143c0.002-0.041,0.004-0.079,0.004-0.114V6.581
		c0-0.035-0.001-0.063-0.003-0.086c-0.001-0.021-0.005-0.043-0.01-0.063c0.013,0.002,0.028,0.004,0.05,0.005
		c0.021,0.002,0.043,0.003,0.067,0.004s0.049,0.002,0.074,0.003s0.05,0.002,0.071,0.002s0.043-0.001,0.066-0.001
		c0.022-0.001,0.045-0.002,0.068-0.003c0.023-0.002,0.046-0.003,0.068-0.005c0.021-0.001,0.041-0.003,0.06-0.005
		c-0.005,0.021-0.009,0.041-0.01,0.062s-0.003,0.05-0.003,0.087v0.498c0,0.022-0.002,0.042-0.007,0.057s-0.015,0.027-0.03,0.037
		c-0.015,0.011-0.037,0.019-0.064,0.023c-0.029,0.006-0.066,0.01-0.113,0.013c0-0.033-0.012-0.07-0.037-0.109
		c0.033,0.007,0.061,0.012,0.082,0.014s0.039,0.001,0.051-0.004c0.013-0.004,0.021-0.013,0.025-0.023
		c0.005-0.012,0.008-0.027,0.008-0.048V6.912h-0.33V7.214z M15.391,6.651V6.517h-0.33v0.135H15.391z M15.061,6.714v0.134h0.33V6.714
		H15.061z M15.716,6.156c0.065-0.026,0.128-0.056,0.186-0.089c0.058-0.032,0.104-0.063,0.138-0.093
		c0.008,0.015,0.019,0.028,0.031,0.044c0.012,0.015,0.022,0.026,0.032,0.034c0.015,0.01,0.02,0.019,0.016,0.024
		c-0.003,0.007-0.015,0.011-0.034,0.012c-0.012,0-0.023,0.002-0.037,0.005c-0.014,0.004-0.033,0.011-0.06,0.021
		s-0.061,0.024-0.104,0.043s-0.099,0.043-0.168,0.073v0.084c0,0.011,0.001,0.021,0.005,0.03c0.004,0.009,0.011,0.017,0.021,0.022
		c0.01,0.007,0.024,0.012,0.043,0.016c0.018,0.003,0.041,0.005,0.071,0.005c0.039,0,0.071-0.002,0.095-0.008
		c0.023-0.005,0.043-0.014,0.057-0.025c0.014-0.013,0.023-0.03,0.029-0.052s0.01-0.048,0.014-0.08
		c0.014,0.015,0.029,0.026,0.046,0.037s0.034,0.019,0.051,0.023c-0.011,0.039-0.022,0.07-0.034,0.094
		c-0.011,0.024-0.027,0.043-0.049,0.055c-0.021,0.013-0.05,0.021-0.084,0.026c-0.035,0.004-0.08,0.006-0.136,0.006
		c-0.048,0-0.086-0.001-0.114-0.005c-0.027-0.003-0.049-0.011-0.064-0.022s-0.024-0.028-0.028-0.051s-0.006-0.054-0.006-0.093V6.045
		c0-0.027-0.001-0.053-0.003-0.076c-0.001-0.022-0.003-0.044-0.005-0.064c0.019,0.005,0.035,0.008,0.052,0.01
		c0.016,0.002,0.035,0.001,0.058-0.001c0.013-0.001,0.021,0.002,0.022,0.007c0.002,0.006-0.003,0.014-0.015,0.023
		c-0.009,0.007-0.015,0.015-0.019,0.022c-0.005,0.008-0.007,0.021-0.007,0.037V6.156z M15.721,6.809
		c0.08-0.032,0.145-0.063,0.195-0.095c0.052-0.03,0.094-0.061,0.125-0.09c0.021,0.031,0.043,0.058,0.064,0.078
		c0.014,0.011,0.02,0.021,0.016,0.031c-0.004,0.009-0.015,0.014-0.033,0.014c-0.01,0-0.021,0.002-0.035,0.006
		c-0.015,0.003-0.035,0.01-0.063,0.02c-0.027,0.011-0.063,0.023-0.105,0.041c-0.044,0.017-0.099,0.039-0.164,0.067v0.153
		c0,0.014,0,0.025,0.003,0.035c0.003,0.009,0.009,0.017,0.019,0.022c0.01,0.005,0.023,0.009,0.041,0.012
		c0.02,0.003,0.044,0.004,0.074,0.004c0.05,0,0.089-0.002,0.117-0.005c0.029-0.003,0.053-0.01,0.07-0.02
		c0.018-0.011,0.03-0.026,0.039-0.047c0.008-0.021,0.017-0.048,0.024-0.083C16.135,6.981,16.163,7,16.194,7.007
		c-0.011,0.039-0.022,0.07-0.036,0.094c-0.012,0.023-0.03,0.042-0.055,0.056c-0.023,0.014-0.056,0.022-0.096,0.026
		c-0.041,0.005-0.094,0.007-0.16,0.007c-0.045,0-0.082-0.001-0.109-0.005s-0.049-0.011-0.064-0.021
		c-0.016-0.012-0.025-0.027-0.031-0.048s-0.008-0.048-0.008-0.083V6.733c0-0.036,0-0.066,0-0.09c0-0.022,0-0.041-0.002-0.056
		c0-0.015-0.002-0.026-0.003-0.035c-0.001-0.01-0.002-0.019-0.003-0.027c0.018,0.005,0.035,0.008,0.052,0.01
		c0.017,0.001,0.036,0.001,0.06-0.001c0.025-0.001,0.027,0.009,0.008,0.03c-0.008,0.008-0.015,0.021-0.02,0.042
		c-0.004,0.02-0.006,0.053-0.006,0.098V6.809z"/>
	<path fill="#FFFFFF" d="M16.602,6.52c-0.037-0.034-0.078-0.066-0.12-0.097c-0.042-0.031-0.087-0.058-0.134-0.08l0.046-0.074
		c0.045,0.026,0.091,0.055,0.138,0.085c0.046,0.03,0.088,0.062,0.127,0.094L16.602,6.52z M16.691,6.685
		c-0.041,0.094-0.082,0.187-0.121,0.277c-0.04,0.091-0.076,0.179-0.109,0.263c-0.02-0.015-0.038-0.025-0.058-0.033
		s-0.038-0.015-0.056-0.02c0.023-0.031,0.046-0.063,0.066-0.099C16.436,7.039,16.457,7,16.477,6.957
		c0.021-0.044,0.042-0.093,0.063-0.147s0.044-0.117,0.067-0.188c0.015,0.017,0.028,0.029,0.041,0.038
		C16.662,6.669,16.676,6.678,16.691,6.685z M16.689,6.142c-0.021-0.019-0.039-0.034-0.055-0.048
		c-0.016-0.013-0.033-0.026-0.051-0.039c-0.018-0.012-0.038-0.025-0.061-0.039c-0.021-0.013-0.049-0.03-0.082-0.05l0.05-0.075
		c0.048,0.028,0.096,0.059,0.144,0.092c0.047,0.033,0.088,0.063,0.12,0.093L16.689,6.142z M17.699,6.05
		c-0.015-0.001-0.029-0.002-0.044-0.004c-0.015-0.001-0.037-0.003-0.065-0.004s-0.067-0.001-0.116-0.002
		c-0.049,0-0.115-0.001-0.198-0.001h-0.364c0.004,0.133,0.007,0.247,0.009,0.343s0.002,0.179,0,0.248
		c-0.003,0.069-0.008,0.129-0.016,0.179c-0.009,0.05-0.02,0.097-0.035,0.14s-0.034,0.085-0.058,0.127
		c-0.023,0.041-0.052,0.089-0.085,0.142c-0.02-0.02-0.038-0.033-0.054-0.04c-0.017-0.006-0.037-0.009-0.063-0.007
		c0.034-0.036,0.064-0.072,0.09-0.105s0.047-0.07,0.064-0.111c0.018-0.04,0.031-0.087,0.041-0.142
		c0.012-0.054,0.018-0.119,0.021-0.197c0.004-0.077,0.004-0.169,0.001-0.275s-0.009-0.233-0.017-0.381
		c0.014,0.002,0.027,0.004,0.043,0.006c0.016,0.001,0.038,0.003,0.068,0.004c0.029,0.001,0.07,0.001,0.123,0.001s0.123,0,0.211,0
		s0.158,0,0.211,0c0.051,0,0.092,0,0.122-0.001s0.052-0.003,0.067-0.004c0.014-0.002,0.028-0.004,0.043-0.006V6.05z M17.177,6.83
		c0.016,0.004,0.023,0.012,0.022,0.023c-0.001,0.013-0.01,0.021-0.025,0.025c-0.008,0.003-0.02,0.012-0.034,0.026
		s-0.03,0.035-0.047,0.062c-0.017,0.025-0.034,0.05-0.053,0.074c-0.019,0.023-0.039,0.049-0.063,0.078
		c-0.014-0.013-0.028-0.023-0.044-0.03c-0.015-0.008-0.033-0.015-0.054-0.022c0.054-0.036,0.097-0.077,0.13-0.122
		c0.032-0.044,0.06-0.096,0.079-0.153c0.016,0.011,0.03,0.019,0.043,0.023C17.144,6.82,17.158,6.825,17.177,6.83z M17.193,6.217
		c0.018-0.03,0.031-0.06,0.04-0.088c0.009-0.027,0.017-0.056,0.021-0.085c0.017,0.016,0.032,0.027,0.047,0.033
		c0.016,0.006,0.031,0.011,0.05,0.017c0.011,0.002,0.017,0.008,0.015,0.018c0,0.01-0.008,0.018-0.02,0.022s-0.023,0.013-0.033,0.022
		c-0.011,0.01-0.024,0.03-0.041,0.061h0.133c0.031,0,0.059-0.001,0.082-0.001c0.022-0.001,0.043-0.001,0.061-0.002
		c0.018,0,0.031-0.001,0.045-0.002c0.012-0.001,0.024-0.003,0.036-0.005c-0.005,0.032-0.009,0.062-0.01,0.088s-0.002,0.06-0.002,0.1
		v0.14c0,0.038,0.001,0.075,0.003,0.111c0.004,0.036,0.006,0.063,0.009,0.084c-0.026-0.005-0.058-0.009-0.097-0.01
		c-0.039-0.002-0.09-0.003-0.152-0.004v0.396c0,0.025-0.002,0.047-0.008,0.064c-0.006,0.017-0.018,0.03-0.034,0.039
		c-0.017,0.01-0.042,0.017-0.075,0.02c-0.033,0.004-0.076,0.005-0.13,0.004c0.001-0.017-0.001-0.034-0.007-0.051
		c-0.004-0.018-0.016-0.034-0.032-0.053c0.04,0.008,0.072,0.013,0.097,0.015c0.025,0.001,0.045,0,0.059-0.003
		c0.015-0.003,0.023-0.008,0.028-0.016c0.005-0.007,0.007-0.016,0.007-0.026v-0.39c-0.039,0-0.072,0-0.1,0.001
		c-0.027,0-0.052,0.001-0.072,0.002s-0.039,0.002-0.055,0.004c-0.015,0.001-0.029,0.004-0.043,0.007
		c0.002-0.021,0.005-0.047,0.007-0.079s0.003-0.071,0.003-0.116v-0.14c0-0.041,0-0.076-0.002-0.104
		c-0.002-0.029-0.004-0.057-0.008-0.083C17.059,6.213,17.118,6.217,17.193,6.217z M17.524,6.284h-0.412v0.149h0.412V6.284z
		 M17.524,6.498h-0.412v0.15h0.412V6.498z M17.648,7.113c-0.022-0.031-0.042-0.058-0.059-0.08s-0.032-0.043-0.047-0.061
		c-0.016-0.019-0.031-0.036-0.049-0.053c-0.017-0.018-0.036-0.036-0.059-0.057l0.063-0.055c0.026,0.027,0.049,0.051,0.068,0.07
		c0.02,0.021,0.038,0.04,0.055,0.059s0.034,0.036,0.05,0.055s0.033,0.04,0.054,0.063L17.648,7.113z"/>
	<path fill="#FFFFFF" d="M18.582,6.967c0.002,0.016,0.006,0.028,0.011,0.038c0.005,0.009,0.013,0.021,0.024,0.035l-0.246,0.132
		c-0.014,0.007-0.03,0.018-0.051,0.031c-0.021,0.015-0.041,0.026-0.058,0.038c-0.007-0.017-0.015-0.031-0.024-0.046
		s-0.021-0.029-0.037-0.043c0.031-0.008,0.061-0.019,0.088-0.031V6.725h-0.195c-0.008,0.097-0.021,0.184-0.041,0.261
		c-0.02,0.078-0.048,0.154-0.086,0.229c-0.015-0.01-0.029-0.018-0.045-0.024c-0.015-0.006-0.032-0.011-0.053-0.017
		c0.022-0.029,0.042-0.062,0.059-0.095c0.018-0.033,0.031-0.074,0.044-0.121c0.012-0.048,0.021-0.105,0.029-0.172
		c0.007-0.067,0.013-0.149,0.017-0.246c0.004-0.066,0.004-0.149,0.002-0.249c-0.004-0.101-0.008-0.215-0.017-0.344
		c0.013,0.002,0.029,0.004,0.049,0.005c0.02,0.002,0.049,0.003,0.087,0.004c0.039,0.001,0.09,0.002,0.152,0.003
		c0.063,0,0.146,0,0.248,0c0.095,0,0.174,0,0.236,0c0.063-0.001,0.113-0.002,0.153-0.003S19,5.953,19.021,5.951
		c0.021-0.001,0.039-0.003,0.053-0.005c-0.003,0.023-0.006,0.048-0.007,0.075c-0.001,0.026-0.003,0.053-0.003,0.078
		c0,0.028,0.002,0.06,0.004,0.091c0.002,0.032,0.004,0.058,0.006,0.077c-0.02-0.002-0.053-0.004-0.097-0.006
		c-0.045-0.002-0.097-0.003-0.157-0.003v0.155c0.04,0,0.084-0.001,0.13-0.002c0.047-0.002,0.089-0.003,0.128-0.005v0.087
		c-0.02-0.001-0.041-0.002-0.063-0.003s-0.046-0.002-0.069-0.003S18.9,6.486,18.879,6.485c-0.021,0-0.041-0.001-0.059-0.001v0.173
		c0.074,0,0.143-0.001,0.204-0.004c0.062-0.002,0.11-0.006,0.146-0.01v0.095c-0.011-0.002-0.025-0.004-0.045-0.005
		c-0.02-0.002-0.041-0.003-0.064-0.005c-0.023-0.001-0.049-0.002-0.076-0.003s-0.053-0.001-0.078-0.001h-0.238
		c0.033,0.074,0.077,0.14,0.131,0.195c0.031-0.024,0.063-0.053,0.092-0.085c0.03-0.032,0.055-0.063,0.07-0.089
		c0.029,0.027,0.057,0.048,0.082,0.062c0.014,0.007,0.02,0.014,0.018,0.021c-0.004,0.008-0.012,0.011-0.025,0.011
		c-0.006,0-0.014,0.002-0.021,0.005c-0.009,0.003-0.02,0.009-0.034,0.019c-0.014,0.009-0.032,0.021-0.054,0.037
		s-0.049,0.037-0.081,0.063c0.093,0.078,0.212,0.132,0.358,0.161c-0.02,0.017-0.033,0.032-0.045,0.046
		c-0.01,0.015-0.02,0.031-0.027,0.052c-0.068-0.024-0.129-0.052-0.183-0.082s-0.103-0.065-0.147-0.105
		c-0.043-0.039-0.084-0.084-0.119-0.135s-0.068-0.108-0.098-0.175h-0.207v0.354L18.582,6.967z M18.383,6.484
		c-0.035,0-0.072,0.001-0.111,0.003c-0.039,0.001-0.076,0.004-0.111,0.007V6.407c0.035,0.002,0.072,0.003,0.112,0.005
		c0.04,0.001,0.076,0.002,0.11,0.002V6.259h-0.276c-0.001,0.078-0.002,0.151-0.003,0.218s-0.002,0.126-0.004,0.18h0.283V6.484z
		 M18.973,6.03h-0.866v0.156h0.866V6.03z M18.732,6.416V6.259h-0.262v0.157H18.732z M18.471,6.483v0.174h0.262V6.483H18.471z"/>
</g>
</svg>
