<?xml version="1.0" encoding="utf-8"?>
<!-- Generator: Adobe Illustrator 16.0.3, SVG Export Plug-In . SVG Version: 6.00 Build 0)  -->
<!DOCTYPE svg PUBLIC "-//W3C//DTD SVG 1.1//EN" "http://www.w3.org/Graphics/SVG/1.1/DTD/svg11.dtd">
<svg version="1.1" id="圖層_1" xmlns="http://www.w3.org/2000/svg" xmlns:xlink="http://www.w3.org/1999/xlink" x="0px" y="0px"
	 width="24px" height="13.667px" viewBox="0 0 24 13.667" enable-background="new 0 0 24 13.667" xml:space="preserve">
<polygon fill="#F0A557" points="24,9.457 0,13.228 0,0 24,0 "/>
<g>
	<path fill="#FFFFFF" d="M4.55,3.95C4.51,3.895,4.476,3.859,4.448,3.84S4.387,3.813,4.35,3.813S4.281,3.825,4.255,3.849
		C4.229,3.873,4.217,3.904,4.217,3.941c0,0.038,0.012,0.07,0.036,0.099s0.079,0.073,0.166,0.137c0.086,0.064,0.15,0.124,0.19,0.18
		s0.06,0.115,0.06,0.177c0,0.081-0.031,0.151-0.094,0.211S4.439,4.833,4.356,4.833c-0.146,0-0.261-0.081-0.344-0.244l0.11-0.063
		C4.188,4.647,4.26,4.707,4.341,4.707c0.052,0,0.097-0.016,0.133-0.049C4.512,4.625,4.53,4.586,4.53,4.542
		c0-0.045-0.016-0.086-0.046-0.126C4.453,4.377,4.399,4.329,4.323,4.271C4.248,4.213,4.195,4.17,4.167,4.14
		C4.138,4.11,4.117,4.078,4.104,4.044c-0.013-0.034-0.02-0.068-0.02-0.103c0-0.073,0.025-0.135,0.076-0.186
		c0.05-0.05,0.116-0.075,0.196-0.075c0.062,0,0.116,0.016,0.162,0.047c0.046,0.031,0.091,0.078,0.135,0.141L4.55,3.95z"/>
	<path fill="#FFFFFF" d="M6.069,4.806H5.943V4.361c0-0.071-0.004-0.123-0.013-0.156S5.904,4.144,5.875,4.122
		C5.847,4.099,5.809,4.087,5.763,4.087s-0.09,0.015-0.131,0.045S5.562,4.204,5.546,4.254C5.53,4.306,5.522,4.382,5.522,4.484v0.322
		H5.4V4.387c0-0.082-0.004-0.141-0.013-0.177C5.379,4.174,5.36,4.145,5.332,4.122c-0.029-0.022-0.065-0.034-0.11-0.034
		c-0.044,0-0.085,0.014-0.125,0.041c-0.04,0.028-0.069,0.063-0.088,0.108S4.98,4.355,4.98,4.458v0.349H4.857V3.989H4.98v0.115
		c0.07-0.091,0.157-0.137,0.262-0.137c0.057,0,0.109,0.016,0.155,0.046c0.047,0.03,0.08,0.074,0.1,0.13
		c0.034-0.057,0.076-0.101,0.127-0.131C5.676,3.983,5.73,3.967,5.788,3.967c0.078,0,0.145,0.027,0.199,0.083
		c0.055,0.055,0.083,0.158,0.083,0.311V4.806z"/>
	<path fill="#FFFFFF" d="M7.079,4.806H6.957v-0.12C6.868,4.784,6.766,4.833,6.649,4.833c-0.116,0-0.215-0.042-0.297-0.128
		C6.27,4.62,6.228,4.517,6.228,4.399c0-0.119,0.042-0.22,0.125-0.305s0.185-0.127,0.304-0.127c0.12,0,0.22,0.049,0.301,0.146V3.989
		h0.122V4.806z M6.659,4.717c0.083,0,0.154-0.03,0.214-0.09s0.09-0.135,0.09-0.225c0-0.089-0.03-0.164-0.089-0.225
		S6.743,4.087,6.658,4.087S6.5,4.119,6.441,4.181C6.382,4.244,6.353,4.318,6.353,4.403s0.03,0.158,0.09,0.221
		C6.502,4.686,6.575,4.717,6.659,4.717z"/>
	<path fill="#FFFFFF" d="M7.634,4L7.569,4.106C7.552,4.096,7.536,4.092,7.52,4.092c-0.031,0-0.059,0.015-0.084,0.046
		c-0.025,0.03-0.044,0.07-0.056,0.119C7.367,4.307,7.36,4.397,7.36,4.526v0.28H7.234V3.989H7.36v0.088
		c0.025-0.037,0.05-0.064,0.076-0.082c0.025-0.019,0.054-0.027,0.087-0.027C7.556,3.967,7.593,3.978,7.634,4z"/>
	<path fill="#FFFFFF" d="M8.117,4.096H7.955v0.573c0,0.021,0.003,0.034,0.009,0.038C7.97,4.712,7.985,4.714,8.009,4.714h0.072v0.106
		C8.033,4.829,7.996,4.833,7.971,4.833c-0.048,0-0.083-0.012-0.106-0.035S7.83,4.737,7.83,4.686v-0.59H7.689V3.989H7.83V3.681h0.125
		v0.308h0.162V4.096z"/>
	<path fill="#FFFFFF" d="M9.063,3.95C9.023,3.895,8.989,3.859,8.961,3.84S8.901,3.813,8.863,3.813S8.794,3.825,8.769,3.849
		C8.743,3.873,8.73,3.904,8.73,3.941c0,0.038,0.012,0.07,0.036,0.099s0.079,0.073,0.166,0.137c0.086,0.064,0.15,0.124,0.19,0.18
		s0.06,0.115,0.06,0.177c0,0.081-0.031,0.151-0.094,0.211S8.953,4.833,8.87,4.833c-0.146,0-0.261-0.081-0.344-0.244l0.11-0.063
		c0.065,0.121,0.138,0.181,0.219,0.181c0.052,0,0.097-0.016,0.133-0.049c0.037-0.033,0.056-0.071,0.056-0.115
		c0-0.045-0.016-0.086-0.046-0.126C8.966,4.377,8.913,4.329,8.837,4.271C8.761,4.213,8.709,4.17,8.68,4.14
		C8.652,4.11,8.631,4.078,8.618,4.044c-0.013-0.034-0.02-0.068-0.02-0.103c0-0.073,0.025-0.135,0.076-0.186
		c0.05-0.05,0.116-0.075,0.196-0.075c0.062,0,0.116,0.016,0.162,0.047c0.046,0.031,0.091,0.078,0.135,0.141L9.063,3.95z"/>
	<path fill="#FFFFFF" d="M9.747,4.096H9.585v0.573c0,0.021,0.003,0.034,0.009,0.038C9.6,4.712,9.615,4.714,9.639,4.714h0.072v0.106
		C9.663,4.829,9.626,4.833,9.602,4.833c-0.048,0-0.083-0.012-0.106-0.035S9.46,4.737,9.46,4.686v-0.59H9.32V3.989H9.46V3.681h0.125
		v0.308h0.162V4.096z"/>
	<path fill="#FFFFFF" d="M10.268,3.967c0.118,0,0.218,0.043,0.301,0.128s0.124,0.187,0.124,0.306s-0.041,0.221-0.122,0.306
		c-0.082,0.084-0.183,0.126-0.302,0.126c-0.12,0-0.221-0.042-0.303-0.126C9.883,4.622,9.842,4.52,9.842,4.401
		S9.883,4.18,9.966,4.095S10.149,3.967,10.268,3.967z M10.268,4.714c0.083,0,0.153-0.03,0.212-0.091s0.088-0.133,0.088-0.219
		s-0.03-0.159-0.089-0.222s-0.13-0.094-0.211-0.094s-0.152,0.031-0.211,0.094C9.998,4.246,9.968,4.32,9.968,4.406
		s0.029,0.159,0.085,0.219C10.11,4.684,10.182,4.714,10.268,4.714z"/>
	<path fill="#FFFFFF" d="M11.207,4l-0.065,0.105c-0.017-0.01-0.033-0.014-0.049-0.014c-0.031,0-0.059,0.015-0.084,0.046
		c-0.025,0.03-0.044,0.07-0.056,0.119c-0.013,0.05-0.019,0.14-0.019,0.269v0.28h-0.126V3.989h0.126v0.088
		c0.025-0.037,0.05-0.064,0.076-0.082c0.025-0.019,0.054-0.027,0.087-0.027C11.129,3.967,11.166,3.978,11.207,4z"/>
	<path fill="#FFFFFF" d="M12.128,4.806h-0.122v-0.12c-0.088,0.098-0.191,0.146-0.307,0.146c-0.116,0-0.215-0.042-0.298-0.128
		c-0.083-0.085-0.124-0.188-0.124-0.306c0-0.119,0.041-0.22,0.125-0.305c0.082-0.085,0.184-0.127,0.303-0.127
		c0.12,0,0.221,0.049,0.301,0.146V3.989h0.122V4.806z M11.708,4.717c0.083,0,0.154-0.03,0.214-0.09
		c0.061-0.06,0.091-0.135,0.091-0.225c0-0.089-0.03-0.164-0.089-0.225s-0.131-0.091-0.217-0.091s-0.158,0.031-0.217,0.094
		s-0.088,0.137-0.088,0.222s0.029,0.158,0.09,0.221C11.552,4.686,11.624,4.717,11.708,4.717z"/>
	<path fill="#FFFFFF" d="M13.155,4.614c0,0.108-0.009,0.188-0.027,0.24s-0.047,0.096-0.084,0.132
		c-0.038,0.036-0.083,0.063-0.136,0.082c-0.052,0.019-0.109,0.027-0.173,0.027c-0.213,0-0.355-0.09-0.426-0.27h0.132
		c0.058,0.104,0.154,0.156,0.289,0.156c0.063,0,0.118-0.013,0.167-0.036c0.049-0.024,0.083-0.057,0.104-0.097
		c0.02-0.04,0.03-0.102,0.03-0.185V4.658c-0.039,0.044-0.086,0.077-0.142,0.101c-0.055,0.022-0.111,0.034-0.171,0.034
		c-0.118,0-0.217-0.04-0.296-0.121c-0.08-0.081-0.119-0.177-0.118-0.287c-0.001-0.115,0.041-0.213,0.125-0.295
		c0.084-0.081,0.184-0.122,0.299-0.122s0.217,0.047,0.303,0.142v-0.12h0.124V4.614z M13.035,4.384c0-0.086-0.028-0.157-0.086-0.213
		s-0.128-0.084-0.211-0.084c-0.088,0-0.162,0.03-0.221,0.091c-0.06,0.061-0.09,0.131-0.09,0.211s0.028,0.147,0.086,0.203
		c0.057,0.056,0.13,0.083,0.219,0.083s0.162-0.027,0.218-0.082C13.007,4.54,13.035,4.469,13.035,4.384z"/>
	<path fill="#FFFFFF" d="M14.153,4.419h-0.717c0.005,0.09,0.035,0.162,0.091,0.217c0.055,0.054,0.121,0.081,0.198,0.081
		c0.131,0,0.231-0.064,0.3-0.193l0.105,0.054c-0.047,0.087-0.103,0.151-0.167,0.193c-0.063,0.041-0.141,0.062-0.229,0.062
		c-0.123,0-0.225-0.042-0.305-0.126c-0.079-0.085-0.119-0.187-0.119-0.306s0.04-0.221,0.12-0.306c0.081-0.085,0.181-0.128,0.3-0.128
		s0.218,0.04,0.298,0.121C14.108,4.168,14.15,4.279,14.153,4.419z M14.016,4.309C14,4.24,13.966,4.185,13.913,4.146
		s-0.114-0.059-0.183-0.059c-0.141,0-0.233,0.074-0.279,0.222H14.016z"/>
	<path fill="#FFFFFF" d="M15.22,3.834h-0.24v0.972h-0.131V3.834h-0.241V3.708h0.612V3.834z"/>
	<path fill="#FFFFFF" d="M16.15,4.806h-0.121v-0.12c-0.09,0.098-0.191,0.146-0.308,0.146s-0.216-0.042-0.298-0.128
		C15.341,4.62,15.3,4.517,15.3,4.399c0-0.119,0.042-0.22,0.125-0.305s0.184-0.127,0.304-0.127c0.119,0,0.22,0.049,0.301,0.146V3.989
		h0.121V4.806z M15.73,4.717c0.083,0,0.154-0.03,0.215-0.09c0.06-0.06,0.09-0.135,0.09-0.225c0-0.089-0.029-0.164-0.089-0.225
		c-0.059-0.061-0.131-0.091-0.217-0.091c-0.085,0-0.157,0.031-0.217,0.094c-0.059,0.063-0.088,0.137-0.088,0.222
		s0.029,0.158,0.09,0.221C15.574,4.686,15.646,4.717,15.73,4.717z"/>
	<path fill="#FFFFFF" d="M16.407,3.681c0.026,0,0.05,0.009,0.067,0.027c0.019,0.019,0.028,0.041,0.028,0.067
		c0,0.027-0.01,0.05-0.028,0.067c-0.018,0.019-0.041,0.028-0.067,0.028s-0.049-0.01-0.067-0.028
		c-0.019-0.02-0.027-0.042-0.027-0.067s0.009-0.048,0.027-0.066S16.381,3.681,16.407,3.681z M16.47,4.806h-0.124V3.989h0.124V4.806z
		"/>
	<path fill="#FFFFFF" d="M17.8,3.989l-0.35,0.844h-0.031l-0.24-0.581l-0.241,0.581h-0.032l-0.343-0.844h0.127l0.231,0.588
		l0.243-0.588h0.029l0.242,0.589l0.235-0.589H17.8z"/>
	<path fill="#FFFFFF" d="M18.722,4.806h-0.121v-0.12c-0.09,0.098-0.191,0.146-0.308,0.146s-0.216-0.042-0.298-0.128
		c-0.083-0.085-0.124-0.188-0.124-0.306c0-0.119,0.042-0.22,0.125-0.305S18.18,3.967,18.3,3.967c0.119,0,0.22,0.049,0.301,0.146
		V3.989h0.121V4.806z M18.302,4.717c0.083,0,0.154-0.03,0.215-0.09c0.06-0.06,0.09-0.135,0.09-0.225
		c0-0.089-0.029-0.164-0.089-0.225c-0.059-0.061-0.131-0.091-0.217-0.091c-0.085,0-0.157,0.031-0.217,0.094
		c-0.059,0.063-0.088,0.137-0.088,0.222s0.029,0.158,0.09,0.221C18.146,4.686,18.218,4.717,18.302,4.717z"/>
	<path fill="#FFFFFF" d="M19.648,4.806h-0.123V4.416c0-0.09-0.004-0.15-0.013-0.184c-0.009-0.032-0.021-0.06-0.037-0.082
		s-0.038-0.039-0.063-0.051c-0.025-0.011-0.057-0.017-0.093-0.017s-0.072,0.01-0.107,0.027c-0.035,0.019-0.064,0.043-0.09,0.075
		S19.08,4.251,19.07,4.287c-0.01,0.036-0.015,0.108-0.015,0.217v0.303h-0.124V3.989h0.124v0.123
		c0.081-0.097,0.178-0.145,0.288-0.145c0.06,0,0.113,0.016,0.161,0.046s0.084,0.072,0.107,0.126
		c0.024,0.054,0.036,0.136,0.036,0.247V4.806z"/>
	<path fill="#FFFFFF" d="M4.701,6.135C4.675,6.111,4.647,6.083,4.616,6.053C4.584,6.023,4.547,5.989,4.504,5.95l0.104-0.07
		c0.034,0.028,0.066,0.057,0.097,0.084c0.031,0.028,0.061,0.056,0.091,0.085c0.03,0.029,0.061,0.06,0.093,0.092
		C4.92,6.172,4.955,6.208,4.992,6.247L4.869,6.329c-0.014-0.018-0.027-0.034-0.04-0.051C4.816,6.262,4.803,6.246,4.789,6.23
		C4.657,6.237,4.543,6.243,4.448,6.248c-0.096,0.006-0.177,0.01-0.245,0.014S4.08,6.269,4.036,6.273
		c-0.044,0.003-0.081,0.007-0.11,0.01S3.872,6.289,3.852,6.292S3.814,6.298,3.796,6.302C3.792,6.28,3.787,6.257,3.779,6.233
		C3.772,6.209,3.765,6.186,3.757,6.164c0.014,0.001,0.029,0.002,0.046,0.001c0.017,0,0.035-0.001,0.055-0.001
		c0.049-0.039,0.096-0.08,0.141-0.123c0.045-0.044,0.087-0.087,0.125-0.129c0.039-0.043,0.073-0.084,0.104-0.124
		c0.031-0.04,0.056-0.076,0.076-0.109c0.029,0.019,0.055,0.034,0.079,0.047s0.047,0.022,0.07,0.031
		c0.02,0.008,0.029,0.016,0.028,0.022C4.478,5.787,4.466,5.791,4.445,5.792c-0.009,0-0.021,0.005-0.037,0.015
		c-0.016,0.01-0.036,0.027-0.06,0.051C4.293,5.912,4.237,5.965,4.18,6.018C4.123,6.072,4.069,6.119,4.02,6.16L4.701,6.135z
		 M4.028,7.034H3.884c0.006-0.042,0.011-0.081,0.015-0.116c0.003-0.036,0.005-0.073,0.005-0.111V6.571c0-0.032,0-0.06-0.002-0.081
		C3.9,6.467,3.898,6.449,3.896,6.432C3.918,6.434,3.94,6.436,3.962,6.436c0.022,0.001,0.05,0.002,0.083,0.003
		C4.079,6.44,4.122,6.44,4.172,6.44c0.051,0,0.117,0,0.197,0s0.146,0,0.197-0.001c0.051,0,0.094-0.001,0.129-0.001
		C4.73,6.437,4.758,6.436,4.779,6.435s0.042-0.002,0.062-0.003C4.839,6.447,4.838,6.464,4.836,6.486s-0.002,0.05-0.002,0.085v0.217
		c0,0.041,0,0.08,0.001,0.115s0.003,0.073,0.007,0.113H4.707V6.93H4.028V7.034z M4.707,6.546H4.028v0.276h0.678V6.546z"/>
	<path fill="#FFFFFF" d="M5.362,6.35C5.349,6.332,5.337,6.316,5.325,6.3C5.314,6.286,5.302,6.272,5.289,6.258
		C5.277,6.246,5.263,6.233,5.248,6.219c-0.015-0.013-0.032-0.026-0.051-0.04l0.077-0.078c0.034,0.028,0.065,0.055,0.092,0.081
		s0.058,0.057,0.091,0.092L5.362,6.35z M5.377,6.023C5.36,5.993,5.338,5.962,5.31,5.931C5.283,5.899,5.25,5.868,5.212,5.835
		l0.092-0.076c0.034,0.031,0.063,0.062,0.089,0.089C5.418,5.875,5.444,5.906,5.47,5.939L5.377,6.023z M5.468,6.477
		C5.454,6.541,5.437,6.619,5.42,6.712C5.402,6.806,5.384,6.911,5.367,7.028C5.339,7.014,5.315,7.003,5.293,6.995
		C5.271,6.987,5.246,6.98,5.216,6.974c0.023-0.032,0.047-0.095,0.072-0.189c0.025-0.094,0.046-0.21,0.063-0.348
		c0.022,0.014,0.041,0.024,0.056,0.03C5.422,6.473,5.442,6.476,5.468,6.477z M5.52,5.967C5.544,5.917,5.565,5.87,5.582,5.827
		c0.017-0.043,0.03-0.085,0.04-0.126c0.017,0.011,0.032,0.02,0.046,0.024c0.014,0.006,0.031,0.012,0.049,0.018
		c0.013,0.005,0.02,0.011,0.02,0.017c0,0.007-0.007,0.013-0.021,0.018C5.71,5.779,5.698,5.793,5.68,5.82S5.635,5.895,5.599,5.966
		L5.683,5.96c0.011-0.019,0.021-0.036,0.028-0.053C5.72,5.89,5.727,5.875,5.732,5.861c0.014,0.011,0.03,0.021,0.046,0.032
		c0.017,0.011,0.03,0.018,0.038,0.021c0.01,0.006,0.015,0.012,0.016,0.02c0,0.007-0.006,0.013-0.02,0.016
		c-0.007,0.002-0.024,0.02-0.053,0.052C5.731,6.034,5.687,6.086,5.625,6.158l0.109-0.009c-0.005-0.011-0.009-0.02-0.012-0.027
		C5.719,6.115,5.716,6.11,5.714,6.107l0.074-0.036c0.009,0.017,0.017,0.03,0.024,0.044C5.819,6.127,5.825,6.14,5.83,6.152
		s0.01,0.024,0.014,0.036s0.009,0.025,0.014,0.04L5.776,6.26C5.775,6.25,5.771,6.236,5.764,6.218L5.616,6.233
		c-0.02,0.002-0.042,0.005-0.066,0.009C5.525,6.245,5.507,6.249,5.496,6.252c-0.002-0.02-0.004-0.037-0.008-0.05
		C5.485,6.189,5.479,6.173,5.472,6.155C5.48,6.157,5.491,6.159,5.503,6.16c0.012,0.001,0.025,0.001,0.039,0.001
		c0.017-0.019,0.033-0.039,0.049-0.06c0.016-0.021,0.03-0.043,0.044-0.064C5.604,6.041,5.576,6.044,5.55,6.047
		C5.525,6.051,5.506,6.055,5.494,6.059C5.492,6.039,5.489,6.022,5.486,6.008C5.482,5.996,5.477,5.98,5.47,5.961
		c0.007,0.002,0.014,0.003,0.022,0.004C5.5,5.965,5.509,5.966,5.52,5.967z M5.478,6.449c0.006-0.03,0.01-0.059,0.011-0.085
		C5.49,6.338,5.49,6.309,5.488,6.277l0.09,0.001C5.582,6.313,5.584,6.343,5.583,6.37c0,0.026-0.003,0.051-0.008,0.075L5.478,6.449z
		 M6.445,6.761C6.442,6.774,6.439,6.789,6.437,6.804C6.434,6.821,6.43,6.846,6.424,6.882C6.419,6.909,6.413,6.93,6.405,6.947
		C6.398,6.964,6.385,6.978,6.366,6.991c-0.019,0.012-0.045,0.022-0.08,0.032c-0.034,0.01-0.08,0.019-0.137,0.029
		C6.148,7.035,6.144,7.017,6.135,6.998c-0.008-0.019-0.023-0.04-0.043-0.063c0.049-0.001,0.088-0.003,0.117-0.006
		s0.051-0.008,0.067-0.016c0.015-0.007,0.025-0.016,0.03-0.028C6.311,6.874,6.313,6.859,6.314,6.84H5.853c-0.028,0-0.053,0-0.075,0
		s-0.042,0-0.062,0.001c-0.02,0-0.039,0.001-0.057,0.002S5.621,6.845,5.601,6.846c0.002-0.035,0.003-0.073,0.004-0.114
		c0-0.042-0.001-0.083-0.005-0.124c0.04,0.004,0.08,0.007,0.12,0.009c0.04,0.001,0.08,0.002,0.12,0.002h0.42V6.549h-0.39
		c-0.051,0-0.097,0.001-0.138,0.002S5.646,6.554,5.598,6.557v-0.1c0.03,0.003,0.059,0.004,0.087,0.005
		c0.029,0.001,0.058,0.002,0.088,0.002c0.03,0.001,0.063,0.001,0.097,0.002c0.035,0,0.073,0.001,0.115,0.001
		c0.046,0,0.086-0.001,0.122-0.001c0.035-0.001,0.067-0.001,0.097-0.002c0.03,0,0.057-0.001,0.083-0.002S6.337,6.46,6.366,6.458
		C6.362,6.48,6.36,6.5,6.359,6.519c-0.001,0.02-0.002,0.038-0.002,0.058c0,0.019,0.001,0.039,0.002,0.06
		C6.36,6.658,6.362,6.68,6.366,6.706C6.339,6.704,6.309,6.702,6.273,6.701C6.238,6.7,6.198,6.7,6.155,6.7H5.708v0.064h0.525
		c0.048,0,0.089,0,0.123-0.001C6.389,6.763,6.419,6.762,6.445,6.761z M5.625,6.428c0-0.026-0.001-0.05-0.004-0.07
		s-0.008-0.047-0.016-0.08l0.083-0.012c0.008,0.029,0.014,0.055,0.019,0.077c0.005,0.022,0.008,0.046,0.01,0.069L5.625,6.428z
		 M5.748,6.415C5.746,6.388,5.743,6.366,5.739,6.346S5.73,6.306,5.722,6.284l0.083-0.018C5.812,6.29,5.817,6.31,5.822,6.326
		c0.004,0.017,0.009,0.039,0.014,0.069L5.748,6.415z M5.955,5.795C5.952,5.77,5.943,5.742,5.931,5.711l0.108-0.02
		c0.008,0.02,0.014,0.037,0.017,0.052c0.003,0.014,0.007,0.031,0.011,0.052c0.019,0,0.041-0.002,0.066-0.004
		C6.158,5.789,6.18,5.787,6.199,5.785v0.095C6.174,5.876,6.147,5.874,6.117,5.873C6.088,5.871,6.051,5.87,6.007,5.87
		c-0.043,0-0.079,0.001-0.108,0.003c-0.03,0.001-0.057,0.004-0.082,0.007V5.785C5.836,5.788,5.86,5.79,5.887,5.792
		C5.914,5.794,5.937,5.795,5.955,5.795z M6.139,6.014C6.122,6.011,6.103,6.008,6.081,6.007C6.06,6.005,6.033,6.005,6.001,6.005
		s-0.059,0-0.081,0.002C5.898,6.008,5.878,6.011,5.861,6.014V5.921C5.878,5.924,5.898,5.926,5.92,5.928
		C5.942,5.929,5.969,5.93,6.001,5.93s0.059-0.001,0.08-0.002c0.021-0.002,0.041-0.004,0.058-0.007V6.014z M6.146,6.432
		C6.129,6.43,6.11,6.429,6.088,6.428S6.039,6.426,6.005,6.426c-0.033,0-0.061,0-0.084,0.001s-0.043,0.002-0.06,0.004
		c0.002-0.018,0.003-0.037,0.004-0.059c0-0.022,0.001-0.045,0.001-0.067c0-0.048-0.002-0.089-0.005-0.122
		c0.017,0.002,0.037,0.004,0.06,0.004c0.023,0.001,0.051,0.001,0.084,0.001c0.033,0,0.061,0,0.083-0.001
		c0.022,0,0.042-0.002,0.059-0.004C6.144,6.216,6.142,6.257,6.142,6.305C6.142,6.356,6.144,6.399,6.146,6.432z M6.139,6.14
		C6.12,6.137,6.1,6.134,6.079,6.133C6.058,6.131,6.033,6.131,6.002,6.131c-0.03,0-0.056,0-0.077,0.002
		C5.904,6.134,5.884,6.137,5.866,6.14V6.051c0.019,0.003,0.039,0.006,0.06,0.007C5.947,6.06,5.973,6.06,6.002,6.06
		c0.03,0,0.056,0,0.077-0.002C6.1,6.057,6.12,6.054,6.139,6.051V6.14z M6.061,6.266H5.949v0.082h0.112V6.266z M6.209,5.958
		c0.022-0.048,0.04-0.092,0.055-0.131C6.279,5.788,6.29,5.75,6.296,5.715C6.313,5.723,6.331,5.731,6.35,5.737
		s0.035,0.01,0.049,0.013C6.41,5.752,6.416,5.756,6.417,5.763s-0.004,0.014-0.015,0.02C6.394,5.788,6.379,5.806,6.359,5.838
		S6.318,5.91,6.295,5.956l0.077-0.005c0.013-0.019,0.024-0.037,0.034-0.056C6.415,5.877,6.423,5.86,6.432,5.843
		C6.449,5.856,6.465,5.867,6.48,5.875c0.015,0.008,0.028,0.014,0.04,0.017c0.013,0.004,0.019,0.011,0.019,0.02
		S6.533,5.924,6.521,5.924c-0.007,0-0.023,0.015-0.048,0.043C6.459,5.985,6.437,6.009,6.404,6.042
		C6.373,6.075,6.337,6.11,6.298,6.148l0.131-0.014C6.424,6.126,6.421,6.119,6.418,6.112s-0.006-0.014-0.01-0.02L6.49,6.068
		C6.497,6.085,6.503,6.1,6.509,6.114C6.516,6.127,6.521,6.14,6.525,6.153C6.53,6.166,6.534,6.178,6.538,6.192
		S6.546,6.22,6.551,6.236L6.467,6.264C6.466,6.255,6.465,6.246,6.462,6.235C6.46,6.223,6.457,6.212,6.454,6.2L6.256,6.227
		c-0.01,0.002-0.022,0.005-0.037,0.008C6.205,6.239,6.19,6.244,6.176,6.251C6.175,6.231,6.174,6.213,6.171,6.199
		C6.169,6.183,6.165,6.166,6.16,6.146c0.012,0.003,0.028,0.005,0.048,0.005C6.244,6.115,6.28,6.074,6.316,6.029
		c-0.022,0.002-0.042,0.005-0.06,0.008C6.24,6.039,6.225,6.041,6.209,6.043C6.194,6.045,6.184,6.048,6.178,6.05
		C6.176,6.03,6.173,6.013,6.17,6C6.166,5.986,6.161,5.97,6.154,5.953C6.162,5.955,6.17,5.956,6.18,5.957
		C6.188,5.957,6.198,5.958,6.209,5.958z M6.178,6.429C6.18,6.415,6.182,6.401,6.183,6.388s0.001-0.024,0.002-0.037
		c0-0.012,0.001-0.024,0.001-0.038s0-0.029-0.001-0.049l0.085-0.01c0.002,0.034,0.003,0.064,0.003,0.09
		c0,0.024-0.001,0.052-0.003,0.081L6.178,6.429z M6.313,6.422C6.311,6.389,6.309,6.362,6.306,6.339
		C6.303,6.318,6.298,6.292,6.293,6.263l0.08-0.008C6.38,6.288,6.385,6.314,6.39,6.335c0.004,0.021,0.007,0.048,0.009,0.079
		L6.313,6.422z M6.439,6.42c-0.002-0.031-0.005-0.058-0.01-0.081C6.425,6.317,6.418,6.293,6.411,6.27l0.085-0.003
		c0.01,0.025,0.018,0.05,0.024,0.072c0.007,0.023,0.013,0.047,0.018,0.072L6.439,6.42z"/>
	<path fill="#FFFFFF" d="M6.892,7.044H6.766C6.77,7.002,6.773,6.962,6.774,6.923s0.002-0.081,0.002-0.126V5.889
		c0-0.029,0-0.055-0.001-0.074S6.772,5.776,6.769,5.756c0.015,0.002,0.035,0.003,0.059,0.003C6.852,5.76,6.886,5.761,6.93,5.762
		s0.103,0.001,0.173,0.001s0.162,0,0.271,0c0.109,0,0.199,0,0.271,0c0.072,0,0.13,0,0.174-0.001S7.898,5.76,7.922,5.759
		c0.024,0,0.043-0.001,0.059-0.003C7.978,5.777,7.976,5.797,7.975,5.817S7.974,5.861,7.974,5.889v0.897c0,0.044,0,0.086,0.002,0.125
		c0.001,0.04,0.004,0.08,0.007,0.122H7.859v-0.06H6.892V7.044z M7.859,5.86H6.892v1.021h0.967V5.86z M7.407,6.574
		C7.402,6.59,7.4,6.606,7.399,6.62c-0.001,0.013-0.001,0.031,0,0.055c-0.022,0.004-0.051,0.01-0.088,0.019S7.234,6.71,7.193,6.721
		S7.11,6.743,7.069,6.752C7.028,6.763,6.993,6.773,6.962,6.782C6.956,6.76,6.949,6.741,6.942,6.723
		c-0.007-0.018-0.016-0.04-0.026-0.065c0.042-0.002,0.086-0.006,0.133-0.012c0.047-0.005,0.093-0.012,0.137-0.02
		C7.231,6.62,7.273,6.611,7.311,6.601C7.35,6.591,7.381,6.583,7.407,6.574z M7.567,6.443c0.02-0.042,0.036-0.083,0.048-0.124
		c0.012-0.04,0.023-0.084,0.034-0.133c0.007,0.006,0.016,0.011,0.025,0.017c0.01,0.005,0.021,0.011,0.032,0.016
		C7.717,6.224,7.728,6.23,7.738,6.235c0.01,0.005,0.019,0.009,0.027,0.012c0.012,0.005,0.018,0.01,0.019,0.015
		c0,0.004-0.006,0.009-0.02,0.014c-0.004,0.002-0.01,0.01-0.018,0.021c-0.007,0.013-0.017,0.032-0.028,0.06
		C7.712,6.37,7.706,6.384,7.699,6.399C7.692,6.414,7.684,6.428,7.676,6.445C7.667,6.46,7.658,6.478,7.646,6.497
		c-0.011,0.02-0.023,0.04-0.038,0.063C7.633,6.615,7.653,6.657,7.67,6.684C7.686,6.711,7.7,6.727,7.71,6.73
		c0.01,0.004,0.019-0.005,0.024-0.024C7.741,6.685,7.746,6.655,7.75,6.614c0.033,0.035,0.065,0.059,0.096,0.069
		C7.834,6.73,7.821,6.767,7.807,6.793C7.793,6.82,7.778,6.838,7.763,6.849c-0.016,0.01-0.031,0.014-0.048,0.01
		C7.698,6.856,7.682,6.847,7.666,6.834C7.655,6.826,7.645,6.816,7.634,6.806c-0.01-0.01-0.02-0.021-0.029-0.035
		c-0.01-0.014-0.019-0.029-0.029-0.047c-0.009-0.018-0.02-0.038-0.032-0.063c-0.029,0.042-0.058,0.08-0.088,0.113
		c-0.029,0.034-0.06,0.063-0.092,0.09C7.347,6.85,7.33,6.839,7.313,6.831S7.278,6.813,7.255,6.803
		c0.058-0.034,0.106-0.07,0.144-0.107s0.073-0.082,0.104-0.133C7.494,6.541,7.486,6.518,7.479,6.495
		C7.473,6.471,7.466,6.444,7.46,6.413C7.455,6.38,7.448,6.343,7.442,6.299C7.435,6.255,7.429,6.201,7.421,6.137H7.256
		c-0.076,0-0.14,0.001-0.192,0.003C7.011,6.142,6.967,6.144,6.933,6.148V6.034c0.035,0.004,0.079,0.007,0.131,0.008
		c0.052,0.002,0.117,0.003,0.192,0.003h0.155C7.408,6.012,7.406,5.984,7.404,5.958s-0.003-0.05-0.005-0.073
		c0.018,0.003,0.04,0.005,0.065,0.007S7.51,5.895,7.526,5.894C7.541,5.893,7.549,5.895,7.551,5.9S7.549,5.913,7.537,5.922
		C7.525,5.931,7.519,5.952,7.519,5.983v0.062c0.066,0,0.123-0.001,0.17-0.003c0.047-0.001,0.087-0.004,0.119-0.008v0.114
		c-0.031-0.004-0.07-0.006-0.117-0.007C7.645,6.139,7.588,6.138,7.522,6.137C7.525,6.195,7.53,6.25,7.539,6.301
		C7.546,6.353,7.556,6.4,7.567,6.443z M7.364,6.551C7.341,6.55,7.317,6.549,7.29,6.548C7.264,6.547,7.229,6.546,7.185,6.546
		s-0.08,0-0.107,0.001c-0.027,0-0.053,0.002-0.076,0.004c0.001-0.008,0.002-0.019,0.002-0.032s0.001-0.028,0.001-0.044
		s0.001-0.031,0.001-0.047c0-0.017,0-0.03,0-0.044c0-0.013,0-0.027,0-0.043c0-0.017-0.001-0.032-0.001-0.047
		S7.004,6.265,7.004,6.251S7.002,6.227,7.001,6.218C7.024,6.22,7.05,6.221,7.077,6.222c0.028,0,0.063,0,0.107,0s0.079,0,0.105,0
		C7.317,6.221,7.341,6.22,7.364,6.218C7.362,6.24,7.361,6.265,7.36,6.294s-0.001,0.059-0.001,0.09s0,0.063,0.001,0.093
		C7.361,6.508,7.362,6.533,7.364,6.551z M7.266,6.305H7.104v0.154h0.162V6.305z M7.655,6.025C7.645,6.005,7.634,5.99,7.623,5.976
		c-0.01-0.013-0.024-0.029-0.041-0.049l0.105-0.048c0.014,0.017,0.026,0.032,0.037,0.045c0.011,0.014,0.022,0.03,0.034,0.051
		L7.655,6.025z"/>
	<path fill="#FFFFFF" d="M8.48,6.212c0.047,0.06,0.081,0.116,0.101,0.168c0.021,0.053,0.031,0.104,0.031,0.155
		c0,0.028-0.003,0.054-0.011,0.076c-0.007,0.022-0.02,0.043-0.037,0.061C8.547,6.691,8.525,6.707,8.496,6.72
		C8.468,6.733,8.433,6.745,8.391,6.755C8.39,6.73,8.387,6.708,8.381,6.688c-0.005-0.02-0.015-0.044-0.03-0.074
		c0.032,0.003,0.058,0.004,0.077,0.002S8.463,6.608,8.474,6.6c0.011-0.009,0.018-0.02,0.021-0.033S8.5,6.537,8.5,6.516
		c0-0.048-0.011-0.098-0.032-0.15s-0.049-0.1-0.085-0.142L8.483,5.87H8.339v1.166H8.215C8.218,6.995,8.221,6.959,8.223,6.93
		C8.225,6.9,8.226,6.873,8.227,6.848c0.001-0.025,0.001-0.05,0.002-0.073c0-0.024,0-0.052,0-0.083V5.914c0-0.028,0-0.056,0-0.083
		C8.229,5.803,8.228,5.782,8.226,5.768C8.239,5.769,8.253,5.77,8.266,5.77c0.013,0.001,0.027,0.001,0.041,0.002
		c0.015,0,0.031,0.001,0.05,0.001c0.018,0,0.041,0,0.066,0c0.026,0,0.049,0,0.068,0c0.019,0,0.036-0.001,0.051-0.001
		C8.557,5.771,8.571,5.771,8.585,5.77c0.013,0,0.027-0.001,0.041-0.002L8.48,6.212z M8.863,6.73
		c0.008,0.004,0.012,0.008,0.011,0.013C8.873,6.747,8.866,6.75,8.854,6.753C8.846,6.755,8.837,6.76,8.826,6.768
		c-0.01,0.007-0.02,0.016-0.028,0.024C8.785,6.807,8.771,6.821,8.758,6.833C8.745,6.846,8.732,6.859,8.719,6.872
		C8.706,6.883,8.692,6.897,8.677,6.911C8.662,6.923,8.645,6.939,8.626,6.955c-0.031-0.025-0.071-0.046-0.12-0.063
		C8.561,6.863,8.609,6.828,8.65,6.788s0.078-0.085,0.109-0.135c0.015,0.015,0.032,0.028,0.051,0.043S8.847,6.721,8.863,6.73z
		 M8.924,5.827c0.022,0,0.044,0,0.067-0.001c0.022,0,0.045-0.001,0.068-0.002C9.053,5.874,9.045,5.92,9.036,5.964
		C9.028,6.008,9.017,6.05,9.004,6.089c-0.013,0.04-0.029,0.078-0.048,0.113C8.937,6.239,8.914,6.275,8.887,6.309
		c0.022,0.002,0.045,0.004,0.071,0.006c0.026,0.001,0.058,0.002,0.096,0.002c0.038,0,0.07-0.001,0.098-0.002
		c0.027-0.002,0.052-0.004,0.073-0.007C9.2,6.275,9.178,6.241,9.161,6.204C9.143,6.167,9.129,6.128,9.117,6.087
		C9.106,6.046,9.097,6.002,9.089,5.957C9.083,5.91,9.077,5.86,9.073,5.807C9.102,5.809,9.132,5.81,9.165,5.811
		c0.032,0,0.064,0,0.096,0c0.037,0,0.074,0,0.11,0C9.407,5.81,9.44,5.809,9.469,5.807C9.462,5.84,9.453,5.875,9.442,5.913
		C9.431,5.951,9.418,5.988,9.403,6.025c-0.015,0.038-0.031,0.074-0.049,0.11S9.316,6.205,9.295,6.236
		C9.325,6.271,9.359,6.3,9.397,6.324S9.48,6.367,9.534,6.381C9.509,6.389,9.488,6.403,9.468,6.422S9.434,6.466,9.424,6.494
		C9.382,6.465,9.345,6.435,9.312,6.406C9.28,6.375,9.251,6.344,9.228,6.312v0.103C9.206,6.411,9.181,6.408,9.153,6.407
		s-0.061-0.001-0.1-0.001c-0.04,0-0.074,0-0.102,0.001C8.923,6.408,8.899,6.411,8.878,6.415V6.322
		C8.853,6.35,8.825,6.379,8.795,6.41C8.764,6.439,8.729,6.469,8.688,6.5C8.676,6.483,8.665,6.468,8.652,6.457
		C8.64,6.445,8.622,6.432,8.599,6.419c0.031-0.015,0.06-0.03,0.087-0.047s0.052-0.037,0.075-0.061
		C8.748,6.298,8.735,6.287,8.722,6.277c-0.013-0.011-0.028-0.021-0.043-0.03l0.063-0.093c0.01,0.012,0.022,0.025,0.038,0.039
		c0.016,0.015,0.032,0.028,0.049,0.04c0.016-0.022,0.031-0.05,0.045-0.079C8.859,6.138,8.845,6.126,8.831,6.117
		c-0.014-0.01-0.034-0.02-0.059-0.029l0.063-0.096c0.025,0.021,0.052,0.042,0.08,0.06c0.007-0.02,0.013-0.041,0.019-0.063
		c0.006-0.022,0.011-0.045,0.016-0.069H8.805c-0.02,0.049-0.043,0.099-0.07,0.149C8.708,6.12,8.676,6.173,8.64,6.23
		c-0.03-0.021-0.065-0.034-0.106-0.04c0.028-0.029,0.054-0.063,0.079-0.103s0.046-0.081,0.065-0.125
		c0.019-0.045,0.036-0.091,0.05-0.138C8.741,5.777,8.751,5.73,8.759,5.682c0.049,0.025,0.093,0.039,0.132,0.041
		c0.01,0.001,0.016,0.003,0.017,0.008C8.91,5.735,8.907,5.739,8.897,5.744C8.887,5.75,8.877,5.759,8.87,5.772
		c-0.007,0.013-0.017,0.03-0.028,0.055H8.924z M9.106,6.879c0,0.029-0.002,0.053-0.005,0.072C9.097,6.97,9.089,6.986,9.075,6.999
		s-0.034,0.022-0.061,0.03C8.987,7.037,8.951,7.043,8.905,7.05C8.904,7.034,8.903,7.019,8.901,7.007
		C8.9,6.997,8.897,6.986,8.892,6.975c-0.004-0.01-0.01-0.02-0.018-0.03C8.867,6.934,8.857,6.921,8.845,6.907
		c0.03,0.006,0.054,0.009,0.073,0.011c0.019,0.001,0.034-0.001,0.043-0.004c0.01-0.004,0.017-0.01,0.021-0.018
		c0.003-0.008,0.005-0.018,0.005-0.028V6.599C8.928,6.6,8.876,6.601,8.832,6.603C8.789,6.604,8.75,6.607,8.714,6.61V6.499
		c0.042,0.004,0.09,0.007,0.144,0.008c0.053,0.002,0.119,0.003,0.196,0.003c0.077,0,0.142-0.001,0.195-0.003
		C9.303,6.505,9.35,6.502,9.391,6.499V6.61C9.355,6.607,9.314,6.604,9.269,6.603C9.223,6.601,9.169,6.6,9.106,6.599V6.879z
		 M9.393,6.963C9.339,6.882,9.267,6.808,9.173,6.74l0.08-0.082c0.018,0.018,0.038,0.036,0.059,0.056s0.042,0.039,0.064,0.059
		C9.398,6.791,9.42,6.809,9.441,6.827c0.021,0.019,0.042,0.035,0.061,0.05L9.393,6.963z M9.235,6.144
		c0.037-0.057,0.071-0.135,0.101-0.233H9.175C9.183,5.957,9.192,6,9.202,6.041C9.212,6.081,9.223,6.116,9.235,6.144z"/>
	<path fill="#FFFFFF" d="M10.217,6.065c0.057-0.001,0.107-0.002,0.149-0.004c0.042-0.001,0.081-0.004,0.116-0.007v0.12
		c-0.038-0.003-0.079-0.006-0.124-0.008c-0.044-0.003-0.098-0.005-0.16-0.007c-0.002,0.006-0.004,0.012-0.005,0.018
		s-0.003,0.012-0.005,0.017c0.022,0.01,0.045,0.021,0.07,0.034c0.025,0.014,0.05,0.026,0.075,0.04s0.048,0.027,0.07,0.041
		c0.022,0.013,0.041,0.025,0.056,0.035l-0.075,0.088c-0.036-0.03-0.073-0.059-0.11-0.084c-0.037-0.024-0.08-0.05-0.127-0.076
		c-0.029,0.045-0.068,0.087-0.118,0.127C9.981,6.438,9.921,6.477,9.85,6.516C9.838,6.5,9.824,6.483,9.808,6.467
		C9.792,6.453,9.774,6.438,9.754,6.423c0.097-0.039,0.172-0.08,0.224-0.124c0.053-0.044,0.087-0.091,0.104-0.14
		c-0.074,0.001-0.137,0.003-0.189,0.006C9.841,6.168,9.794,6.171,9.752,6.174V6.056c0.045,0.003,0.095,0.005,0.148,0.007
		c0.054,0.001,0.12,0.002,0.198,0.002c0.002-0.02,0.003-0.041,0.005-0.063c0.001-0.022,0.002-0.049,0.003-0.079h-0.15
		c-0.015,0.023-0.029,0.043-0.042,0.06S9.891,6.014,9.878,6.029C9.87,6.018,9.854,6.006,9.834,5.994
		c-0.021-0.013-0.04-0.021-0.057-0.026c0.051-0.048,0.091-0.097,0.121-0.146C9.928,5.77,9.951,5.717,9.967,5.66
		c0.018,0.012,0.04,0.021,0.065,0.031c0.025,0.01,0.048,0.017,0.07,0.021c0.011,0.002,0.017,0.005,0.017,0.01
		s-0.007,0.009-0.021,0.012c-0.007,0.002-0.017,0.009-0.029,0.021c-0.013,0.013-0.029,0.037-0.049,0.072h0.204
		c0.045,0,0.087-0.001,0.126-0.003s0.07-0.004,0.093-0.007v0.109c-0.024-0.002-0.055-0.004-0.093-0.006
		c-0.038-0.001-0.079-0.001-0.122,0.001c-0.002,0.032-0.004,0.06-0.005,0.082S10.22,6.047,10.217,6.065z M10.111,6.962v0.091H9.978
		c0.005-0.033,0.008-0.062,0.01-0.088C9.99,6.94,9.991,6.911,9.991,6.876V6.566c0-0.026,0-0.049-0.001-0.067
		S9.988,6.461,9.986,6.445c0.012,0.001,0.033,0.002,0.063,0.003c0.03,0.001,0.065,0.002,0.104,0.002
		c0.04,0.001,0.082,0.001,0.126,0.002c0.045,0,0.089,0,0.131,0c0.043,0,0.087,0,0.132,0c0.045-0.001,0.087-0.001,0.126-0.002
		c0.039,0,0.073-0.001,0.101-0.002c0.029-0.001,0.048-0.002,0.06-0.003c-0.002,0.014-0.003,0.03-0.004,0.049
		c-0.001,0.02-0.001,0.043-0.001,0.072v0.311c0,0.034,0.001,0.064,0.003,0.092c0.002,0.028,0.005,0.057,0.01,0.085h-0.14V6.962
		H10.111z M10.697,6.656V6.549h-0.586v0.106H10.697z M10.697,6.866V6.749h-0.586v0.117H10.697z M10.998,6.364
		c-0.015-0.001-0.029-0.002-0.042-0.003c-0.013-0.001-0.028-0.002-0.044-0.003c-0.017,0-0.037,0-0.06,0s-0.053,0-0.089,0
		c-0.036,0-0.066,0-0.089,0s-0.042,0-0.058,0c-0.016,0.001-0.031,0.002-0.044,0.003s-0.029,0.002-0.046,0.004
		c0.003-0.028,0.005-0.068,0.007-0.117c0.001-0.05,0.002-0.103,0.002-0.157c0-0.054-0.001-0.105-0.002-0.153
		c-0.001-0.049-0.004-0.088-0.007-0.116c0.012,0.002,0.024,0.003,0.037,0.004c0.013,0.001,0.028,0.002,0.045,0.003
		c0.017,0.001,0.038,0.002,0.063,0.002c0.024,0,0.055,0,0.092,0c0.036,0,0.066,0,0.091-0.001c0.025,0,0.046-0.001,0.064-0.001
		c0.017-0.001,0.032-0.002,0.044-0.003c0.012-0.001,0.024-0.002,0.036-0.004c-0.002,0.029-0.003,0.068-0.004,0.116
		c-0.001,0.049-0.001,0.1-0.001,0.153c0,0.055,0,0.107,0.001,0.157C10.994,6.296,10.996,6.335,10.998,6.364z M10.872,5.939h-0.216
		v0.313h0.216V5.939z"/>
	<path fill="#FFFFFF" d="M12.332,6.527c0,0.029,0.001,0.057,0.004,0.083c0.002,0.027,0.004,0.052,0.007,0.074
		c-0.028-0.002-0.058-0.003-0.088-0.005c-0.029-0.001-0.063-0.002-0.099-0.003c-0.037-0.001-0.078-0.001-0.123-0.002
		c-0.047,0-0.1,0-0.161,0c-0.072,0-0.136,0-0.188,0c-0.055,0.001-0.102,0.002-0.143,0.004c-0.041,0.001-0.078,0.003-0.109,0.005
		s-0.061,0.004-0.086,0.006V6.584c0.053,0.005,0.104,0.008,0.152,0.01s0.105,0.003,0.168,0.003h0.56V6.526h-0.618
		c-0.039,0-0.078,0-0.118,0c-0.04,0.001-0.077,0.002-0.114,0.003c-0.035,0.001-0.068,0.002-0.099,0.003
		c-0.03,0.001-0.054,0.002-0.072,0.003V6.432c0.019,0.002,0.043,0.004,0.073,0.005c0.03,0.001,0.063,0.002,0.099,0.002
		c0.036,0.001,0.074,0.001,0.113,0.002c0.039,0,0.078,0.001,0.117,0.001h0.618V6.374h-0.633c-0.048,0-0.092,0.002-0.132,0.004
		s-0.078,0.005-0.112,0.009V6.281c0.071,0.009,0.153,0.014,0.246,0.014h0.493c0.044,0,0.089-0.001,0.135-0.004
		c0.045-0.002,0.085-0.006,0.12-0.01c-0.003,0.023-0.005,0.048-0.007,0.075c-0.003,0.027-0.004,0.055-0.004,0.084
		c0.046-0.001,0.087-0.002,0.123-0.003c0.037-0.001,0.067-0.003,0.091-0.005v0.103c-0.022-0.002-0.052-0.004-0.09-0.005
		C12.419,6.529,12.378,6.528,12.332,6.527z M11.525,5.894c-0.054,0-0.102,0.001-0.145,0.003s-0.078,0.005-0.107,0.009V5.807
		c0.03,0.005,0.066,0.008,0.107,0.01c0.041,0.001,0.09,0.002,0.143,0.002c-0.002-0.043-0.007-0.079-0.013-0.107
		c0.021,0.002,0.04,0.003,0.06,0.004c0.018,0.001,0.037,0.001,0.056-0.001c0.031-0.003,0.034,0.008,0.011,0.032
		c-0.008,0.009-0.014,0.018-0.016,0.026c-0.002,0.01-0.002,0.025-0.002,0.046c0.039-0.001,0.074-0.002,0.105-0.004
		c0.031-0.001,0.059-0.004,0.082-0.008v0.099c-0.023-0.003-0.051-0.005-0.082-0.007c-0.031-0.001-0.066-0.002-0.105-0.004v0.077
		c0.043-0.001,0.08-0.002,0.107-0.004c0.029-0.002,0.057-0.004,0.082-0.008v0.099c-0.025-0.003-0.053-0.006-0.082-0.008
		c-0.027-0.002-0.064-0.003-0.107-0.004v0.077c0.041-0.003,0.082-0.006,0.12-0.009c0.038-0.004,0.075-0.008,0.11-0.014
		c-0.008,0.018-0.014,0.033-0.016,0.048c-0.003,0.015-0.004,0.03-0.002,0.047c-0.041,0.002-0.078,0.004-0.113,0.006
		s-0.068,0.004-0.1,0.007v0.07h-0.094V6.215c-0.057,0.004-0.109,0.008-0.156,0.012s-0.094,0.009-0.142,0.015
		c0.001-0.02,0-0.038-0.001-0.056c-0.002-0.017-0.007-0.034-0.015-0.054c0.048,0.002,0.099,0.003,0.153,0.002
		c0.055,0,0.108-0.001,0.162-0.003V6.047c-0.045,0.001-0.083,0.002-0.115,0.004c-0.031,0.002-0.06,0.005-0.086,0.008V5.96
		c0.027,0.004,0.057,0.006,0.088,0.008c0.03,0.002,0.068,0.003,0.113,0.004V5.894z M11.467,6.782
		c-0.027,0.045-0.051,0.086-0.07,0.122s-0.04,0.073-0.061,0.113l-0.124-0.043c0.029-0.035,0.054-0.071,0.076-0.108
		c0.021-0.038,0.041-0.081,0.056-0.129L11.467,6.782z M12.206,6.845c-0.016,0.039-0.03,0.069-0.042,0.091
		c-0.013,0.021-0.03,0.037-0.053,0.048S12.059,7,12.02,7.003c-0.038,0.002-0.091,0.004-0.158,0.004
		c-0.072,0-0.127-0.001-0.167-0.003s-0.069-0.007-0.089-0.013c-0.02-0.007-0.031-0.017-0.035-0.03s-0.006-0.032-0.006-0.055V6.82
		c0-0.032-0.004-0.061-0.01-0.084c0.023,0.005,0.045,0.008,0.066,0.009c0.02,0.001,0.041,0,0.061-0.002
		c0.023-0.003,0.025,0.005,0.004,0.022c-0.006,0.006-0.009,0.019-0.009,0.041v0.068c0,0.009,0.001,0.015,0.004,0.02
		c0.003,0.006,0.01,0.01,0.022,0.013c0.012,0.003,0.029,0.005,0.055,0.007c0.023,0.001,0.059,0.002,0.102,0.002
		c0.045,0,0.082-0.002,0.107-0.005c0.027-0.004,0.048-0.011,0.063-0.02c0.016-0.01,0.026-0.023,0.033-0.041s0.014-0.041,0.02-0.069
		c0.02,0.017,0.037,0.03,0.056,0.04C12.155,6.831,12.179,6.839,12.206,6.845z M11.859,6.865c-0.02-0.042-0.043-0.078-0.071-0.108
		l0.108-0.059c0.014,0.021,0.027,0.038,0.039,0.055c0.013,0.017,0.027,0.035,0.043,0.055L11.859,6.865z M12.085,5.882
		c-0.044,0.001-0.083,0.002-0.119,0.004C11.93,5.887,11.9,5.889,11.877,5.892V5.796c0.024,0.004,0.055,0.007,0.09,0.009
		c0.036,0.001,0.074,0.002,0.117,0.003c-0.002-0.022-0.003-0.043-0.004-0.061c-0.002-0.018-0.004-0.035-0.009-0.053
		c0.021,0.003,0.04,0.005,0.056,0.005c0.016,0.001,0.035,0,0.057-0.002c0.031-0.003,0.035,0.008,0.011,0.033
		c-0.004,0.004-0.007,0.007-0.009,0.011s-0.004,0.008-0.005,0.014c-0.002,0.006-0.003,0.013-0.003,0.021
		c-0.001,0.009-0.001,0.02-0.001,0.032c0.055,0,0.105,0,0.152-0.002c0.046-0.001,0.084-0.005,0.113-0.01v0.096
		c-0.029-0.004-0.067-0.006-0.113-0.008s-0.097-0.002-0.152-0.002V5.96c0.051,0,0.093-0.001,0.127-0.003
		c0.033-0.001,0.064-0.005,0.094-0.01v0.093c-0.029-0.004-0.061-0.007-0.094-0.009c-0.034-0.002-0.076-0.003-0.127-0.003v0.089
		c0.061,0,0.117-0.001,0.168-0.004s0.094-0.006,0.127-0.01v0.098c-0.065-0.006-0.164-0.009-0.295-0.009v0.082h-0.092V6.193
		c-0.043,0-0.083,0-0.12,0.002c-0.038,0.001-0.069,0.004-0.094,0.007V6.106c0.025,0.003,0.057,0.005,0.095,0.007
		s0.077,0.003,0.119,0.003V6.029c-0.042,0.001-0.079,0.003-0.109,0.005c-0.031,0.002-0.06,0.004-0.084,0.007V5.948
		c0.026,0.004,0.054,0.007,0.085,0.009c0.031,0.001,0.067,0.003,0.108,0.004V5.882z M12.404,6.988
		c-0.024-0.035-0.056-0.07-0.092-0.106c-0.037-0.035-0.076-0.066-0.118-0.094l0.087-0.071c0.018,0.014,0.035,0.028,0.055,0.044
		s0.04,0.031,0.061,0.047c0.021,0.017,0.04,0.031,0.059,0.046c0.02,0.015,0.037,0.028,0.053,0.04L12.404,6.988z"/>
	<path fill="#FFFFFF" d="M12.859,6.316c-0.012,0.024-0.022,0.049-0.034,0.072s-0.022,0.046-0.034,0.066
		c-0.017-0.015-0.033-0.026-0.051-0.035c-0.017-0.01-0.035-0.017-0.056-0.021c0.033-0.039,0.063-0.086,0.089-0.141
		c0.026-0.054,0.048-0.111,0.066-0.172c0.018-0.061,0.032-0.122,0.042-0.185c0.011-0.063,0.018-0.121,0.021-0.177
		c0.026,0.01,0.051,0.017,0.073,0.022c0.022,0.007,0.045,0.012,0.068,0.017c0.022,0.005,0.022,0.015,0,0.029
		c-0.004,0.002-0.007,0.005-0.01,0.01s-0.007,0.015-0.013,0.028c-0.005,0.013-0.012,0.033-0.02,0.059
		c-0.009,0.026-0.019,0.062-0.03,0.106v1.054h-0.126c0.005-0.044,0.008-0.096,0.011-0.155c0.002-0.06,0.003-0.117,0.003-0.172V6.316
		z M13.234,6.037c-0.019,0-0.037,0-0.055,0.001c-0.019,0-0.037,0.001-0.055,0.001c-0.018,0.001-0.033,0.001-0.048,0.002
		c-0.015,0.002-0.026,0.003-0.037,0.004V5.931c0.011,0.001,0.022,0.002,0.037,0.003s0.03,0.002,0.048,0.003
		c0.018,0,0.036,0.001,0.055,0.001c0.018,0.001,0.036,0.001,0.055,0.001c0.034,0,0.071-0.001,0.108-0.002
		c0.037-0.002,0.065-0.004,0.085-0.006v0.113c-0.021-0.002-0.049-0.004-0.086-0.006C13.305,6.038,13.269,6.037,13.234,6.037z
		 M13.244,6.232c-0.03,0-0.063,0-0.095,0.002c-0.032,0.001-0.058,0.003-0.074,0.005V6.125c0.017,0.003,0.042,0.004,0.074,0.006
		c0.032,0.001,0.064,0.002,0.095,0.002c0.016,0,0.031,0,0.048-0.001c0.017,0,0.032-0.001,0.048-0.001
		c0.016-0.001,0.03-0.001,0.043-0.002c0.014-0.001,0.024-0.002,0.032-0.004v0.114c-0.009-0.001-0.02-0.002-0.032-0.003
		c-0.014-0.001-0.027-0.002-0.043-0.002c-0.016-0.001-0.031-0.001-0.048-0.002C13.275,6.232,13.26,6.232,13.244,6.232z
		 M13.251,6.423c-0.016,0-0.031,0-0.049,0.001c-0.017,0-0.033,0.001-0.049,0.001c-0.017,0.001-0.031,0.002-0.044,0.003
		s-0.023,0.002-0.033,0.003V6.319c0.01,0.001,0.021,0.002,0.033,0.003s0.027,0.002,0.044,0.002c0.016,0.001,0.032,0.001,0.049,0.002
		c0.018,0,0.033,0,0.049,0c0.015,0,0.03,0,0.048,0c0.017-0.001,0.033-0.001,0.049-0.002c0.017,0,0.031-0.001,0.045-0.002
		c0.013-0.001,0.024-0.002,0.033-0.003v0.112c-0.018-0.002-0.044-0.004-0.078-0.006C13.313,6.424,13.28,6.423,13.251,6.423z
		 M13.661,6.914V7.04h-0.113c0.003-0.022,0.005-0.046,0.006-0.07c0.001-0.023,0.001-0.05,0.001-0.079V6.548
		c-0.01,0.01-0.02,0.02-0.03,0.029c-0.011,0.009-0.021,0.02-0.032,0.03c-0.011-0.023-0.027-0.044-0.048-0.06
		c-0.001,0.011-0.002,0.022-0.002,0.036s0,0.03,0,0.051v0.152c0,0.034,0,0.066,0.001,0.097c0,0.029,0.002,0.061,0.004,0.093h-0.112
		V6.884h-0.142v0.12h-0.112c0.002-0.035,0.004-0.067,0.005-0.096s0.001-0.06,0.001-0.094v-0.18c0-0.027,0-0.049-0.001-0.064
		c0-0.017-0.001-0.033-0.004-0.05c0.015,0.002,0.037,0.004,0.068,0.005c0.032,0.001,0.07,0.001,0.115,0.001
		c0.034,0,0.064,0,0.092-0.001c0.027,0,0.05-0.001,0.067-0.003c0.049-0.035,0.096-0.074,0.14-0.117
		c0.045-0.042,0.086-0.087,0.124-0.136c-0.033,0-0.062,0-0.085,0s-0.044,0.001-0.063,0.002s-0.036,0.002-0.051,0.003
		c-0.016,0.001-0.032,0.002-0.048,0.003V6.173c0.023,0.002,0.05,0.003,0.08,0.004c0.031,0.001,0.065,0.002,0.104,0.002V6.018
		c-0.032,0-0.063,0.001-0.091,0.003c-0.029,0.001-0.051,0.003-0.067,0.005V5.922c0.013,0.002,0.034,0.004,0.065,0.006
		c0.031,0.001,0.063,0.002,0.093,0.002c0-0.037,0-0.068,0-0.093c0-0.025-0.001-0.046-0.001-0.062
		c-0.001-0.017-0.002-0.029-0.003-0.039c-0.001-0.009-0.002-0.018-0.003-0.025c0.023,0.003,0.045,0.005,0.066,0.006
		c0.021,0.001,0.04,0.001,0.057,0c0.014-0.001,0.021,0.001,0.022,0.007c0.001,0.005-0.003,0.012-0.012,0.019
		c-0.012,0.009-0.018,0.024-0.018,0.048v0.138c0.025-0.001,0.05-0.001,0.073-0.002c0.022-0.001,0.04-0.002,0.053-0.004V5.99
		c0.024-0.055,0.043-0.11,0.055-0.166c0.018,0.012,0.034,0.021,0.051,0.029c0.017,0.007,0.036,0.014,0.06,0.02
		c0.024,0.008,0.025,0.017,0.003,0.027c-0.006,0.003-0.013,0.01-0.02,0.019c-0.007,0.01-0.018,0.026-0.03,0.049
		c-0.042,0.081-0.082,0.151-0.12,0.212c0.042,0,0.079-0.001,0.111-0.002s0.062-0.002,0.09-0.004v0.104
		c-0.016-0.001-0.032-0.002-0.05-0.003c-0.017-0.001-0.035-0.002-0.056-0.003c-0.02-0.001-0.042-0.002-0.067-0.002
		c-0.026,0-0.056,0-0.088,0c-0.015,0.021-0.028,0.041-0.044,0.061c-0.015,0.019-0.031,0.038-0.048,0.057h0.138
		c0.025,0,0.05,0,0.075-0.002s0.044-0.003,0.057-0.005c-0.002,0.014-0.003,0.031-0.003,0.053c-0.001,0.021-0.001,0.052-0.001,0.09
		v0.356c0,0.023,0,0.048,0.001,0.076c0.001,0.027,0.003,0.053,0.005,0.075h-0.117V6.914H13.661z M13.238,5.718
		c0.026,0.031,0.047,0.059,0.063,0.081c0.016,0.023,0.033,0.051,0.051,0.084l-0.112,0.05c-0.01-0.025-0.025-0.053-0.045-0.082
		c-0.021-0.029-0.043-0.056-0.067-0.078L13.238,5.718z M13.335,6.797V6.622h-0.142v0.176H13.335z M13.862,6.602V6.479h-0.201v0.123
		H13.862z M13.661,6.695v0.126h0.201V6.695H13.661z M13.755,6.179c0.018-0.026,0.034-0.052,0.049-0.077
		c0.016-0.025,0.028-0.052,0.041-0.077c-0.015-0.001-0.03-0.002-0.05-0.003c-0.019,0-0.039-0.001-0.06-0.002v0.159H13.755z"/>
	<path fill="#FFFFFF" d="M14.731,6.056C14.716,6.03,14.7,6.004,14.685,5.98s-0.03-0.045-0.044-0.062l0.092-0.049
		c0.036,0.046,0.068,0.091,0.099,0.134c0.029,0.043,0.057,0.087,0.083,0.131l-0.108,0.063c-0.003-0.008-0.007-0.018-0.013-0.029
		c-0.005-0.011-0.012-0.024-0.02-0.038l-0.347,0.03c-0.021,0.002-0.037,0.004-0.051,0.005c-0.014,0.002-0.025,0.004-0.036,0.006
		c-0.01,0.003-0.021,0.006-0.029,0.009c-0.01,0.003-0.021,0.006-0.031,0.011c-0.005-0.021-0.01-0.043-0.016-0.065
		s-0.012-0.044-0.019-0.063h0.062c0.018-0.022,0.037-0.049,0.057-0.081c0.021-0.032,0.04-0.064,0.059-0.098
		c0.02-0.033,0.036-0.064,0.051-0.095c0.016-0.029,0.026-0.054,0.035-0.073c0.025,0.015,0.049,0.025,0.068,0.033
		c0.021,0.008,0.039,0.014,0.058,0.018c0.031,0.007,0.031,0.02,0,0.041c-0.01,0.006-0.021,0.014-0.034,0.024
		s-0.028,0.028-0.044,0.054c-0.02,0.028-0.039,0.059-0.061,0.088c-0.021,0.03-0.044,0.06-0.065,0.087L14.731,6.056z M14.424,7.022
		h-0.128c0.003-0.027,0.005-0.05,0.007-0.069c0.002-0.019,0.003-0.037,0.003-0.054c0.001-0.017,0.001-0.034,0.002-0.052
		c0-0.018,0-0.038,0-0.061v-0.4c0-0.028,0-0.054-0.002-0.075c-0.001-0.022-0.004-0.043-0.008-0.063
		c0.017,0.003,0.033,0.004,0.051,0.006c0.017,0.001,0.035,0.003,0.056,0.004c0.02,0.001,0.043,0.001,0.068,0.002
		c0.026,0,0.058,0.001,0.094,0.001c0.035,0,0.067-0.001,0.094-0.001c0.027-0.001,0.051-0.001,0.071-0.002s0.039-0.003,0.056-0.004
		c0.017-0.002,0.033-0.003,0.049-0.006c-0.004,0.021-0.007,0.041-0.008,0.063c-0.002,0.021-0.003,0.047-0.003,0.075v0.521
		c0,0.021-0.002,0.04-0.007,0.055c-0.006,0.015-0.015,0.026-0.029,0.036c-0.015,0.009-0.035,0.017-0.062,0.021
		s-0.062,0.01-0.104,0.014c-0.003-0.046-0.02-0.09-0.048-0.132c0.05,0.009,0.085,0.011,0.104,0.006
		c0.021-0.005,0.03-0.02,0.03-0.042V6.761h-0.286V7.022z M14.71,6.471V6.355h-0.286v0.116H14.71z M14.424,6.555v0.119h0.286V6.555
		H14.424z M15.073,6.603c0.06-0.024,0.114-0.051,0.164-0.078s0.09-0.054,0.122-0.079c0.014,0.022,0.028,0.041,0.042,0.057
		s0.028,0.03,0.044,0.044c0.009,0.008,0.012,0.015,0.009,0.021c-0.003,0.005-0.01,0.007-0.021,0.005
		c-0.008-0.002-0.041,0.007-0.1,0.027c-0.059,0.02-0.146,0.054-0.26,0.101v0.151c0,0.009,0.001,0.017,0.004,0.023
		c0.002,0.006,0.009,0.012,0.019,0.016s0.025,0.007,0.046,0.008c0.021,0.002,0.051,0.003,0.087,0.003
		c0.025,0,0.047-0.003,0.064-0.007c0.018-0.005,0.032-0.014,0.044-0.025c0.012-0.013,0.021-0.03,0.028-0.052
		c0.007-0.022,0.013-0.051,0.016-0.084c0.018,0.025,0.037,0.045,0.059,0.058c0.021,0.014,0.043,0.022,0.065,0.027
		c-0.012,0.043-0.023,0.077-0.034,0.103c-0.011,0.024-0.026,0.043-0.045,0.056C15.408,6.989,15.383,6.997,15.353,7
		c-0.03,0.003-0.071,0.005-0.122,0.005c-0.063,0-0.112-0.001-0.147-0.004C15.047,7,15.021,6.994,15.003,6.984
		s-0.028-0.024-0.032-0.044s-0.006-0.046-0.006-0.078V6.521c0-0.067-0.004-0.122-0.012-0.165c0.047,0.008,0.094,0.011,0.14,0.009
		c0.014,0,0.021,0.003,0.023,0.008s-0.004,0.013-0.018,0.024c-0.009,0.007-0.016,0.014-0.02,0.02
		c-0.004,0.007-0.006,0.016-0.006,0.028V6.603z M15.087,5.975c0.054-0.021,0.105-0.046,0.156-0.075s0.091-0.057,0.121-0.082
		c0.014,0.021,0.029,0.04,0.046,0.057c0.016,0.017,0.032,0.031,0.047,0.044c0.009,0.008,0.012,0.015,0.01,0.021
		c-0.003,0.006-0.012,0.008-0.026,0.006c-0.006-0.001-0.017,0-0.032,0.004s-0.037,0.01-0.064,0.019s-0.063,0.021-0.104,0.038
		c-0.042,0.016-0.093,0.035-0.152,0.06v0.081c0,0.009,0.001,0.018,0.004,0.024c0.003,0.008,0.01,0.014,0.021,0.02
		c0.011,0.005,0.026,0.009,0.047,0.011c0.021,0.003,0.05,0.004,0.086,0.004c0.024,0,0.046-0.002,0.063-0.005
		c0.016-0.003,0.029-0.009,0.039-0.02c0.011-0.01,0.019-0.024,0.024-0.043c0.006-0.02,0.012-0.045,0.017-0.078
		c0.013,0.02,0.03,0.037,0.052,0.05c0.021,0.014,0.044,0.023,0.066,0.028c-0.013,0.039-0.025,0.069-0.037,0.091
		c-0.011,0.022-0.025,0.039-0.043,0.049c-0.018,0.011-0.04,0.018-0.068,0.02s-0.065,0.003-0.111,0.003
		c-0.063,0-0.112-0.002-0.147-0.004c-0.035-0.003-0.062-0.009-0.079-0.019c-0.018-0.009-0.028-0.023-0.033-0.042
		c-0.005-0.02-0.007-0.045-0.007-0.078V5.894c0-0.069-0.004-0.124-0.011-0.165c0.047,0.008,0.093,0.011,0.139,0.009
		c0.014,0,0.021,0.003,0.023,0.008s-0.004,0.013-0.018,0.023c-0.018,0.014-0.025,0.029-0.025,0.049V5.975z"/>
	<path fill="#FFFFFF" d="M16.483,5.815c0.082,0,0.152-0.001,0.213-0.001c0.06-0.001,0.11-0.001,0.152-0.002
		c0.042,0,0.076-0.001,0.101-0.003c0.025-0.001,0.044-0.003,0.058-0.005v0.117c-0.015-0.001-0.034-0.003-0.06-0.004
		c-0.025-0.002-0.056-0.003-0.089-0.004c-0.034-0.001-0.072-0.002-0.113-0.002c-0.041-0.001-0.084-0.001-0.129-0.001h-0.689
		c0.002,0.119,0.003,0.223,0.004,0.313c0,0.09-0.001,0.168-0.003,0.236c-0.003,0.068-0.007,0.128-0.014,0.18
		C15.908,6.69,15.9,6.738,15.892,6.781c-0.01,0.043-0.021,0.084-0.036,0.123s-0.031,0.08-0.051,0.124
		c-0.018-0.022-0.035-0.041-0.051-0.053c-0.016-0.013-0.034-0.024-0.056-0.034c0.028-0.038,0.052-0.086,0.071-0.144
		c0.02-0.057,0.032-0.128,0.037-0.212c0.007-0.099,0.011-0.211,0.011-0.337c0-0.125-0.004-0.273-0.013-0.444
		c0.015,0.002,0.034,0.004,0.061,0.005c0.025,0.002,0.061,0.003,0.104,0.003c0.043,0.001,0.097,0.001,0.159,0.002
		c0.063,0,0.138,0.001,0.225,0.001c-0.006-0.015-0.013-0.028-0.02-0.041c-0.008-0.013-0.018-0.029-0.031-0.048l0.137-0.039
		c0.01,0.027,0.019,0.05,0.024,0.068C16.471,5.774,16.477,5.793,16.483,5.815z M16.079,6.289c-0.016,0.022-0.03,0.043-0.044,0.062
		c-0.014,0.018-0.027,0.037-0.043,0.057c-0.008-0.018-0.016-0.033-0.023-0.047s-0.019-0.028-0.032-0.044
		c0.057-0.068,0.103-0.134,0.138-0.197s0.063-0.126,0.083-0.186c0.021,0.011,0.039,0.021,0.058,0.028
		c0.018,0.008,0.037,0.016,0.059,0.024c0.008,0.002,0.012,0.006,0.012,0.012s-0.004,0.012-0.012,0.017
		c-0.006,0.003-0.01,0.006-0.014,0.009c-0.003,0.003-0.007,0.007-0.012,0.013c-0.004,0.006-0.01,0.013-0.017,0.022
		c-0.006,0.01-0.015,0.022-0.024,0.038c-0.005,0.009-0.01,0.016-0.015,0.022c-0.004,0.008-0.009,0.015-0.014,0.021v0.535h-0.109
		c0.002-0.019,0.003-0.035,0.005-0.049s0.003-0.026,0.003-0.039c0.001-0.012,0.001-0.025,0.002-0.04c0-0.015,0-0.032,0-0.054V6.289z
		 M16.157,6.762c-0.011,0.029-0.021,0.056-0.03,0.079s-0.019,0.045-0.028,0.064c-0.009,0.02-0.018,0.038-0.026,0.055
		s-0.019,0.033-0.027,0.05l-0.099-0.051c0.015-0.024,0.027-0.047,0.039-0.066c0.011-0.021,0.021-0.039,0.029-0.058
		c0.01-0.019,0.018-0.037,0.024-0.057c0.007-0.019,0.014-0.039,0.02-0.062L16.157,6.762z M16.327,6.289
		c-0.015,0.019-0.026,0.035-0.038,0.05c-0.011,0.014-0.021,0.026-0.032,0.037c-0.012-0.014-0.022-0.027-0.033-0.04
		C16.213,6.324,16.2,6.311,16.188,6.3c0.02-0.018,0.04-0.041,0.062-0.068c0.021-0.027,0.041-0.058,0.061-0.091
		c0.02-0.032,0.037-0.067,0.054-0.104C16.379,6,16.392,5.964,16.402,5.928c0.018,0.009,0.035,0.018,0.053,0.025
		c0.018,0.009,0.036,0.017,0.057,0.024c0.018,0.006,0.018,0.015,0,0.025c-0.005,0.004-0.011,0.01-0.018,0.019
		c-0.007,0.008-0.016,0.021-0.027,0.04h0.149c-0.004-0.013-0.009-0.026-0.016-0.041s-0.016-0.032-0.027-0.054L16.69,5.93
		c0.012,0.029,0.021,0.053,0.025,0.072c0.006,0.019,0.011,0.038,0.017,0.06c0.03,0,0.058,0,0.081-0.001
		c0.022,0,0.043-0.001,0.062-0.002s0.036-0.003,0.052-0.005c0.017-0.002,0.033-0.004,0.05-0.006l0.001,0.101
		c-0.036-0.004-0.074-0.007-0.112-0.008S16.782,6.14,16.729,6.14v0.072c0.047,0,0.09-0.001,0.132-0.003
		c0.041-0.003,0.074-0.005,0.1-0.008v0.098c-0.013-0.001-0.029-0.002-0.048-0.003c-0.02-0.001-0.039-0.002-0.061-0.003
		c-0.021,0-0.042-0.001-0.063-0.001c-0.021-0.001-0.041-0.001-0.06-0.001v0.087c0.048,0,0.092-0.001,0.134-0.004
		c0.042-0.002,0.076-0.006,0.103-0.01v0.101c-0.015-0.001-0.031-0.002-0.052-0.004c-0.02-0.001-0.041-0.002-0.063-0.004
		c-0.022-0.001-0.044-0.001-0.065-0.002c-0.021,0-0.04-0.001-0.057-0.001v0.095c0.036,0,0.067,0,0.094-0.001
		c0.027,0,0.051-0.001,0.071-0.003c0.021-0.001,0.038-0.003,0.055-0.005c0.016-0.002,0.03-0.005,0.045-0.008v0.108
		c-0.018-0.002-0.033-0.004-0.05-0.005c-0.016-0.002-0.034-0.003-0.056-0.004c-0.021-0.001-0.046-0.002-0.076-0.003
		c-0.03,0-0.067,0-0.111,0h-0.28v0.043h-0.104c0.004-0.033,0.007-0.063,0.009-0.092c0.001-0.027,0.002-0.059,0.002-0.093V6.289z
		 M16.825,6.871c-0.012,0.029-0.024,0.053-0.036,0.07c-0.012,0.019-0.024,0.033-0.038,0.044c-0.014,0.012-0.028,0.021-0.043,0.025
		s-0.032,0.008-0.051,0.009c-0.021,0.002-0.048,0.003-0.08,0.003c-0.031,0-0.064,0-0.097-0.001c-0.033,0-0.063-0.001-0.091-0.003
		c-0.028-0.001-0.048-0.003-0.06-0.005c-0.039-0.008-0.065-0.021-0.078-0.039c-0.013-0.019-0.02-0.047-0.02-0.087V6.842
		c0-0.021-0.001-0.046-0.003-0.073s-0.005-0.049-0.009-0.065c0.022,0.006,0.045,0.009,0.067,0.011c0.021,0.002,0.041,0.002,0.059,0
		c0.026-0.003,0.031,0.004,0.012,0.021c-0.008,0.006-0.013,0.012-0.015,0.017c-0.002,0.006-0.003,0.014-0.003,0.023V6.86
		c0,0.021,0.004,0.034,0.011,0.042c0.008,0.008,0.021,0.014,0.041,0.017C16.4,6.919,16.414,6.92,16.435,6.92
		c0.021,0.001,0.043,0.001,0.067,0.001s0.049,0,0.072-0.001c0.024,0,0.044-0.001,0.061-0.003c0.02-0.003,0.036-0.012,0.049-0.028
		c0.012-0.017,0.021-0.047,0.027-0.091c0.012,0.022,0.028,0.039,0.049,0.051C16.78,6.86,16.802,6.868,16.825,6.871z M16.422,6.14
		C16.422,6.141,16.421,6.141,16.422,6.14C16.42,6.141,16.42,6.142,16.42,6.143v0.069h0.207V6.14H16.422z M16.42,6.378h0.207V6.292
		H16.42V6.378z M16.42,6.549h0.207V6.455H16.42V6.549z M16.576,6.876c-0.022-0.026-0.045-0.05-0.068-0.07
		c-0.023-0.021-0.051-0.042-0.08-0.062l0.063-0.069c0.032,0.019,0.06,0.036,0.084,0.054c0.023,0.018,0.047,0.037,0.07,0.061
		L16.576,6.876z M16.962,6.972c-0.018-0.021-0.033-0.039-0.048-0.056s-0.029-0.033-0.045-0.048c-0.016-0.016-0.032-0.031-0.05-0.048
		c-0.019-0.016-0.039-0.033-0.063-0.053l0.066-0.076c0.044,0.031,0.083,0.062,0.119,0.092c0.035,0.03,0.072,0.064,0.11,0.104
		L16.962,6.972z"/>
	<path fill="#FFFFFF" d="M17.993,6.671c0,0.047,0.001,0.09,0.003,0.129C17.997,6.84,18,6.882,18.004,6.927H17.86
		c0.004-0.046,0.007-0.089,0.008-0.129c0.002-0.04,0.002-0.082,0.002-0.127v-0.11h-0.297c-0.01,0.1-0.03,0.191-0.062,0.275
		c-0.03,0.084-0.063,0.153-0.099,0.208c-0.022-0.019-0.042-0.034-0.061-0.046s-0.043-0.022-0.071-0.033
		c0.057-0.065,0.1-0.146,0.13-0.244c0.029-0.098,0.044-0.215,0.044-0.352V5.984c0-0.047-0.001-0.089-0.003-0.125
		c-0.002-0.037-0.005-0.065-0.009-0.088c0.039,0.002,0.077,0.004,0.115,0.005c0.038,0.002,0.077,0.003,0.118,0.003
		c0.041,0.001,0.085,0.001,0.13,0.002c0.046,0.001,0.095,0.001,0.147,0.001c0.068,0,0.127,0,0.177-0.001s0.094-0.001,0.132-0.002
		c0.038,0,0.074-0.001,0.105-0.003c0.032-0.001,0.065-0.003,0.101-0.005c-0.004,0.021-0.007,0.05-0.01,0.087
		c-0.002,0.037-0.004,0.079-0.004,0.126v0.896c0,0.027-0.001,0.049-0.004,0.065s-0.013,0.03-0.028,0.04
		c-0.017,0.011-0.041,0.02-0.073,0.026s-0.078,0.016-0.137,0.024c-0.007-0.027-0.013-0.052-0.02-0.073
		c-0.008-0.021-0.017-0.045-0.029-0.071c0.035,0.001,0.063,0.001,0.085-0.001s0.038-0.006,0.051-0.011
		c0.012-0.005,0.02-0.012,0.024-0.021c0.005-0.008,0.007-0.019,0.007-0.032V6.561h-0.338V6.671z M17.87,6.113V5.892h-0.292v0.221
		H17.87z M17.578,6.222v0.229h0.292V6.222H17.578z M18.331,6.113V5.892h-0.338v0.221H18.331z M17.993,6.222v0.229h0.338V6.222
		H17.993z"/>
	<path fill="#FFFFFF" d="M19.702,6.785c0.058,0.029,0.115,0.051,0.172,0.064c0.058,0.013,0.116,0.021,0.176,0.024
		c-0.021,0.023-0.037,0.047-0.046,0.07c-0.01,0.024-0.015,0.05-0.017,0.076c-0.088-0.019-0.164-0.041-0.229-0.067
		c-0.063-0.027-0.119-0.059-0.166-0.097c-0.046-0.037-0.085-0.081-0.117-0.131s-0.061-0.108-0.086-0.176H19.24v0.33
		c0.025-0.014,0.054-0.03,0.085-0.049c0.03-0.019,0.064-0.041,0.104-0.066c0,0.022,0.002,0.043,0.006,0.061
		c0.003,0.018,0.009,0.037,0.017,0.058c-0.042,0.022-0.078,0.042-0.109,0.059s-0.059,0.033-0.084,0.048
		c-0.024,0.016-0.048,0.03-0.068,0.045c-0.021,0.014-0.041,0.03-0.063,0.048c-0.011-0.021-0.024-0.042-0.04-0.064
		c-0.017-0.022-0.032-0.041-0.049-0.054c0.017-0.005,0.032-0.01,0.047-0.015s0.029-0.01,0.044-0.016V6.549h-0.176
		c-0.003,0.046-0.008,0.089-0.015,0.129c-0.006,0.04-0.015,0.079-0.024,0.116c-0.01,0.038-0.022,0.075-0.037,0.112
		s-0.031,0.076-0.052,0.118c-0.016-0.018-0.034-0.034-0.056-0.049s-0.045-0.025-0.07-0.033c0.027-0.042,0.049-0.08,0.066-0.113
		c0.017-0.032,0.03-0.066,0.04-0.103c0.009-0.035,0.016-0.074,0.021-0.117s0.009-0.096,0.012-0.156
		c0.001-0.028,0.001-0.066,0.001-0.115c0-0.05,0-0.105-0.001-0.168c-0.001-0.063-0.003-0.132-0.005-0.204
		c-0.002-0.073-0.005-0.147-0.008-0.223c0.029,0.003,0.059,0.006,0.09,0.007c0.03,0.002,0.065,0.003,0.106,0.005
		c0.04,0.001,0.088,0.002,0.144,0.003c0.056,0,0.123,0.001,0.203,0.001c0.079,0,0.147-0.001,0.206-0.001
		c0.058-0.001,0.108-0.002,0.15-0.003c0.043-0.002,0.079-0.003,0.108-0.005c0.03-0.001,0.058-0.004,0.083-0.007
		c-0.009,0.047-0.013,0.102-0.011,0.162c0,0.03,0.001,0.061,0.003,0.093c0.001,0.031,0.004,0.062,0.008,0.092
		c-0.008-0.001-0.018-0.002-0.028-0.002c-0.012-0.001-0.026-0.001-0.045-0.002c-0.018,0-0.042,0-0.07,0s-0.063,0-0.105,0v0.127
		c0.047-0.001,0.092-0.002,0.136-0.004c0.044-0.003,0.079-0.005,0.105-0.008V6.32c-0.028-0.004-0.063-0.007-0.104-0.009
		s-0.087-0.003-0.137-0.003v0.148c0.188-0.002,0.306-0.007,0.353-0.015v0.124c-0.014-0.002-0.034-0.004-0.061-0.006
		s-0.062-0.004-0.104-0.005c-0.043-0.002-0.094-0.003-0.152-0.004c-0.06-0.001-0.128-0.002-0.207-0.002
		c0.014,0.033,0.031,0.067,0.053,0.102s0.046,0.063,0.071,0.086c0.038-0.035,0.071-0.068,0.101-0.101
		c0.028-0.031,0.046-0.057,0.055-0.073c0.006,0.005,0.014,0.011,0.024,0.018c0.011,0.008,0.021,0.015,0.033,0.021
		c0.011,0.007,0.022,0.014,0.033,0.019c0.012,0.006,0.02,0.01,0.025,0.012c0.013,0.004,0.019,0.009,0.018,0.017
		c0,0.007-0.008,0.01-0.021,0.01c-0.008,0-0.027,0.01-0.059,0.028S19.755,6.738,19.702,6.785z M19.219,6.309
		c-0.033,0.001-0.063,0.003-0.091,0.005s-0.054,0.004-0.08,0.006V6.202c0.025,0.003,0.052,0.005,0.08,0.007
		c0.027,0.001,0.058,0.003,0.091,0.004V6.086H18.96c0,0.042,0,0.08,0,0.114c0.001,0.034,0.001,0.066,0,0.096
		c0,0.03-0.001,0.058-0.001,0.084c-0.001,0.025-0.002,0.051-0.003,0.076h0.263V6.309z M19.781,5.858H18.96V5.99h0.821V5.858z
		 M19.552,6.213V6.086h-0.219v0.127H19.552z M19.333,6.308v0.148h0.219V6.308H19.333z"/>
</g>
</svg>
