<?xml version="1.0" encoding="utf-8"?>
<!-- Generator: Adobe Illustrator 16.0.3, SVG Export Plug-In . SVG Version: 6.00 Build 0)  -->
<!DOCTYPE svg PUBLIC "-//W3C//DTD SVG 1.1//EN" "http://www.w3.org/Graphics/SVG/1.1/DTD/svg11.dtd">
<svg version="1.1" id="圖層_1" xmlns="http://www.w3.org/2000/svg" xmlns:xlink="http://www.w3.org/1999/xlink" x="0px" y="0px"
	 width="24px" height="13.667px" viewBox="0 0 24 13.667" enable-background="new 0 0 24 13.667" xml:space="preserve">
<polygon fill="#8BBC3C" points="24,9.457 0,13.228 0,0 24,0 "/>
<g enable-background="new    ">
	<path fill="#FFFFFF" d="M7.918,3.775h0.109v0.451h0.548V3.775h0.108v1.077H8.575V4.332H8.027v0.521H7.918V3.775z"/>
	<path fill="#FFFFFF" d="M8.944,3.775h0.54v0.106H9.052v0.336h0.432v0.106H9.052v0.528H8.944V3.775z"/>
	<path fill="#FFFFFF" d="M10.675,3.975l-0.084,0.064c-0.1-0.124-0.229-0.186-0.385-0.186c-0.128,0-0.238,0.045-0.331,0.135
		c-0.093,0.09-0.139,0.2-0.139,0.331c0,0.13,0.045,0.239,0.136,0.327c0.091,0.087,0.204,0.131,0.34,0.131
		c0.152,0,0.279-0.059,0.379-0.177l0.084,0.064c-0.053,0.07-0.12,0.123-0.201,0.159c-0.081,0.037-0.17,0.055-0.269,0.055
		c-0.171,0-0.311-0.054-0.42-0.161c-0.109-0.108-0.164-0.245-0.164-0.41c0-0.102,0.025-0.196,0.076-0.282
		c0.05-0.087,0.121-0.154,0.21-0.203c0.089-0.05,0.186-0.074,0.289-0.074c0.103,0,0.196,0.02,0.278,0.059S10.623,3.902,10.675,3.975
		z"/>
	<path fill="#FFFFFF" d="M11.16,3.881V3.775h0.591v0.105h-0.24v0.972h-0.109V3.881H11.16z"/>
	<path fill="#FFFFFF" d="M12.682,4.056v0.797h-0.1V4.716c-0.092,0.109-0.196,0.163-0.313,0.163c-0.117,0-0.216-0.041-0.296-0.125
		c-0.081-0.083-0.121-0.183-0.121-0.298c0-0.116,0.041-0.215,0.122-0.298c0.081-0.082,0.178-0.123,0.291-0.123
		c0.13,0,0.235,0.056,0.317,0.166V4.056H12.682z M12.588,4.458c0-0.091-0.031-0.168-0.092-0.23
		c-0.061-0.063-0.136-0.094-0.225-0.094c-0.088,0-0.163,0.032-0.224,0.097s-0.091,0.141-0.091,0.229
		c0,0.089,0.031,0.165,0.093,0.229s0.136,0.097,0.223,0.097s0.161-0.031,0.223-0.094C12.557,4.63,12.588,4.552,12.588,4.458z"/>
	<path fill="#FFFFFF" d="M12.865,3.834c0-0.023,0.008-0.043,0.024-0.061c0.017-0.017,0.036-0.025,0.06-0.025
		s0.044,0.009,0.061,0.025c0.016,0.017,0.024,0.036,0.024,0.06s-0.009,0.044-0.024,0.061c-0.017,0.016-0.037,0.024-0.061,0.024
		s-0.043-0.009-0.06-0.025C12.873,3.875,12.865,3.855,12.865,3.834z M12.898,4.056h0.104v0.797h-0.104V4.056z"/>
	<path fill="#FFFFFF" d="M13.105,4.056h0.105l0.244,0.604l0.256-0.604h0.018l0.256,0.604l0.247-0.604h0.108l-0.347,0.823h-0.02
		l-0.253-0.597l-0.256,0.597h-0.02L13.105,4.056z"/>
	<path fill="#FFFFFF" d="M15.254,4.056v0.797h-0.102V4.716c-0.091,0.109-0.195,0.163-0.312,0.163c-0.117,0-0.216-0.041-0.296-0.125
		c-0.081-0.083-0.121-0.183-0.121-0.298c0-0.116,0.041-0.215,0.121-0.298c0.081-0.082,0.178-0.123,0.291-0.123
		c0.131,0,0.236,0.056,0.316,0.166V4.056H15.254z M15.158,4.458c0-0.091-0.029-0.168-0.091-0.23s-0.136-0.094-0.225-0.094
		S14.68,4.166,14.619,4.23c-0.062,0.064-0.092,0.141-0.092,0.229c0,0.089,0.031,0.165,0.093,0.229s0.136,0.097,0.223,0.097
		s0.161-0.031,0.224-0.094C15.128,4.63,15.158,4.552,15.158,4.458z"/>
	<path fill="#FFFFFF" d="M15.484,4.056h0.104v0.143c0.082-0.108,0.182-0.163,0.299-0.163c0.06,0,0.113,0.016,0.162,0.049
		c0.047,0.032,0.081,0.074,0.102,0.127c0.02,0.053,0.029,0.13,0.029,0.232v0.409h-0.102v-0.38c0-0.093-0.004-0.156-0.013-0.188
		c-0.009-0.033-0.021-0.062-0.039-0.084c-0.018-0.023-0.04-0.041-0.067-0.053c-0.026-0.012-0.059-0.019-0.098-0.019
		s-0.076,0.01-0.113,0.029c-0.037,0.019-0.068,0.045-0.094,0.079c-0.027,0.034-0.044,0.069-0.053,0.105
		c-0.01,0.035-0.014,0.108-0.014,0.217v0.293h-0.104V4.056z"/>
</g>
<g enable-background="new    ">
	<path fill="#FFFFFF" d="M4.93,6.54C4.888,6.493,4.847,6.451,4.806,6.415S4.718,6.34,4.665,6.301l0.071-0.062
		C4.81,6.302,4.882,6.366,4.952,6.431c0.07,0.065,0.141,0.138,0.212,0.218L5.076,6.714C5.058,6.691,5.042,6.672,5.031,6.657
		C5.019,6.643,5.006,6.628,4.993,6.614C4.861,6.619,4.747,6.623,4.65,6.627S4.47,6.635,4.4,6.638S4.271,6.644,4.223,6.646
		c-0.047,0.003-0.087,0.006-0.12,0.01c-0.033,0.003-0.06,0.006-0.083,0.01C3.998,6.669,3.977,6.673,3.957,6.679
		c-0.005-0.023-0.011-0.043-0.017-0.06C3.933,6.603,3.923,6.583,3.91,6.56c0.03,0.003,0.069,0.005,0.117,0.005
		c0.048-0.048,0.095-0.098,0.142-0.147c0.046-0.051,0.089-0.1,0.129-0.146s0.074-0.091,0.104-0.13s0.051-0.072,0.065-0.099
		c0.022,0.016,0.041,0.026,0.056,0.035c0.016,0.008,0.034,0.016,0.055,0.023c0.02,0.007,0.03,0.015,0.029,0.023
		S4.595,6.138,4.573,6.14C4.565,6.141,4.554,6.146,4.54,6.157c-0.015,0.011-0.036,0.03-0.064,0.06
		C4.417,6.276,4.36,6.334,4.307,6.39C4.253,6.445,4.198,6.503,4.141,6.563L4.93,6.54z M4.158,7.429H4.056
		C4.058,7.4,4.06,7.373,4.061,7.347c0.001-0.026,0.002-0.053,0.002-0.083V6.918c0-0.009,0-0.02,0-0.031S4.062,6.863,4.061,6.851
		c0-0.012-0.001-0.022-0.002-0.033C4.058,6.808,4.057,6.8,4.056,6.794C4.07,6.795,4.092,6.796,4.124,6.798
		c0.031,0.001,0.068,0.003,0.111,0.004s0.088,0.001,0.138,0.002c0.049,0,0.099,0.001,0.147,0.001c0.137,0,0.245-0.001,0.323-0.003
		S4.978,6.797,5.01,6.794C5.008,6.806,5.006,6.824,5.004,6.85C5.003,6.874,5.002,6.901,5.002,6.931v0.337c0,0.028,0,0.054,0,0.078
		c0,0.021,0,0.047,0.001,0.07H4.901V7.313H4.158V7.429z M4.901,6.884H4.158v0.351h0.744V6.884z"/>
	<path fill="#FFFFFF" d="M5.581,6.674C5.566,6.656,5.55,6.638,5.532,6.619S5.495,6.583,5.476,6.565
		C5.456,6.549,5.437,6.533,5.419,6.52C5.401,6.505,5.385,6.494,5.37,6.484l0.051-0.06C5.438,6.437,5.458,6.45,5.478,6.466
		s0.04,0.032,0.059,0.049c0.02,0.018,0.039,0.034,0.057,0.051s0.034,0.032,0.048,0.047L5.581,6.674z M5.656,6.802
		C5.647,6.83,5.637,6.867,5.625,6.913C5.613,6.959,5.6,7.009,5.585,7.063C5.572,7.116,5.558,7.172,5.543,7.229
		C5.53,7.286,5.517,7.339,5.504,7.39C5.483,7.38,5.466,7.373,5.451,7.369S5.417,7.361,5.396,7.357
		c0.012-0.024,0.026-0.056,0.043-0.099c0.017-0.042,0.033-0.09,0.049-0.144s0.033-0.111,0.049-0.173S5.567,6.819,5.578,6.76
		c0.013,0.014,0.025,0.023,0.036,0.028C5.625,6.793,5.639,6.797,5.656,6.802z M5.605,6.343C5.551,6.28,5.487,6.225,5.413,6.176
		l0.051-0.064c0.033,0.026,0.068,0.055,0.105,0.087c0.037,0.032,0.07,0.063,0.099,0.09L5.605,6.343z M5.703,6.315
		C5.721,6.288,5.74,6.257,5.76,6.22c0.02-0.036,0.042-0.081,0.066-0.136c0.021,0.02,0.04,0.03,0.056,0.033
		C5.894,6.12,5.9,6.125,5.9,6.131S5.895,6.142,5.884,6.145c-0.007,0.002-0.014,0.005-0.02,0.011C5.858,6.16,5.854,6.165,5.85,6.171
		C5.83,6.204,5.813,6.23,5.801,6.25C5.789,6.27,5.774,6.291,5.76,6.315l0.094-0.002c0.014-0.022,0.024-0.041,0.032-0.055
		c0.007-0.015,0.013-0.03,0.018-0.047c0.011,0.01,0.021,0.018,0.03,0.023C5.942,6.24,5.952,6.246,5.96,6.251V6.192
		c0.015,0.002,0.029,0.004,0.042,0.005C6.014,6.199,6.028,6.2,6.042,6.201c0.014,0.001,0.031,0.002,0.049,0.002s0.042,0,0.068,0
		c0.028,0,0.052,0,0.072,0S6.27,6.202,6.285,6.201C6.301,6.2,6.315,6.199,6.327,6.197c0.013-0.001,0.026-0.003,0.04-0.005v0.076
		C6.353,6.267,6.339,6.265,6.327,6.264C6.313,6.262,6.299,6.261,6.284,6.26C6.269,6.259,6.25,6.258,6.23,6.258
		C6.21,6.257,6.187,6.257,6.159,6.257c-0.023,0-0.043,0-0.06,0.001c-0.017,0-0.032,0.001-0.046,0.001
		C6.04,6.26,6.027,6.261,6.016,6.262C6.005,6.264,5.994,6.265,5.981,6.266c0.002,0.005-0.004,0.01-0.02,0.014
		C5.955,6.281,5.948,6.286,5.94,6.294C5.933,6.303,5.922,6.314,5.91,6.332C5.883,6.369,5.857,6.403,5.833,6.434
		c-0.025,0.031-0.046,0.058-0.064,0.08C5.795,6.512,5.822,6.51,5.847,6.509s0.045-0.002,0.06-0.003
		C5.901,6.495,5.896,6.483,5.889,6.473C5.883,6.462,5.875,6.449,5.868,6.436L5.92,6.407c0.015,0.024,0.029,0.051,0.043,0.077
		s0.026,0.055,0.038,0.084L5.938,6.592c-0.003-0.014-0.006-0.025-0.01-0.036L5.791,6.572c-0.029,0.004-0.052,0.007-0.07,0.01
		S5.688,6.589,5.676,6.595C5.675,6.579,5.671,6.565,5.667,6.552S5.655,6.527,5.646,6.52c0.007,0,0.016,0,0.025-0.001
		c0.01,0,0.021-0.001,0.032-0.002c0.015-0.018,0.032-0.038,0.05-0.062c0.019-0.024,0.041-0.056,0.068-0.093L5.787,6.363
		C5.768,6.364,5.749,6.366,5.731,6.369S5.699,6.376,5.688,6.38c-0.002-0.012-0.005-0.022-0.01-0.031
		c-0.004-0.01-0.011-0.021-0.02-0.033H5.703z M5.764,6.643c-0.001,0.046-0.005,0.089-0.011,0.13
		c-0.006,0.04-0.015,0.074-0.026,0.101L5.658,6.856c0.015-0.023,0.027-0.054,0.035-0.091c0.008-0.036,0.013-0.081,0.013-0.134
		L5.764,6.643z M6.514,7.076C6.502,7.074,6.487,7.072,6.469,7.07C6.451,7.069,6.421,7.067,6.38,7.066s-0.1-0.001-0.175-0.002
		c-0.075,0-0.175-0.001-0.301-0.001L5.893,7.145c0.102,0,0.19,0,0.263,0c0.074,0,0.136,0,0.188,0
		c0.052-0.001,0.095-0.001,0.128-0.002c0.034-0.001,0.061-0.001,0.082-0.002s0.038-0.002,0.05-0.003
		C6.617,7.137,6.629,7.135,6.64,7.133c-0.011,0.021-0.02,0.04-0.025,0.057C6.61,7.207,6.604,7.229,6.597,7.257
		C6.588,7.292,6.579,7.321,6.568,7.343C6.557,7.367,6.539,7.384,6.514,7.396s-0.06,0.021-0.104,0.025
		C6.367,7.427,6.308,7.429,6.233,7.429c0.002-0.02,0-0.035-0.004-0.049C6.224,7.369,6.212,7.351,6.195,7.328
		C6.253,7.339,6.302,7.345,6.34,7.347c0.038,0.002,0.068,0,0.092-0.006c0.024-0.004,0.041-0.014,0.053-0.027s0.02-0.029,0.026-0.05
		l0.017-0.06c-0.106,0-0.196,0-0.271,0s-0.137,0-0.188,0.001c-0.05,0-0.091,0.001-0.122,0.001C5.916,7.208,5.892,7.208,5.874,7.209
		c-0.018,0-0.031,0.001-0.041,0.003C5.824,7.213,5.815,7.214,5.808,7.215C5.813,7.182,5.818,7.146,5.822,7.11
		s0.004-0.076,0.002-0.12c0.008,0.002,0.024,0.004,0.049,0.005C5.898,6.997,5.929,6.999,5.964,7C6,7.002,6.039,7.003,6.082,7.003
		c0.042,0.001,0.085,0.001,0.127,0.001s0.083,0,0.122-0.001c0.039,0,0.073-0.001,0.102-0.002L6.44,6.925c-0.086,0-0.161,0-0.224,0
		s-0.118,0-0.164,0C6.007,6.926,5.97,6.926,5.94,6.926c-0.03,0-0.054,0-0.074,0.001c-0.02,0-0.035,0.001-0.046,0.002
		C5.809,6.93,5.799,6.931,5.79,6.932V6.854c0.015,0.002,0.031,0.004,0.049,0.006c0.018,0.001,0.04,0.002,0.067,0.003
		c0.028,0,0.062,0.001,0.102,0.001C6.048,6.864,6.099,6.864,6.16,6.864c0.068,0,0.123,0,0.165,0s0.076,0,0.102-0.001
		C6.453,6.862,6.474,6.86,6.489,6.859c0.015-0.002,0.029-0.004,0.043-0.006C6.524,6.887,6.519,6.923,6.516,6.962
		S6.512,7.039,6.514,7.076z M5.82,6.833c0-0.013-0.001-0.028-0.002-0.046S5.814,6.752,5.812,6.734S5.807,6.7,5.804,6.684
		S5.796,6.652,5.792,6.641l0.056-0.014C5.852,6.64,5.856,6.654,5.86,6.671c0.004,0.017,0.007,0.034,0.011,0.052
		c0.003,0.018,0.006,0.035,0.01,0.052c0.003,0.017,0.005,0.032,0.006,0.045L5.82,6.833z M5.947,6.812
		C5.941,6.774,5.934,6.74,5.925,6.708c-0.009-0.031-0.021-0.062-0.036-0.09l0.051-0.017c0.012,0.022,0.025,0.051,0.039,0.086
		s0.025,0.068,0.033,0.101L5.947,6.812z M6.317,6.389C6.301,6.387,6.283,6.385,6.264,6.384C6.245,6.382,6.218,6.381,6.183,6.381
		c-0.041,0-0.075,0.001-0.101,0.003C6.056,6.385,6.035,6.387,6.018,6.389V6.321c0.009,0.001,0.018,0.002,0.028,0.003
		c0.009,0.001,0.021,0.002,0.033,0.002c0.013,0.001,0.027,0.001,0.044,0.002c0.016,0,0.037,0.001,0.061,0.001
		c0.037,0,0.064-0.001,0.083-0.002s0.036-0.003,0.052-0.006V6.389z M6.317,6.52C6.301,6.518,6.281,6.516,6.259,6.514
		C6.237,6.513,6.208,6.512,6.172,6.512c-0.037,0-0.066,0.001-0.087,0.002S6.043,6.517,6.025,6.52V6.447
		c0.019,0.002,0.04,0.004,0.061,0.005c0.021,0.002,0.05,0.003,0.086,0.003c0.036,0,0.065-0.001,0.087-0.002S6.301,6.45,6.317,6.447
		V6.52z M6.313,6.821C6.298,6.818,6.281,6.817,6.261,6.817C6.241,6.816,6.21,6.816,6.169,6.816c-0.018,0-0.033,0-0.045,0
		c-0.013,0-0.024,0-0.035,0.001c-0.011,0-0.021,0.001-0.03,0.002c-0.01,0.001-0.02,0.002-0.031,0.003
		c0.002-0.01,0.004-0.025,0.006-0.045s0.003-0.041,0.003-0.063c0-0.041-0.003-0.085-0.009-0.133C6.05,6.584,6.071,6.586,6.09,6.587
		C6.108,6.588,6.136,6.588,6.17,6.588c0.016,0,0.03,0,0.043,0s0.024,0,0.035-0.001c0.01-0.001,0.021-0.002,0.031-0.002
		C6.289,6.584,6.3,6.583,6.313,6.581C6.31,6.626,6.309,6.67,6.309,6.714c0,0.023,0,0.043,0.001,0.059
		C6.31,6.789,6.311,6.805,6.313,6.821z M6.195,6.189C6.18,6.172,6.162,6.157,6.142,6.143c-0.02-0.014-0.043-0.027-0.069-0.042
		l0.036-0.053c0.023,0.015,0.046,0.029,0.069,0.045s0.043,0.03,0.06,0.046L6.195,6.189z M6.249,6.648H6.097v0.117h0.151V6.648z
		 M6.369,6.31c0.01-0.016,0.02-0.03,0.029-0.046c0.009-0.016,0.019-0.032,0.028-0.051c0.01-0.018,0.02-0.037,0.03-0.06
		c0.01-0.022,0.022-0.048,0.035-0.076c0.02,0.016,0.037,0.025,0.051,0.029C6.554,6.11,6.56,6.115,6.561,6.121
		S6.557,6.132,6.545,6.137C6.535,6.141,6.522,6.155,6.508,6.179C6.483,6.223,6.455,6.267,6.424,6.31l0.105-0.002
		c0.02-0.026,0.035-0.049,0.044-0.067c0.01-0.018,0.018-0.035,0.025-0.053c0.028,0.021,0.05,0.032,0.067,0.036
		C6.675,6.226,6.679,6.23,6.679,6.236c0,0.007-0.005,0.012-0.017,0.015C6.658,6.253,6.651,6.257,6.644,6.263
		C6.636,6.269,6.626,6.28,6.613,6.296C6.579,6.339,6.547,6.379,6.518,6.415c-0.03,0.036-0.057,0.067-0.081,0.094l0.159-0.005
		c-0.006-0.014-0.013-0.027-0.02-0.04S6.563,6.438,6.556,6.428l0.049-0.025c0.017,0.026,0.034,0.056,0.05,0.088
		s0.03,0.063,0.042,0.091l-0.06,0.023C6.635,6.597,6.633,6.589,6.629,6.581C6.626,6.573,6.624,6.564,6.621,6.557L6.453,6.57
		C6.437,6.572,6.42,6.575,6.402,6.578S6.369,6.585,6.355,6.59C6.351,6.564,6.342,6.539,6.328,6.512l0.038-0.001
		c0.009-0.01,0.017-0.019,0.024-0.027c0.008-0.009,0.016-0.02,0.026-0.031c0.009-0.011,0.02-0.024,0.031-0.039
		C6.459,6.399,6.473,6.381,6.489,6.36C6.456,6.362,6.431,6.364,6.415,6.367C6.398,6.369,6.379,6.373,6.358,6.378
		c-0.002-0.011-0.005-0.022-0.01-0.034S6.337,6.32,6.331,6.31H6.369z M6.448,6.644C6.443,6.684,6.436,6.72,6.425,6.753
		c-0.01,0.032-0.021,0.06-0.034,0.081L6.328,6.816c0.017-0.021,0.03-0.045,0.039-0.073C6.376,6.714,6.384,6.676,6.39,6.627
		L6.448,6.644z M6.503,6.814c0.002-0.026,0.001-0.056-0.001-0.088S6.494,6.666,6.486,6.643L6.537,6.63
		c0.008,0.026,0.014,0.056,0.019,0.088C6.56,6.751,6.563,6.78,6.563,6.806L6.503,6.814z M6.639,6.805
		C6.634,6.775,6.626,6.747,6.616,6.72C6.606,6.692,6.594,6.664,6.58,6.637l0.053-0.024c0.014,0.025,0.027,0.054,0.04,0.085
		S6.695,6.76,6.703,6.791L6.639,6.805z"/>
	<path fill="#FFFFFF" d="M7.075,7.421H6.98C6.984,7.38,6.987,7.339,6.988,7.3C6.989,7.26,6.99,7.217,6.99,7.172V6.335
		c0-0.03,0-0.06-0.001-0.087C6.987,6.22,6.984,6.188,6.98,6.153c0.013,0.002,0.031,0.003,0.053,0.004
		c0.022,0,0.053,0.001,0.094,0.002s0.094,0.002,0.16,0.002c0.065,0,0.148,0,0.248,0c0.101,0,0.184,0,0.25,0
		c0.066,0,0.119-0.001,0.16-0.002s0.072-0.002,0.094-0.002c0.021-0.001,0.039-0.002,0.052-0.004C8.09,6.188,8.089,6.22,8.089,6.249
		c0,0.028,0,0.057,0,0.086v0.809c0,0.045,0,0.087,0.001,0.127s0.002,0.081,0.004,0.124H8.002V7.309H7.075V7.421z M8.002,6.237H7.075
		v0.996h0.927V6.237z M7.543,6.951c-0.002,0.017-0.002,0.03-0.001,0.043S7.544,7.02,7.546,7.032C7.518,7.034,7.487,7.037,7.453,7.04
		S7.384,7.046,7.349,7.051c-0.035,0.004-0.07,0.008-0.105,0.013c-0.035,0.004-0.067,0.01-0.098,0.016
		C7.144,7.068,7.142,7.061,7.141,7.055S7.139,7.043,7.137,7.037C7.135,7.032,7.132,7.026,7.129,7.02
		c-0.003-0.007-0.006-0.016-0.01-0.027c0.04,0,0.08-0.001,0.12-0.003s0.078-0.006,0.115-0.01s0.072-0.008,0.104-0.013
		C7.49,6.961,7.518,6.956,7.543,6.951z M7.366,6.494c-0.038,0-0.079,0-0.123,0.002C7.2,6.498,7.161,6.5,7.126,6.504V6.416
		C7.161,6.42,7.2,6.423,7.244,6.424c0.044,0.002,0.084,0.003,0.123,0.003h0.199C7.563,6.392,7.56,6.361,7.557,6.337
		c-0.002-0.024-0.004-0.05-0.006-0.075c0.017,0.005,0.032,0.009,0.046,0.012s0.029,0.004,0.045,0.003
		c0.012-0.001,0.019,0,0.022,0.004c0.002,0.003-0.002,0.01-0.013,0.021c-0.004,0.004-0.006,0.01-0.008,0.019
		C7.642,6.327,7.641,6.342,7.641,6.362c0,0.01,0,0.02,0,0.03s0,0.021,0.001,0.034h0.08c0.039,0,0.082-0.001,0.127-0.003
		C7.895,6.423,7.935,6.42,7.968,6.416v0.088C7.935,6.5,7.895,6.498,7.849,6.496S7.761,6.494,7.722,6.494H7.646
		c0.006,0.053,0.018,0.116,0.036,0.19c0.006,0.021,0.013,0.043,0.02,0.064C7.709,6.77,7.717,6.79,7.725,6.811
		c0.022-0.041,0.04-0.081,0.053-0.119c0.014-0.037,0.025-0.081,0.035-0.13c0.026,0.019,0.055,0.032,0.085,0.04
		c0.013,0.004,0.02,0.009,0.019,0.015c0,0.005-0.006,0.011-0.018,0.016C7.896,6.634,7.89,6.641,7.88,6.652
		c-0.009,0.012-0.019,0.03-0.03,0.058C7.836,6.745,7.822,6.777,7.808,6.807c-0.014,0.029-0.03,0.059-0.047,0.088
		c0.021,0.041,0.039,0.072,0.052,0.094c0.014,0.021,0.03,0.041,0.046,0.059c0.009,0.011,0.018,0.018,0.025,0.021
		c0.008,0.004,0.014,0.003,0.02-0.003s0.01-0.018,0.012-0.034c0.002-0.018,0.003-0.042,0.003-0.074
		c0.016,0.019,0.029,0.03,0.039,0.037c0.009,0.007,0.021,0.012,0.035,0.018c-0.009,0.044-0.02,0.077-0.031,0.102
		c-0.012,0.024-0.024,0.041-0.037,0.05C7.913,7.172,7.9,7.175,7.887,7.172C7.875,7.169,7.863,7.163,7.852,7.154
		C7.825,7.131,7.8,7.105,7.777,7.078C7.754,7.051,7.732,7.017,7.712,6.977C7.698,7.002,7.684,7.023,7.672,7.041
		C7.66,7.06,7.648,7.075,7.636,7.09C7.624,7.104,7.612,7.118,7.599,7.132S7.57,7.16,7.552,7.177
		C7.535,7.162,7.521,7.152,7.512,7.147c-0.01-0.006-0.023-0.011-0.041-0.017c0.041-0.029,0.077-0.063,0.108-0.097
		C7.61,6.999,7.642,6.954,7.674,6.9C7.648,6.844,7.627,6.781,7.611,6.714c-0.017-0.066-0.03-0.14-0.038-0.22H7.366z M7.519,6.887
		C7.508,6.886,7.498,6.885,7.488,6.885c-0.01-0.001-0.021-0.001-0.034-0.002c-0.013,0-0.027-0.001-0.042-0.001
		c-0.015,0-0.034,0-0.055,0c-0.042,0-0.076,0.001-0.102,0.001c-0.026,0.001-0.049,0.002-0.07,0.004
		C7.187,6.87,7.188,6.845,7.189,6.813S7.19,6.751,7.19,6.725c0-0.025,0-0.054-0.001-0.085c-0.001-0.03-0.002-0.054-0.004-0.071
		c0.021,0.003,0.044,0.004,0.07,0.004c0.026,0.001,0.06,0.001,0.102,0.001c0.021,0,0.04,0,0.055,0c0.016,0,0.03,0,0.042-0.001
		c0.012,0,0.023-0.001,0.034-0.001C7.498,6.57,7.508,6.57,7.519,6.568C7.517,6.59,7.516,6.613,7.515,6.64
		C7.514,6.665,7.513,6.693,7.513,6.725c0,0.03,0,0.061,0.001,0.09C7.516,6.845,7.517,6.869,7.519,6.887z M7.441,6.635h-0.18v0.183
		h0.18V6.635z M7.845,6.414C7.833,6.4,7.822,6.388,7.814,6.378C7.805,6.367,7.796,6.357,7.788,6.349
		C7.779,6.339,7.769,6.33,7.759,6.321c-0.01-0.009-0.022-0.02-0.036-0.031l0.051-0.045c0.016,0.014,0.03,0.025,0.041,0.036
		c0.011,0.01,0.021,0.02,0.03,0.028c0.009,0.009,0.017,0.018,0.024,0.026c0.008,0.01,0.016,0.02,0.025,0.03L7.845,6.414z"/>
	<path fill="#FFFFFF" d="M8.947,6.273C8.934,6.296,8.922,6.316,8.91,6.334C8.899,6.352,8.887,6.367,8.876,6.382
		C8.864,6.396,8.853,6.41,8.84,6.423C8.827,6.437,8.814,6.45,8.8,6.464C8.789,6.455,8.779,6.447,8.77,6.442
		c-0.009-0.006-0.024-0.012-0.046-0.02C8.755,6.4,8.783,6.376,8.805,6.352c0.022-0.025,0.044-0.054,0.066-0.084
		c0.02-0.029,0.036-0.06,0.049-0.09c0.012-0.031,0.023-0.068,0.034-0.111C8.971,6.075,8.987,6.082,9,6.087
		c0.013,0.004,0.026,0.008,0.039,0.01C9.053,6.099,9.06,6.104,9.061,6.111S9.057,6.125,9.046,6.129
		C9.04,6.131,9.033,6.137,9.025,6.146C9.017,6.153,9.003,6.175,8.984,6.207h0.129c0.018,0,0.036-0.001,0.055-0.003
		S9.205,6.2,9.22,6.198C9.192,6.292,9.16,6.375,9.124,6.445S9.042,6.58,8.988,6.64c0.014,0.002,0.027,0.003,0.041,0.004
		c0.014,0,0.029,0.001,0.046,0.002s0.038,0.001,0.062,0.001s0.052,0,0.085,0c0.055,0,0.099,0,0.13-0.001
		c0.032-0.001,0.062-0.003,0.09-0.005c-0.018-0.02-0.033-0.038-0.045-0.055C9.385,6.569,9.374,6.553,9.363,6.534
		C9.349,6.513,9.336,6.49,9.326,6.467c-0.01-0.023-0.02-0.048-0.029-0.076C9.288,6.363,9.279,6.333,9.271,6.299
		c-0.008-0.034-0.017-0.074-0.025-0.12h0.25c0.017,0,0.037-0.001,0.06-0.003S9.599,6.172,9.615,6.17
		C9.6,6.209,9.584,6.244,9.57,6.275C9.555,6.307,9.54,6.336,9.524,6.362c-0.015,0.025-0.03,0.05-0.046,0.073
		C9.462,6.458,9.445,6.481,9.426,6.504C9.445,6.53,9.463,6.553,9.48,6.572c0.018,0.019,0.036,0.036,0.055,0.052
		c0.02,0.015,0.042,0.03,0.067,0.045c0.025,0.014,0.055,0.029,0.09,0.045C9.68,6.725,9.667,6.735,9.657,6.748
		C9.646,6.761,9.634,6.776,9.622,6.797c-0.034-0.026-0.063-0.05-0.088-0.07C9.509,6.705,9.487,6.686,9.469,6.668v0.056
		C9.456,6.723,9.442,6.722,9.429,6.721C9.415,6.72,9.398,6.719,9.38,6.718c-0.019,0-0.041,0-0.066,0s-0.056,0-0.092,0
		c-0.043,0-0.078,0-0.104,0s-0.047,0-0.064,0C9.037,6.719,9.022,6.72,9.012,6.721C9,6.722,8.989,6.723,8.976,6.724V6.652
		C8.93,6.701,8.875,6.748,8.812,6.794C8.801,6.782,8.79,6.772,8.779,6.765C8.768,6.757,8.752,6.748,8.732,6.738
		c0.029,0.058,0.043,0.117,0.043,0.177c0,0.036-0.003,0.066-0.009,0.092C8.76,7.032,8.749,7.054,8.732,7.071
		S8.693,7.104,8.665,7.115c-0.028,0.011-0.063,0.02-0.106,0.026C8.554,7.101,8.538,7.063,8.512,7.029
		c0.071,0.006,0.119,0,0.145-0.019s0.039-0.053,0.039-0.103c0-0.024-0.003-0.05-0.01-0.077C8.679,6.803,8.668,6.775,8.655,6.746
		C8.641,6.718,8.623,6.69,8.602,6.663C8.581,6.637,8.556,6.611,8.525,6.588c0.016-0.033,0.03-0.063,0.042-0.09
		C8.578,6.471,8.589,6.444,8.6,6.418c0.01-0.026,0.021-0.055,0.03-0.086c0.01-0.031,0.022-0.067,0.036-0.109H8.483v0.882
		c0,0.04,0,0.074,0,0.104c0,0.029,0,0.056,0.002,0.08c0.001,0.023,0.002,0.046,0.003,0.068s0.003,0.045,0.005,0.07H8.382
		C8.385,7.4,8.387,7.375,8.389,7.351c0.002-0.025,0.003-0.049,0.004-0.075s0.002-0.053,0.002-0.08s0-0.058,0-0.092V6.339
		c0-0.015,0-0.031,0-0.048c0-0.018-0.001-0.035-0.002-0.053S8.392,6.203,8.39,6.188C8.388,6.171,8.387,6.156,8.386,6.143
		c0.035,0.002,0.07,0.004,0.105,0.005c0.036,0.001,0.071,0.001,0.106,0.001c0.04,0,0.073,0,0.098-0.001s0.053-0.003,0.083-0.006
		c-0.012,0.039-0.024,0.076-0.036,0.11C8.732,6.287,8.72,6.322,8.707,6.355C8.694,6.39,8.68,6.425,8.666,6.459
		C8.651,6.494,8.635,6.531,8.617,6.57c0.028,0.032,0.051,0.061,0.068,0.087c0.017,0.026,0.033,0.052,0.045,0.078
		c0.028-0.015,0.06-0.035,0.094-0.06C8.859,6.65,8.891,6.625,8.918,6.599c-0.02-0.02-0.04-0.036-0.058-0.05
		C8.841,6.535,8.821,6.522,8.8,6.511L8.85,6.462c0.023,0.017,0.044,0.031,0.063,0.044s0.037,0.026,0.054,0.04
		C8.979,6.532,8.99,6.519,9,6.505c0.01-0.014,0.019-0.026,0.027-0.04C9.011,6.451,8.993,6.439,8.974,6.429s-0.04-0.021-0.063-0.031
		l0.036-0.052c0.019,0.011,0.038,0.021,0.057,0.032c0.019,0.01,0.037,0.021,0.054,0.032c0.011-0.021,0.021-0.043,0.03-0.064
		C9.097,6.323,9.106,6.3,9.115,6.273H8.947z M9.026,7.086C9.016,7.088,9.006,7.094,8.998,7.103C8.989,7.11,8.976,7.126,8.958,7.149
		c-0.01,0.012-0.02,0.023-0.029,0.036C8.919,7.197,8.908,7.21,8.895,7.222C8.882,7.234,8.866,7.248,8.848,7.264
		C8.83,7.278,8.808,7.295,8.782,7.313C8.769,7.3,8.758,7.29,8.749,7.284C8.74,7.278,8.725,7.271,8.703,7.262
		c0.064-0.039,0.115-0.078,0.154-0.117s0.075-0.083,0.106-0.133C8.976,7.022,8.987,7.03,8.998,7.036
		c0.011,0.006,0.02,0.009,0.027,0.011c0.011,0.004,0.017,0.01,0.018,0.021S9.038,7.084,9.026,7.086z M9.104,6.939
		c-0.051,0-0.099,0.001-0.143,0.003S8.881,6.947,8.854,6.95V6.858c0.014,0.002,0.031,0.004,0.05,0.005
		c0.019,0.002,0.043,0.003,0.072,0.004S9.04,6.869,9.082,6.869C9.123,6.87,9.174,6.87,9.233,6.87c0.109,0,0.193-0.001,0.251-0.004
		c0.059-0.002,0.101-0.005,0.127-0.008V6.95C9.585,6.947,9.55,6.944,9.505,6.942C9.46,6.94,9.413,6.939,9.363,6.939H9.262v0.347
		c0,0.023-0.003,0.043-0.008,0.059C9.249,7.361,9.237,7.373,9.221,7.382C9.205,7.39,9.181,7.398,9.152,7.4
		C9.123,7.404,9.083,7.406,9.034,7.406c-0.001-0.01-0.002-0.02-0.003-0.025C9.03,7.373,9.028,7.365,9.025,7.359
		C9.022,7.353,9.019,7.345,9.014,7.337c-0.004-0.008-0.01-0.019-0.017-0.031c0.039,0.006,0.07,0.01,0.093,0.012
		c0.023,0.001,0.041,0,0.053-0.004c0.012-0.004,0.021-0.011,0.024-0.02s0.005-0.021,0.005-0.036V6.939H9.104z M9.394,6.433
		c0.013-0.017,0.024-0.031,0.034-0.046c0.01-0.015,0.019-0.029,0.027-0.044c0.008-0.015,0.016-0.029,0.022-0.045
		c0.006-0.016,0.013-0.033,0.02-0.053H9.333c0.008,0.04,0.016,0.073,0.025,0.101C9.366,6.374,9.378,6.402,9.394,6.433z M9.561,7.3
		C9.545,7.275,9.531,7.254,9.517,7.234S9.488,7.196,9.473,7.178C9.458,7.16,9.44,7.141,9.421,7.121
		C9.402,7.103,9.379,7.08,9.354,7.057l0.059-0.048c0.027,0.024,0.05,0.046,0.07,0.064c0.02,0.018,0.037,0.035,0.053,0.052
		c0.016,0.018,0.031,0.034,0.046,0.052s0.032,0.038,0.05,0.063L9.561,7.3z"/>
	<path fill="#FFFFFF" d="M10.859,6.187c0.034,0,0.064,0,0.09-0.001c0.026,0,0.049-0.001,0.069-0.002s0.038-0.003,0.053-0.004
		c0.016-0.002,0.03-0.003,0.044-0.005v0.094c-0.014-0.002-0.029-0.004-0.044-0.005c-0.016-0.002-0.033-0.003-0.053-0.004
		s-0.043-0.002-0.069-0.002c-0.026-0.001-0.056-0.001-0.09-0.001h-0.751c-0.029,0.048-0.058,0.092-0.086,0.131
		c-0.029,0.039-0.06,0.077-0.094,0.116C9.913,6.487,9.899,6.475,9.887,6.467C9.875,6.459,9.86,6.453,9.844,6.449
		c0.053-0.051,0.105-0.109,0.157-0.176c0.051-0.067,0.096-0.148,0.134-0.244c0.017,0.011,0.033,0.02,0.049,0.027
		s0.029,0.012,0.041,0.015c0.01,0.002,0.016,0.007,0.017,0.017s-0.004,0.016-0.017,0.019c-0.008,0.002-0.018,0.009-0.029,0.021
		c-0.011,0.012-0.026,0.031-0.044,0.06H10.859z M10.369,7.116c-0.047,0-0.088,0-0.124,0.001c-0.035,0-0.068,0.001-0.098,0.003
		c-0.03,0.001-0.058,0.003-0.083,0.005c-0.025,0.001-0.051,0.003-0.076,0.006v-0.09c0.027,0.003,0.054,0.006,0.081,0.007
		c0.027,0.002,0.056,0.003,0.088,0.005c0.032,0.001,0.067,0.002,0.106,0.003c0.039,0,0.083,0.001,0.133,0.001
		c0.05,0,0.095-0.001,0.134-0.001c0.039-0.001,0.074-0.002,0.106-0.003c0.032-0.002,0.062-0.003,0.088-0.005
		c0.027-0.001,0.054-0.004,0.081-0.007v0.09c-0.024-0.002-0.048-0.004-0.072-0.006c-0.024-0.002-0.05-0.003-0.078-0.004
		c-0.027-0.001-0.057-0.002-0.09-0.003s-0.069-0.002-0.109-0.002v0.159c0.058,0,0.108,0,0.149-0.001
		c0.042,0,0.079-0.001,0.112-0.003c0.033-0.001,0.064-0.003,0.094-0.005c0.029-0.001,0.061-0.003,0.095-0.006v0.094
		c-0.036-0.004-0.07-0.006-0.101-0.008c-0.031,0-0.065-0.002-0.101-0.004c-0.037-0.002-0.079-0.002-0.125-0.002
		c-0.047-0.002-0.104-0.002-0.172-0.002c-0.069,0-0.127,0-0.176,0.002c-0.048,0-0.09,0-0.128,0.002s-0.072,0.004-0.104,0.004
		C9.971,7.349,9.937,7.351,9.901,7.355V7.261c0.034,0.003,0.067,0.005,0.098,0.006c0.031,0.002,0.064,0.004,0.098,0.005
		c0.035,0.002,0.074,0.003,0.117,0.003c0.043,0.001,0.095,0.001,0.155,0.001V7.116z M10.148,6.729
		c-0.032,0.001-0.061,0.002-0.087,0.004c-0.027,0.001-0.053,0.004-0.079,0.007V6.649c0.027,0.003,0.054,0.006,0.082,0.007
		c0.027,0.002,0.057,0.003,0.089,0.005c0.032,0.001,0.067,0.003,0.107,0.003c0.04,0.001,0.084,0.001,0.134,0.001
		c0.05,0,0.095,0,0.134-0.001c0.039,0,0.075-0.002,0.107-0.003c0.033-0.002,0.063-0.003,0.09-0.005
		c0.027-0.001,0.055-0.004,0.082-0.007V6.74c-0.021-0.002-0.042-0.004-0.063-0.006c-0.021-0.001-0.043-0.003-0.067-0.004
		c0.024,0.021,0.046,0.033,0.066,0.036c0.009,0.002,0.013,0.007,0.013,0.016c0,0.008-0.006,0.013-0.017,0.016
		c-0.008,0.003-0.02,0.011-0.035,0.025s-0.037,0.04-0.064,0.075c0.026,0.017,0.048,0.031,0.066,0.045s0.036,0.028,0.053,0.044
		C10.746,6.993,10.736,7,10.728,7.008c-0.008,0.007-0.016,0.018-0.024,0.032c-0.015-0.016-0.028-0.028-0.039-0.038
		c-0.011-0.011-0.022-0.021-0.035-0.03c-0.012-0.01-0.025-0.02-0.04-0.028c-0.015-0.01-0.032-0.021-0.053-0.035
		c0.023-0.021,0.041-0.038,0.055-0.052c0.014-0.015,0.026-0.031,0.037-0.049c0.021-0.03,0.035-0.056,0.041-0.077
		c-0.035-0.002-0.074-0.003-0.118-0.004s-0.096-0.002-0.156-0.002c-0.047,0-0.089,0-0.125,0.001c-0.037,0.001-0.07,0.001-0.1,0.002
		c0.009,0.007,0.017,0.013,0.024,0.016c0.007,0.004,0.014,0.007,0.021,0.009c0.014,0.005,0.021,0.011,0.021,0.018
		c0,0.006-0.005,0.011-0.015,0.013c-0.008,0.002-0.02,0.01-0.035,0.025c-0.015,0.015-0.037,0.041-0.066,0.079
		c0.028,0.02,0.053,0.036,0.076,0.053c0.022,0.016,0.042,0.032,0.059,0.048c-0.013,0.007-0.024,0.015-0.034,0.023
		c-0.009,0.009-0.02,0.02-0.031,0.033c-0.012-0.013-0.023-0.024-0.033-0.036c-0.01-0.012-0.021-0.023-0.034-0.035
		c-0.013-0.011-0.027-0.023-0.043-0.036c-0.016-0.014-0.036-0.028-0.059-0.045c0.021-0.018,0.038-0.032,0.051-0.045
		c0.013-0.014,0.025-0.029,0.036-0.047c0.008-0.013,0.016-0.025,0.023-0.037C10.139,6.752,10.145,6.74,10.148,6.729z M11.229,7.234
		c-0.018,0.067-0.039,0.117-0.063,0.15c-0.024,0.031-0.049,0.045-0.074,0.041c-0.025-0.006-0.051-0.027-0.076-0.07
		c-0.025-0.041-0.048-0.101-0.069-0.178c-0.033-0.123-0.047-0.328-0.042-0.614h-0.609c-0.042,0-0.088,0.001-0.14,0.003
		c-0.051,0.002-0.098,0.005-0.139,0.008v-0.09c0.02,0.002,0.043,0.004,0.069,0.006c0.026,0.002,0.058,0.004,0.095,0.005
		c0.038,0.002,0.083,0.003,0.134,0.004c0.052,0,0.115,0,0.188,0c0.072,0,0.135,0,0.189,0c0.054-0.001,0.101-0.002,0.141-0.004
		c0.04-0.001,0.074-0.003,0.102-0.005s0.052-0.004,0.072-0.006c-0.014,0.115-0.021,0.216-0.019,0.303S10.994,6.94,11,6.987
		c0.013,0.093,0.027,0.164,0.042,0.214c0.015,0.05,0.029,0.08,0.042,0.093c0.012,0.013,0.023,0.009,0.034-0.011
		c0.01-0.02,0.018-0.052,0.022-0.097c0.013,0.017,0.027,0.027,0.041,0.035C11.196,7.229,11.211,7.232,11.229,7.234z M11.049,6.411
		c-0.053-0.004-0.117-0.007-0.191-0.009c-0.075-0.002-0.162-0.003-0.262-0.003c-0.101,0-0.188,0.001-0.263,0.003
		c-0.074,0.002-0.137,0.005-0.19,0.009V6.324c0.053,0.004,0.117,0.007,0.191,0.009c0.074,0.002,0.162,0.003,0.262,0.003
		s0.187-0.001,0.262-0.003c0.074-0.002,0.138-0.005,0.191-0.009V6.411z M10.502,6.979c-0.022,0.013-0.042,0.031-0.06,0.058
		c-0.01-0.013-0.02-0.023-0.029-0.034c-0.01-0.011-0.021-0.021-0.032-0.031c-0.012-0.011-0.027-0.021-0.044-0.033
		c-0.017-0.012-0.037-0.024-0.062-0.04c0.029-0.02,0.054-0.042,0.075-0.067c0.02-0.024,0.041-0.061,0.062-0.106
		c0.013,0.011,0.024,0.019,0.033,0.023c0.009,0.005,0.021,0.01,0.034,0.015c0.012,0.005,0.018,0.01,0.018,0.015
		s-0.007,0.01-0.021,0.014c-0.013,0.003-0.026,0.012-0.039,0.025c-0.013,0.014-0.033,0.039-0.062,0.076
		c0.026,0.016,0.048,0.029,0.066,0.042C10.46,6.948,10.48,6.963,10.502,6.979z"/>
	<path fill="#FFFFFF" d="M11.955,6.495c-0.092,0.005-0.167,0.01-0.227,0.015c-0.059,0.004-0.108,0.009-0.147,0.013
		c-0.04,0.004-0.072,0.008-0.099,0.013c-0.026,0.005-0.051,0.01-0.075,0.016c0-0.018-0.002-0.036-0.008-0.056
		c-0.005-0.019-0.011-0.036-0.02-0.051c0.014,0.001,0.028,0.002,0.041,0.002c0.013,0.001,0.026,0.001,0.038,0.001
		c0.028-0.034,0.055-0.069,0.081-0.106s0.05-0.072,0.073-0.107c0.022-0.034,0.042-0.066,0.059-0.097s0.029-0.056,0.038-0.078
		c0.016,0.013,0.031,0.022,0.045,0.031c0.014,0.008,0.029,0.015,0.045,0.02c0.014,0.006,0.021,0.012,0.021,0.02
		c0,0.009-0.009,0.015-0.026,0.02c-0.013,0.006-0.024,0.013-0.034,0.022c-0.009,0.011-0.024,0.029-0.044,0.056
		c-0.017,0.023-0.041,0.055-0.071,0.094c-0.03,0.04-0.063,0.081-0.097,0.126l0.363-0.019c-0.018-0.026-0.037-0.051-0.056-0.075
		c-0.019-0.025-0.04-0.05-0.062-0.076l0.071-0.041c0.045,0.052,0.084,0.1,0.117,0.145c0.033,0.045,0.066,0.094,0.099,0.146
		l-0.084,0.042c-0.007-0.013-0.014-0.025-0.02-0.037C11.97,6.52,11.962,6.507,11.955,6.495z M11.56,7.402h-0.099
		c0.005-0.055,0.009-0.102,0.011-0.143s0.004-0.079,0.004-0.114V6.769c0-0.035,0-0.063-0.002-0.086
		c-0.001-0.021-0.004-0.043-0.01-0.063c0.012,0.002,0.029,0.004,0.05,0.005c0.021,0.002,0.043,0.003,0.067,0.004
		s0.049,0.002,0.074,0.003s0.049,0.002,0.071,0.002c0.021,0,0.043-0.001,0.066-0.001c0.023-0.001,0.046-0.002,0.069-0.003
		c0.023-0.002,0.045-0.003,0.067-0.005c0.022-0.001,0.042-0.003,0.06-0.005c-0.005,0.021-0.008,0.041-0.01,0.062
		s-0.002,0.05-0.002,0.087v0.498c0,0.022-0.002,0.042-0.007,0.057c-0.005,0.014-0.015,0.028-0.03,0.038
		c-0.015,0.01-0.037,0.018-0.065,0.023c-0.029,0.006-0.066,0.01-0.113,0.012c0.001-0.033-0.011-0.07-0.036-0.109
		c0.033,0.007,0.06,0.012,0.082,0.014s0.039,0.001,0.051-0.004c0.012-0.004,0.021-0.013,0.025-0.023
		c0.004-0.012,0.007-0.027,0.007-0.048V7.1h-0.33V7.402z M11.89,6.839V6.704h-0.33v0.135H11.89z M11.56,6.901v0.134h0.33V6.901
		H11.56z M12.216,6.344c0.066-0.026,0.128-0.056,0.186-0.089c0.058-0.032,0.104-0.063,0.138-0.093
		c0.008,0.015,0.019,0.028,0.031,0.044c0.012,0.015,0.022,0.026,0.032,0.034c0.015,0.01,0.02,0.019,0.016,0.024
		c-0.003,0.007-0.015,0.011-0.034,0.012c-0.012,0-0.023,0.002-0.037,0.005c-0.014,0.004-0.033,0.011-0.06,0.021
		s-0.061,0.024-0.104,0.043s-0.099,0.043-0.168,0.073v0.084c0,0.011,0.001,0.021,0.005,0.03c0.003,0.009,0.011,0.017,0.021,0.022
		c0.011,0.007,0.025,0.012,0.043,0.016c0.018,0.003,0.042,0.005,0.072,0.005c0.039,0,0.071-0.002,0.095-0.008
		c0.024-0.005,0.042-0.014,0.057-0.025c0.014-0.013,0.023-0.03,0.029-0.052s0.01-0.048,0.014-0.08
		c0.014,0.015,0.029,0.026,0.046,0.037s0.034,0.019,0.051,0.023c-0.011,0.039-0.022,0.07-0.034,0.094
		c-0.011,0.024-0.027,0.043-0.049,0.055c-0.021,0.013-0.05,0.021-0.084,0.026c-0.035,0.004-0.08,0.006-0.136,0.006
		c-0.048,0-0.086-0.001-0.114-0.005c-0.028-0.003-0.049-0.011-0.064-0.022s-0.024-0.028-0.028-0.051s-0.006-0.054-0.006-0.093V6.232
		c0-0.027-0.001-0.053-0.002-0.076c-0.001-0.022-0.003-0.044-0.005-0.064c0.018,0.005,0.035,0.008,0.051,0.01
		c0.016,0.002,0.035,0.001,0.058-0.001c0.013-0.001,0.021,0.002,0.023,0.007c0.002,0.006-0.003,0.014-0.015,0.023
		c-0.008,0.007-0.014,0.015-0.019,0.022c-0.004,0.008-0.006,0.021-0.006,0.037V6.344z M12.22,6.996
		c0.08-0.032,0.146-0.063,0.196-0.095c0.051-0.03,0.093-0.061,0.125-0.09c0.021,0.031,0.043,0.058,0.064,0.078
		c0.014,0.011,0.02,0.021,0.016,0.031c-0.004,0.009-0.015,0.014-0.033,0.014c-0.01,0-0.021,0.002-0.035,0.006
		c-0.015,0.003-0.035,0.01-0.063,0.02c-0.027,0.011-0.063,0.023-0.106,0.041c-0.043,0.017-0.098,0.039-0.164,0.067v0.153
		c0,0.014,0.001,0.025,0.003,0.035c0.003,0.009,0.009,0.017,0.018,0.022c0.01,0.005,0.023,0.009,0.042,0.012
		s0.043,0.004,0.074,0.004c0.049,0,0.088-0.002,0.117-0.005s0.052-0.01,0.07-0.02c0.018-0.011,0.03-0.026,0.039-0.047
		c0.008-0.021,0.017-0.048,0.024-0.083c0.026,0.028,0.055,0.047,0.086,0.054c-0.011,0.039-0.022,0.07-0.036,0.094
		c-0.012,0.023-0.03,0.042-0.055,0.055c-0.023,0.014-0.056,0.023-0.096,0.027c-0.041,0.004-0.094,0.006-0.16,0.006
		c-0.045,0-0.082,0-0.109-0.004s-0.049-0.012-0.064-0.021c-0.016-0.012-0.026-0.028-0.031-0.048
		c-0.006-0.021-0.008-0.048-0.008-0.083V6.921c0-0.036,0-0.066,0-0.09c0-0.022,0-0.041-0.001-0.056S12.131,6.749,12.13,6.74
		c-0.001-0.01-0.002-0.019-0.003-0.027c0.018,0.005,0.036,0.008,0.052,0.01c0.017,0.001,0.037,0.001,0.06-0.001
		c0.025-0.001,0.027,0.009,0.007,0.03c-0.008,0.008-0.014,0.021-0.019,0.042c-0.005,0.02-0.007,0.053-0.007,0.098V6.996z"/>
	<path fill="#FFFFFF" d="M13.146,6.492c0.031-0.029,0.058-0.059,0.078-0.088c0.021-0.029,0.041-0.064,0.058-0.104
		c0.028,0.026,0.05,0.045,0.063,0.054c0.016,0.011,0.022,0.021,0.021,0.03c-0.002,0.009-0.012,0.015-0.029,0.018
		c-0.006,0.001-0.014,0.004-0.021,0.009s-0.019,0.015-0.032,0.027c-0.013,0.013-0.031,0.03-0.054,0.053
		c-0.021,0.021-0.049,0.051-0.084,0.087c0,0.063-0.002,0.12-0.006,0.173s-0.008,0.102-0.015,0.146
		c0.022,0.02,0.042,0.038,0.059,0.056c0.017,0.017,0.033,0.033,0.048,0.049c0.016,0.017,0.029,0.032,0.043,0.049
		c0.015,0.017,0.029,0.034,0.046,0.054l-0.064,0.059c-0.021-0.033-0.041-0.064-0.063-0.094c-0.021-0.028-0.049-0.06-0.081-0.093
		c-0.018,0.084-0.041,0.159-0.072,0.225c-0.03,0.065-0.067,0.132-0.111,0.201c-0.012-0.012-0.022-0.02-0.033-0.027
		c-0.012-0.006-0.027-0.012-0.047-0.018c0.037-0.046,0.068-0.094,0.096-0.145c0.025-0.05,0.047-0.103,0.064-0.158
		c0.018-0.057,0.031-0.116,0.04-0.18s0.015-0.131,0.018-0.203C13.07,6.615,13.07,6.558,13.071,6.5
		c0.001-0.059,0.001-0.114-0.001-0.167c0-0.054-0.002-0.104-0.004-0.149c-0.002-0.045-0.005-0.083-0.008-0.114
		c0.018,0.005,0.035,0.008,0.055,0.01c0.019,0.002,0.035,0.002,0.049,0.001c0.012-0.001,0.02,0.002,0.023,0.01
		c0.006,0.007,0.003,0.016-0.007,0.026c-0.007,0.007-0.013,0.015-0.017,0.023s-0.007,0.026-0.009,0.051
		c-0.003,0.025-0.004,0.062-0.005,0.108S13.146,6.41,13.146,6.492z M13.002,6.411c0,0.026-0.002,0.056-0.004,0.088
		s-0.004,0.066-0.008,0.102s-0.01,0.07-0.015,0.106c-0.006,0.036-0.013,0.071-0.019,0.104l-0.084-0.017
		c0.009-0.037,0.016-0.071,0.023-0.101c0.006-0.029,0.012-0.059,0.016-0.087c0.004-0.029,0.006-0.059,0.008-0.09
		c0.002-0.03,0.005-0.067,0.007-0.109L13.002,6.411z M13.475,7.105c-0.023,0.065-0.047,0.124-0.072,0.177
		c-0.025,0.053-0.051,0.096-0.076,0.131l-0.1-0.047c0.018-0.02,0.034-0.038,0.049-0.057c0.015-0.019,0.027-0.039,0.041-0.062
		c0.012-0.023,0.025-0.049,0.037-0.077c0.014-0.028,0.027-0.063,0.043-0.102L13.475,7.105z M13.488,6.343
		c-0.012,0.027-0.022,0.054-0.033,0.077c-0.012,0.023-0.023,0.046-0.035,0.068c-0.014,0.022-0.026,0.045-0.041,0.067
		s-0.031,0.048-0.051,0.074c-0.011-0.009-0.021-0.017-0.031-0.025c-0.012-0.008-0.025-0.014-0.045-0.02
		c0.021-0.022,0.039-0.044,0.055-0.064s0.029-0.041,0.042-0.062c0.013-0.02,0.024-0.041,0.034-0.063
		c0.012-0.022,0.021-0.046,0.031-0.072c0.012-0.031,0.023-0.07,0.035-0.117s0.02-0.093,0.025-0.138
		c0.028,0.021,0.062,0.032,0.099,0.033c0.012,0.001,0.019,0.006,0.021,0.017c0.002,0.01-0.002,0.018-0.014,0.023
		c-0.018,0.01-0.039,0.053-0.064,0.128c0.039,0,0.072,0,0.1,0c0.028,0,0.051-0.001,0.07-0.002s0.035-0.002,0.047-0.003
		s0.021-0.002,0.029-0.004c-0.004,0.031-0.011,0.063-0.018,0.097c-0.007,0.032-0.016,0.063-0.023,0.095
		c0.02,0.002,0.041,0.004,0.064,0.005c0.022,0.001,0.048,0.002,0.076,0.003c0.006-0.051,0.01-0.109,0.012-0.175
		c0.001-0.065-0.002-0.135-0.01-0.206c0.023,0.008,0.044,0.013,0.061,0.015c0.018,0.002,0.033,0.002,0.049-0.001
		c0.01-0.002,0.018,0.002,0.021,0.013c0.003,0.01-0.003,0.019-0.017,0.025c-0.008,0.005-0.014,0.016-0.018,0.033
		c-0.003,0.019-0.005,0.039-0.005,0.063c-0.001,0.047-0.003,0.089-0.006,0.127s-0.007,0.073-0.013,0.105
		c0.117,0,0.205-0.005,0.265-0.015v0.099c-0.029-0.005-0.063-0.009-0.103-0.012c-0.039-0.002-0.084-0.003-0.137-0.003
		c0.015,0.046,0.029,0.088,0.046,0.127c0.016,0.039,0.034,0.076,0.056,0.11c0.021,0.034,0.045,0.067,0.07,0.099
		c0.027,0.032,0.057,0.063,0.092,0.094c-0.016,0.007-0.029,0.015-0.041,0.024s-0.024,0.023-0.037,0.04
		c-0.06-0.065-0.106-0.134-0.142-0.203c-0.034-0.07-0.065-0.149-0.09-0.236c-0.022,0.096-0.056,0.179-0.098,0.251
		s-0.097,0.14-0.163,0.204c-0.014-0.013-0.025-0.021-0.035-0.029s-0.025-0.016-0.049-0.025c0.074-0.049,0.134-0.112,0.18-0.19
		c0.046-0.077,0.079-0.166,0.1-0.265c-0.062,0.002-0.113,0.005-0.156,0.009c-0.012,0.032-0.023,0.062-0.035,0.088
		c-0.012,0.027-0.023,0.053-0.037,0.075c-0.034,0.059-0.07,0.112-0.111,0.161c-0.039,0.05-0.09,0.1-0.148,0.149
		C13.348,7,13.336,6.99,13.326,6.982c-0.011-0.007-0.025-0.016-0.044-0.026c0.043-0.025,0.083-0.054,0.118-0.086
		c0.036-0.032,0.07-0.07,0.102-0.117c-0.018-0.019-0.036-0.035-0.056-0.049c-0.02-0.015-0.042-0.029-0.068-0.047l0.039-0.059
		c0.029,0.021,0.053,0.037,0.071,0.051c0.018,0.015,0.035,0.029,0.052,0.045c0.009-0.015,0.018-0.03,0.026-0.047
		c0.008-0.017,0.017-0.033,0.025-0.052c-0.021-0.018-0.039-0.033-0.057-0.046c-0.018-0.014-0.042-0.029-0.073-0.049l0.039-0.055
		c0.027,0.016,0.05,0.03,0.067,0.043s0.034,0.026,0.051,0.041c0.01-0.024,0.018-0.051,0.023-0.078
		c0.007-0.028,0.014-0.064,0.021-0.109H13.488z M13.624,7.396c-0.006-0.047-0.017-0.095-0.031-0.147s-0.03-0.097-0.047-0.136
		l0.075-0.03c0.018,0.037,0.033,0.081,0.048,0.132c0.015,0.05,0.028,0.101,0.038,0.15L13.624,7.396z M13.859,7.375
		c-0.017-0.057-0.034-0.107-0.053-0.149c-0.018-0.042-0.038-0.082-0.061-0.121l0.066-0.031c0.011,0.015,0.021,0.033,0.033,0.055
		s0.023,0.044,0.035,0.069s0.023,0.051,0.033,0.076c0.011,0.025,0.02,0.049,0.026,0.072L13.859,7.375z M14.135,7.4
		c-0.023-0.059-0.053-0.117-0.088-0.171c-0.036-0.056-0.074-0.107-0.113-0.155l0.073-0.047c0.017,0.021,0.034,0.046,0.054,0.072
		c0.018,0.027,0.036,0.055,0.055,0.083s0.037,0.058,0.055,0.087s0.035,0.058,0.05,0.084L14.135,7.4z M14.092,6.405
		c-0.01-0.018-0.019-0.033-0.027-0.047c-0.008-0.013-0.016-0.025-0.023-0.037s-0.018-0.024-0.027-0.036
		c-0.011-0.012-0.023-0.026-0.039-0.043l0.061-0.044c0.013,0.016,0.024,0.03,0.033,0.041c0.01,0.012,0.02,0.023,0.027,0.034
		c0.009,0.011,0.018,0.022,0.026,0.034s0.021,0.027,0.033,0.045L14.092,6.405z"/>
	<path fill="#FFFFFF" d="M14.646,6.61c-0.058,0-0.108,0.001-0.155,0.003c-0.048,0.001-0.086,0.005-0.116,0.01V6.528
		c0.03,0.005,0.068,0.009,0.116,0.011c0.047,0.002,0.098,0.002,0.155,0.001V6.197c0-0.017,0-0.03-0.001-0.042
		c0-0.013-0.001-0.023-0.002-0.033s-0.002-0.02-0.004-0.028c-0.002-0.008-0.003-0.018-0.005-0.027
		c0.022,0.002,0.041,0.004,0.055,0.005c0.013,0.001,0.03,0.001,0.05,0c0.014-0.001,0.021,0.001,0.021,0.006s-0.004,0.011-0.016,0.02
		s-0.018,0.034-0.018,0.076V6.54c0.045,0,0.088-0.001,0.13-0.003s0.075-0.005,0.1-0.009v0.095c-0.024-0.004-0.058-0.007-0.1-0.009
		s-0.085-0.003-0.13-0.002v0.05c0.043,0.031,0.084,0.064,0.121,0.098c0.039,0.032,0.073,0.064,0.105,0.096l-0.078,0.069
		c-0.018-0.025-0.039-0.054-0.064-0.086c-0.027-0.032-0.055-0.063-0.084-0.092v0.43c0,0.035,0.002,0.075,0.004,0.119
		c0.004,0.043,0.008,0.088,0.013,0.133h-0.112c0.005-0.045,0.008-0.09,0.012-0.133c0.002-0.044,0.003-0.084,0.003-0.119V6.761
		c-0.035,0.073-0.073,0.146-0.113,0.219c-0.04,0.072-0.081,0.139-0.124,0.2c-0.013-0.017-0.025-0.03-0.039-0.041
		s-0.027-0.02-0.04-0.026c0.058-0.064,0.112-0.14,0.167-0.226s0.104-0.177,0.149-0.271V6.61z M14.525,6.467
		c-0.015-0.04-0.034-0.082-0.058-0.127c-0.023-0.044-0.05-0.086-0.077-0.123l0.075-0.044c0.009,0.012,0.02,0.028,0.031,0.049
		c0.013,0.021,0.024,0.043,0.038,0.066c0.012,0.024,0.025,0.049,0.037,0.073s0.022,0.046,0.031,0.065L14.525,6.467z M14.979,6.226
		c0.016,0.004,0.022,0.01,0.022,0.017c0,0.008-0.008,0.014-0.024,0.02c-0.004,0.002-0.009,0.006-0.016,0.012
		c-0.006,0.006-0.016,0.017-0.026,0.033c-0.012,0.016-0.026,0.037-0.042,0.064c-0.017,0.028-0.037,0.063-0.063,0.106
		c-0.021-0.02-0.045-0.031-0.07-0.038c0.031-0.045,0.06-0.09,0.083-0.134c0.023-0.045,0.042-0.087,0.056-0.127
		c0.015,0.014,0.027,0.024,0.041,0.031C14.951,6.216,14.965,6.222,14.979,6.226z M15.513,7.145c0,0.019,0,0.039,0.001,0.063
		c0,0.023,0.001,0.048,0.002,0.073s0.002,0.052,0.004,0.077c0.002,0.027,0.004,0.051,0.006,0.072h-0.117
		c0.002-0.02,0.004-0.041,0.006-0.066c0.003-0.025,0.005-0.051,0.006-0.078c0.002-0.026,0.004-0.052,0.004-0.076
		c0.002-0.025,0.002-0.046,0.002-0.064V6.989l-0.237,0.025c-0.032,0.003-0.062,0.006-0.087,0.01c-0.026,0.003-0.05,0.007-0.071,0.01
		s-0.042,0.006-0.062,0.01c-0.021,0.004-0.041,0.009-0.063,0.013l-0.011-0.103c0.023,0,0.045,0,0.066-0.001
		c0.021,0,0.043-0.001,0.064-0.002c0.023-0.001,0.047-0.003,0.072-0.005c0.024-0.003,0.053-0.006,0.085-0.009l0.243-0.023v-0.61
		c0-0.052-0.001-0.099-0.003-0.143c-0.003-0.043-0.006-0.076-0.011-0.098c0.023,0.006,0.043,0.01,0.061,0.013
		c0.017,0.002,0.033,0.003,0.051,0.002s0.027,0.002,0.029,0.008s-0.004,0.014-0.02,0.022c-0.008,0.005-0.014,0.017-0.016,0.033
		c-0.004,0.018-0.005,0.046-0.005,0.084v0.678c0.022-0.003,0.044-0.006,0.063-0.008c0.019-0.003,0.037-0.006,0.053-0.009
		c0.018-0.003,0.035-0.006,0.052-0.009s0.035-0.007,0.054-0.012l0.011,0.104c-0.037-0.001-0.073-0.001-0.107,0.001
		s-0.076,0.005-0.125,0.009V7.145z M15.25,6.854c-0.021-0.027-0.043-0.053-0.063-0.076s-0.039-0.044-0.06-0.063
		s-0.042-0.038-0.063-0.056s-0.044-0.035-0.069-0.052l0.055-0.066c0.021,0.016,0.044,0.033,0.069,0.055
		c0.026,0.021,0.052,0.044,0.077,0.067c0.025,0.022,0.049,0.046,0.072,0.068c0.021,0.022,0.04,0.042,0.055,0.059L15.25,6.854z
		 M15.277,6.522c-0.034-0.05-0.07-0.097-0.107-0.141c-0.037-0.043-0.082-0.085-0.131-0.123l0.059-0.065
		c0.021,0.019,0.043,0.039,0.066,0.063s0.047,0.048,0.068,0.071c0.023,0.024,0.044,0.048,0.064,0.072
		c0.02,0.023,0.037,0.046,0.053,0.064L15.277,6.522z"/>
	<path fill="#FFFFFF" d="M16.45,6.204c-0.052,0-0.103,0-0.152,0.001s-0.099,0.001-0.144,0.002c-0.045,0-0.086,0.001-0.124,0.003
		c-0.038,0.001-0.071,0.002-0.099,0.003V6.131c0.029,0.002,0.061,0.004,0.095,0.005s0.071,0.001,0.116,0.002
		c0.043,0,0.094,0.001,0.151,0.001C16.352,6.14,16.42,6.14,16.498,6.14c0.122,0,0.232-0.001,0.33-0.002
		c0.098-0.002,0.177-0.004,0.236-0.007v0.082c-0.057-0.003-0.127-0.005-0.211-0.006c-0.084-0.002-0.189-0.003-0.314-0.003v0.089
		c0.08,0,0.15,0,0.211-0.001c0.061,0,0.113-0.001,0.158-0.001c0.045-0.001,0.083-0.002,0.115-0.003
		c0.033-0.001,0.063-0.002,0.088-0.003v0.279h-0.087V6.355h-0.485v0.162c0,0.032,0,0.06,0,0.082
		c0.001,0.022,0.002,0.048,0.004,0.076h-0.099c0.002-0.029,0.003-0.056,0.005-0.078c0-0.022,0.001-0.048,0.001-0.078V6.355h-0.501
		v0.218h-0.086V6.285c0.026,0.001,0.056,0.002,0.089,0.003s0.072,0.002,0.118,0.003c0.047,0,0.1,0.001,0.162,0.001
		c0.063,0.001,0.135,0.001,0.218,0.001V6.204z M16.531,7.145c0,0.033,0.002,0.06,0.005,0.08c0.004,0.02,0.013,0.035,0.027,0.046
		c0.015,0.012,0.036,0.019,0.064,0.022s0.068,0.007,0.119,0.008c0.036,0.001,0.069,0.001,0.101-0.001
		c0.032-0.001,0.061-0.004,0.086-0.007c0.029-0.004,0.054-0.008,0.071-0.013c0.019-0.004,0.033-0.013,0.046-0.026
		c0.012-0.013,0.021-0.031,0.03-0.055S17.1,7.144,17.11,7.102c0.008,0.023,0.019,0.04,0.032,0.049
		c0.015,0.01,0.037,0.015,0.066,0.017c-0.018,0.04-0.034,0.073-0.052,0.1C17.14,7.292,17.121,7.313,17.1,7.329
		c-0.021,0.016-0.045,0.028-0.07,0.036s-0.055,0.012-0.089,0.014C16.92,7.38,16.893,7.382,16.855,7.38c-0.036,0-0.078,0-0.125,0
		c-0.063,0-0.113-0.002-0.151-0.008c-0.038-0.004-0.067-0.016-0.087-0.031c-0.02-0.017-0.033-0.041-0.039-0.072
		s-0.009-0.072-0.009-0.125c-0.071,0-0.13,0-0.177,0s-0.086,0.001-0.119,0.002s-0.062,0.002-0.086,0.003s-0.049,0.002-0.074,0.003
		c0.003-0.009,0.005-0.021,0.006-0.034c0.002-0.015,0.003-0.033,0.003-0.058V6.805c0-0.018-0.001-0.034-0.003-0.052
		c-0.001-0.017-0.003-0.029-0.006-0.037c0.029,0.002,0.055,0.004,0.076,0.005s0.05,0.001,0.082,0.002
		c0.033,0,0.076,0.001,0.129,0.001c0.054,0,0.125,0,0.215,0c0.082,0,0.148,0,0.201,0c0.051,0,0.094-0.001,0.129-0.001
		c0.035-0.001,0.065-0.001,0.09-0.002c0.025-0.001,0.053-0.003,0.082-0.005c-0.002,0.01-0.004,0.023-0.006,0.039
		c-0.003,0.016-0.004,0.032-0.004,0.05v0.253c0,0.018,0.001,0.035,0.002,0.054c0.002,0.019,0.004,0.032,0.008,0.041
		c-0.026-0.001-0.052-0.002-0.076-0.003c-0.023-0.001-0.052-0.002-0.085-0.003c-0.032-0.001-0.073-0.002-0.12-0.002
		C16.663,7.145,16.604,7.145,16.531,7.145z M16.037,6.481V6.431c0.016,0.001,0.038,0.002,0.068,0.002
		c0.029,0.001,0.06,0.001,0.09,0.001c0.029,0,0.062,0,0.094-0.001c0.033,0,0.058-0.001,0.072-0.002v0.051
		c-0.015-0.001-0.039-0.001-0.072-0.002c-0.032,0-0.064-0.001-0.094-0.001c-0.03,0-0.061,0.001-0.09,0.001
		C16.075,6.48,16.053,6.48,16.037,6.481z M16.039,6.609V6.559c0.016,0.001,0.037,0.002,0.068,0.002
		c0.03,0.001,0.061,0.001,0.091,0.001s0.062,0,0.095-0.001c0.033,0,0.059-0.001,0.073-0.002v0.051
		c-0.015-0.001-0.04-0.002-0.073-0.002c-0.033-0.001-0.064-0.001-0.095-0.001s-0.061,0-0.091,0.001
		C16.076,6.607,16.055,6.608,16.039,6.609z M16.444,6.785h-0.362V6.9h0.362V6.785z M16.444,6.959h-0.362V7.08h0.362V6.959z
		 M16.531,6.9h0.367V6.785h-0.367V6.9z M16.531,7.08h0.367V6.959h-0.367V7.08z M16.625,6.48V6.428
		c0.016,0.001,0.039,0.002,0.068,0.002c0.031,0.001,0.061,0.001,0.092,0.001c0.029,0,0.061,0,0.094-0.001
		c0.031,0,0.056-0.001,0.07-0.002V6.48c-0.015-0.001-0.039-0.002-0.07-0.002c-0.033-0.001-0.064-0.001-0.094-0.001
		c-0.031,0-0.061,0-0.092,0.001C16.664,6.479,16.641,6.479,16.625,6.48z M16.625,6.612V6.56c0.016,0.001,0.039,0.002,0.068,0.003
		c0.031,0,0.061,0,0.092,0c0.029,0,0.061,0,0.094,0c0.031-0.001,0.056-0.002,0.07-0.003v0.053c-0.015-0.001-0.039-0.002-0.07-0.002
		c-0.033-0.001-0.064-0.001-0.094-0.001c-0.031,0-0.061,0-0.092,0.001C16.664,6.61,16.641,6.611,16.625,6.612z"/>
	<path fill="#FFFFFF" d="M17.578,6.718c-0.02-0.021-0.039-0.04-0.057-0.058c-0.019-0.017-0.037-0.033-0.056-0.048
		s-0.04-0.029-0.063-0.044s-0.048-0.03-0.075-0.046l0.055-0.07c0.027,0.018,0.052,0.034,0.074,0.05
		c0.021,0.016,0.043,0.03,0.063,0.044c0.02,0.015,0.039,0.028,0.057,0.042c0.019,0.015,0.037,0.029,0.058,0.046L17.578,6.718z
		 M17.723,6.886c-0.035,0.066-0.076,0.145-0.122,0.232s-0.093,0.177-0.143,0.268c-0.017-0.014-0.035-0.025-0.054-0.037
		c-0.02-0.01-0.038-0.018-0.057-0.024c0.035-0.037,0.065-0.073,0.092-0.109c0.026-0.035,0.051-0.072,0.072-0.11
		c0.022-0.039,0.043-0.08,0.061-0.125c0.02-0.044,0.038-0.095,0.059-0.15C17.66,6.858,17.691,6.877,17.723,6.886z M17.693,6.371
		c-0.021-0.022-0.041-0.042-0.06-0.059c-0.019-0.018-0.039-0.033-0.06-0.048c-0.021-0.016-0.042-0.03-0.064-0.044
		c-0.023-0.014-0.05-0.029-0.078-0.046l0.054-0.065c0.028,0.018,0.056,0.034,0.079,0.049c0.023,0.016,0.045,0.031,0.066,0.045
		c0.021,0.015,0.041,0.03,0.061,0.046c0.02,0.015,0.039,0.031,0.059,0.048L17.693,6.371z M18.27,6.453
		c0.081-0.019,0.148-0.036,0.203-0.052s0.104-0.031,0.145-0.049l-0.009,0.455c-0.001,0.031-0.003,0.059-0.007,0.08
		s-0.014,0.04-0.027,0.057c-0.013,0.017-0.032,0.031-0.058,0.045c-0.026,0.013-0.06,0.025-0.102,0.038
		c-0.002-0.02-0.008-0.038-0.019-0.056c-0.01-0.018-0.024-0.036-0.045-0.057c0.035-0.001,0.063-0.004,0.084-0.009
		c0.022-0.005,0.04-0.012,0.053-0.021c0.012-0.01,0.021-0.021,0.026-0.034c0.006-0.014,0.009-0.029,0.009-0.047l0.01-0.34
		L18.27,6.526v0.375c0,0.027,0.001,0.06,0.002,0.098c0.002,0.037,0.004,0.075,0.008,0.114H18.17c0.005-0.04,0.008-0.078,0.01-0.114
		c0.002-0.037,0.003-0.069,0.003-0.098V6.546l-0.222,0.052v0.541c0,0.025,0.003,0.046,0.01,0.063c0.008,0.017,0.019,0.03,0.034,0.04
		c0.016,0.011,0.036,0.019,0.061,0.024c0.025,0.006,0.056,0.009,0.092,0.011c0.015,0.001,0.035,0.002,0.062,0.002
		c0.025,0,0.054,0,0.083,0c0.03,0,0.06,0,0.089-0.001c0.029,0,0.056-0.002,0.078-0.004c0.027-0.001,0.051-0.005,0.069-0.013
		c0.019-0.009,0.035-0.021,0.049-0.037s0.024-0.038,0.032-0.064s0.014-0.06,0.018-0.099c0.018,0.02,0.033,0.034,0.05,0.045
		c0.017,0.012,0.036,0.019,0.059,0.021c-0.013,0.042-0.024,0.077-0.039,0.104c-0.015,0.028-0.03,0.051-0.048,0.068
		s-0.039,0.03-0.063,0.038c-0.023,0.01-0.051,0.014-0.082,0.016c-0.043,0.004-0.083,0.006-0.117,0.008
		c-0.035,0.002-0.066,0.004-0.095,0.004c-0.028,0.002-0.055,0.002-0.079,0.002c-0.023,0-0.047,0-0.068-0.002
		c-0.053-0.002-0.098-0.006-0.135-0.016c-0.036-0.008-0.065-0.021-0.088-0.037c-0.021-0.017-0.037-0.038-0.047-0.064
		c-0.01-0.027-0.014-0.06-0.014-0.098V6.62c-0.023,0.007-0.047,0.015-0.072,0.024s-0.054,0.021-0.086,0.034l-0.028-0.114
		c0.026-0.002,0.053-0.005,0.08-0.009c0.028-0.003,0.063-0.009,0.106-0.017c0-0.057-0.001-0.105-0.002-0.148
		c0-0.042-0.001-0.079-0.002-0.109c-0.002-0.031-0.004-0.058-0.005-0.078s-0.003-0.037-0.005-0.052
		c0.023,0.004,0.046,0.006,0.066,0.007s0.039,0.001,0.058,0c0.017-0.001,0.026,0.002,0.028,0.011
		c0.001,0.009-0.006,0.016-0.02,0.021c-0.009,0.004-0.016,0.012-0.021,0.023c-0.006,0.013-0.008,0.022-0.008,0.032v0.275
		l0.222-0.048V6.243c0-0.042-0.001-0.079-0.004-0.111c-0.003-0.033-0.007-0.06-0.013-0.08c0.023,0.004,0.045,0.006,0.061,0.008
		c0.017,0.002,0.035,0.002,0.054,0.002c0.014,0,0.022,0.004,0.024,0.013c0.002,0.008-0.005,0.016-0.02,0.023
		c-0.011,0.005-0.016,0.035-0.016,0.09V6.453z"/>
	<path fill="#FFFFFF" d="M19.582,7.154c0.002,0.016,0.006,0.028,0.011,0.038c0.005,0.009,0.013,0.021,0.024,0.035l-0.246,0.131
		c-0.014,0.008-0.03,0.018-0.051,0.031c-0.021,0.016-0.041,0.027-0.058,0.039c-0.007-0.018-0.015-0.031-0.024-0.047
		c-0.01-0.014-0.021-0.029-0.037-0.043c0.031-0.007,0.061-0.018,0.088-0.031V6.912h-0.195c-0.008,0.097-0.021,0.184-0.041,0.261
		c-0.02,0.078-0.048,0.154-0.086,0.229c-0.015-0.01-0.029-0.018-0.045-0.025c-0.015-0.006-0.032-0.01-0.053-0.016
		c0.022-0.03,0.042-0.062,0.059-0.095c0.018-0.033,0.031-0.074,0.044-0.121c0.012-0.048,0.021-0.105,0.029-0.172
		c0.007-0.067,0.013-0.149,0.017-0.246c0.004-0.066,0.004-0.149,0.002-0.249c-0.004-0.101-0.008-0.215-0.017-0.344
		c0.013,0.002,0.029,0.004,0.049,0.005c0.02,0.002,0.049,0.003,0.087,0.004c0.039,0.001,0.09,0.002,0.152,0.003
		c0.063,0,0.146,0,0.248,0c0.095,0,0.174,0,0.236,0c0.063-0.001,0.113-0.002,0.153-0.003S20,6.141,20.021,6.139
		c0.021-0.001,0.039-0.003,0.053-0.005c-0.003,0.023-0.006,0.048-0.007,0.075c-0.001,0.026-0.003,0.053-0.003,0.078
		c0,0.028,0.002,0.06,0.004,0.091c0.002,0.032,0.004,0.058,0.006,0.077c-0.02-0.002-0.053-0.004-0.097-0.006
		c-0.045-0.002-0.097-0.003-0.157-0.003v0.155c0.04,0,0.084-0.001,0.13-0.002c0.047-0.002,0.089-0.003,0.128-0.005v0.087
		c-0.02-0.001-0.041-0.002-0.063-0.003s-0.046-0.002-0.069-0.003S19.9,6.674,19.879,6.673c-0.021,0-0.041-0.001-0.059-0.001v0.173
		c0.074,0,0.143-0.001,0.204-0.004c0.062-0.002,0.11-0.006,0.146-0.01v0.095c-0.011-0.002-0.025-0.004-0.045-0.005
		c-0.02-0.002-0.041-0.003-0.064-0.005c-0.023-0.001-0.049-0.002-0.076-0.003s-0.053-0.001-0.078-0.001h-0.238
		c0.033,0.074,0.077,0.14,0.131,0.195c0.031-0.024,0.063-0.053,0.092-0.085c0.03-0.032,0.055-0.063,0.07-0.089
		c0.029,0.027,0.057,0.048,0.082,0.062c0.014,0.007,0.02,0.014,0.018,0.021c-0.004,0.008-0.012,0.011-0.025,0.011
		c-0.006,0-0.014,0.002-0.021,0.005c-0.009,0.003-0.02,0.009-0.034,0.019c-0.014,0.009-0.032,0.021-0.054,0.037
		s-0.049,0.037-0.081,0.063c0.093,0.078,0.212,0.132,0.358,0.161c-0.02,0.017-0.033,0.032-0.045,0.045
		c-0.01,0.016-0.02,0.031-0.027,0.053c-0.068-0.025-0.129-0.053-0.183-0.083c-0.054-0.03-0.103-0.065-0.147-0.105
		c-0.043-0.039-0.084-0.084-0.119-0.135s-0.068-0.108-0.098-0.175h-0.207v0.354L19.582,7.154z M19.383,6.672
		c-0.035,0-0.072,0.001-0.111,0.003c-0.039,0.001-0.076,0.004-0.111,0.007V6.595c0.035,0.002,0.072,0.003,0.112,0.005
		c0.04,0.001,0.076,0.002,0.11,0.002V6.446h-0.276c-0.001,0.078-0.002,0.151-0.003,0.218S19.102,6.79,19.1,6.844h0.283V6.672z
		 M19.973,6.218h-0.866v0.156h0.866V6.218z M19.732,6.604V6.446h-0.262v0.157H19.732z M19.471,6.671v0.174h0.262V6.671H19.471z"/>
</g>
</svg>
